<svg width="163" height="69" viewBox="0 0 163 69" fill="none" xmlns="http://www.w3.org/2000/svg">
<g clip-path="url(#clip0_682_1222)">
<path d="M125.88 43.4698C136.31 38.6798 145.68 37.3098 145.13 46.9698C144.59 56.6698 119.64 65.0798 112.29 51.3398C104.65 37.0198 128.35 24.5098 129.57 23.8798C125.04 26.0098 114.48 30.0298 112.01 22.3498C108.01 9.94979 135.95 2.52979 141.61 16.6798C147.02 30.2098 134.45 39.2298 125.88 43.4698Z" fill="#FFA3C6"/>
<path d="M129.56 23.8798C125.03 26.0098 114.47 30.0298 112 22.3498C108 9.94979 135.94 2.52979 141.6 16.6798C147.01 30.2098 134.44 39.2298 125.87 43.4698C122.1 45.3398 119.11 46.2898 118.77 46.2998H118.76" stroke="#28323B" stroke-width="2" stroke-linecap="round" stroke-linejoin="round"/>
<path d="M131.65 22.8096C131.65 22.8096 130.88 23.2496 129.61 23.8496" stroke="#28323B" stroke-width="2" stroke-linecap="round" stroke-linejoin="round"/>
<path d="M129.61 23.8496C129.61 23.8496 129.59 23.8496 129.56 23.8696C128.35 24.4996 104.64 37.0096 112.28 51.3296C119.62 65.0796 144.58 56.6596 145.12 46.9596C145.67 37.3096 136.3 38.6696 125.87 43.4596C125.82 43.4796 125.77 43.5096 125.72 43.5296" stroke="#28323B" stroke-width="2" stroke-linecap="round" stroke-linejoin="round"/>
<path d="M161.7 21.7499C161.85 25.2099 161.92 27.6399 161.92 30.5599C161.92 65.9599 151.44 60.4499 151.44 60.4499C144.49 58.9299 150.35 46.2399 146 46.1199C143.14 46.0499 142.12 44.2999 141.88 42.6399C141.68 41.3099 142.22 39.9499 143.35 39.2099C144 38.7799 144.89 38.4499 146.06 38.4299C148.07 38.3899 148.16 34.5799 147.93 32.5599C147.59 29.5199 145.91 30.5899 144.28 30.1599C144.25 30.1499 144.22 30.1599 144.2 30.1599C141.2 30.0399 140.12 24.8799 142.97 23.2499C145.69 21.6899 147.47 23.1299 145.89 14.5299C145.89 14.5299 143.93 7.41991 149.41 5.45991C154.82 3.52991 161.67 8.18991 161.71 21.7499H161.7Z" fill="#FFA3C6"/>
<path d="M144.19 30.1705C141.19 30.0505 140.11 24.8905 142.96 23.2605C145.68 21.7005 147.46 23.1405 145.88 14.5405C145.88 14.5405 143.92 7.43046 149.4 5.47046C154.81 3.54046 161.28 7.17046 161.7 21.7605C161.8 25.2205 161.92 27.6505 161.92 30.5705C161.92 65.9705 151.44 60.4605 151.44 60.4605C145.03 58.7405 150.35 46.2505 146 46.1305C143.14 46.0605 142.12 44.3105 141.88 42.6505C141.68 41.3205 142.22 39.9605 143.35 39.2205C144 38.7905 144.89 38.4605 146.06 38.4405C148.07 38.4005 148.16 34.5905 147.93 32.5705C147.59 29.5305 145.91 30.6005 144.28 30.1705C144.25 30.1605 144.22 30.1705 144.2 30.1705H144.19Z" stroke="#28323B" stroke-width="2" stroke-linecap="round" stroke-linejoin="round"/>
<path d="M26.4205 17.4904V17.5104C29.9805 16.9804 33.2205 18.3504 33.6505 20.5804C34.0805 22.8104 32.0505 25.1904 27.9805 25.5804L23.6905 26.0904C32.5005 25.5404 37.6305 29.7804 36.0305 34.1404C33.4205 41.2904 9.13049 43.2404 4.15049 36.3504C-0.829515 29.4604 6.85049 24.3204 6.85049 24.3204C6.85049 24.3204 -4.88951 19.4504 4.93049 8.87043C14.7305 -1.69957 36.7905 1.82043 35.1005 11.0404C34.4005 14.8904 30.6105 16.6904 26.4205 17.4904Z" fill="#FFA3C6"/>
<path d="M23.5997 26.0996C20.7297 26.2896 17.4697 26.9796 13.9297 28.3496" stroke="#28323B" stroke-width="2" stroke-linecap="round" stroke-linejoin="round"/>
<path d="M13.9297 17.7596C13.9297 17.7596 20.5597 18.6096 26.4197 17.4896C30.6097 16.6896 34.4097 14.8896 35.0997 11.0396C36.7897 1.81956 14.7297 -1.70044 4.91974 8.87956C-4.90026 19.4596 6.83974 24.3296 6.83974 24.3296C6.83974 24.3296 -0.840257 29.4696 4.13974 36.3596C9.11974 43.2496 33.4097 41.2996 36.0197 34.1496C37.6197 29.7896 32.4897 25.5496 23.6797 26.0996" stroke="#28323B" stroke-width="2" stroke-linecap="round" stroke-linejoin="round"/>
<path d="M26.4296 17.5104C29.9796 16.9804 33.2296 18.3504 33.6496 20.5804C34.0696 22.8104 32.0496 25.1904 27.9796 25.5804L23.6896 26.0904H23.5996" stroke="#28323B" stroke-width="2" stroke-linecap="round" stroke-linejoin="round"/>
<path d="M44.9104 2.8204C50.6004 1.6104 58.3604 4.8804 56.6604 22.6904C54.9604 40.4904 46.6004 38.5504 46.6004 38.5504C46.6004 38.5504 42.8504 38.4304 42.8504 34.1904C42.8504 29.9504 42.4304 29.0704 39.7004 29.1104C36.9704 29.1504 35.9204 24.0104 38.4804 22.2004C41.0304 20.3904 42.9704 22.0804 41.4004 13.4804C41.4004 13.4804 39.2204 4.0404 44.9104 2.8204Z" fill="#FFA3C6"/>
<path d="M41.4004 13.4802C41.4004 13.4802 39.2204 4.04024 44.9104 2.82024C50.6004 1.60024 58.3604 4.88025 56.6604 22.6902C54.9604 40.4902 46.6004 38.5502 46.6004 38.5502C46.6004 38.5502 42.8504 38.4302 42.8504 34.1902C42.8504 29.9502 42.4304 29.0702 39.7004 29.1102C36.9704 29.1502 35.9204 24.0102 38.4804 22.2002C41.0304 20.3902 42.9704 22.0802 41.4004 13.4802Z" stroke="#28323B" stroke-width="2" stroke-linecap="round" stroke-linejoin="round"/>
<path d="M29.4104 67.8403C42.4167 67.8403 52.9604 61.0082 52.9604 52.5803C52.9604 44.1524 42.4167 37.3203 29.4104 37.3203C16.404 37.3203 5.86035 44.1524 5.86035 52.5803C5.86035 61.0082 16.404 67.8403 29.4104 67.8403Z" fill="#FFA3C6"/>
<path d="M29.4104 67.8403C42.4167 67.8403 52.9604 61.0082 52.9604 52.5803C52.9604 44.1524 42.4167 37.3203 29.4104 37.3203C16.404 37.3203 5.86035 44.1524 5.86035 52.5803C5.86035 61.0082 16.404 67.8403 29.4104 67.8403Z" stroke="#28323B" stroke-width="2" stroke-linecap="round" stroke-linejoin="round"/>
<path d="M19.0703 51.3203C19.0703 51.3203 27.3203 57.0103 39.7503 51.3203" stroke="#28323B" stroke-width="2" stroke-linecap="round" stroke-linejoin="round"/>
<path d="M103.01 30.5801C106.53 30.8601 109.14 33.9501 108.86 37.4701C108.56 40.9901 105.48 43.6101 101.96 43.3201C81.1895 41.6001 63.5495 44.0401 63.3795 44.0601C63.0695 44.1001 62.7795 44.1201 62.4795 44.1201C59.3395 44.1201 56.5995 41.8101 56.1495 38.6201C55.6695 35.1201 58.0895 31.8801 61.5895 31.4001C62.3595 31.2801 80.7395 28.7301 103.01 30.5801Z" fill="#FFA3C6"/>
<path d="M62.4795 44.1201C59.3395 44.1201 56.5995 41.8101 56.1495 38.6201C55.6695 35.1201 58.0895 31.8801 61.5895 31.4001C62.3595 31.2801 80.7395 28.7301 103.01 30.5801C106.53 30.8601 109.14 33.9501 108.86 37.4701C108.56 40.9901 105.48 43.6101 101.96 43.3201C81.1895 41.6001 63.5495 44.0401 63.3795 44.0601C63.0695 44.1001 62.7795 44.1201 62.4795 44.1201Z" stroke="#28323B" stroke-width="2" stroke-linecap="round" stroke-linejoin="round"/>
<path d="M101.66 52.3796C103.79 52.5596 105.61 53.3296 106.88 54.9396C111.13 60.3296 104.55 70.1396 74.56 67.3896C56.08 65.6796 60.81 51.7796 70.5 52.3596C70.82 52.3796 71.13 52.3996 71.44 52.4096C68.24 52.1696 63.03 51.3996 61.96 48.9896C59.81 44.1196 66.05 40.7196 80.78 40.2396C95.53 39.7496 105.67 43.8096 105.48 47.6296C105.33 50.5196 102.99 52.3896 101.65 52.3896L101.66 52.3796ZM72.28 52.4496C72.03 52.4296 71.78 52.4196 71.53 52.3996C71.79 52.4196 72.05 52.4396 72.28 52.4496ZM72.36 52.4496C72.83 52.4796 73.22 52.4996 73.51 52.4996C73.13 52.4796 72.75 52.4696 72.36 52.4496ZM101.49 52.3696C101.31 52.3496 101.13 52.3396 100.94 52.3396C100.94 52.3396 101.15 52.3696 101.49 52.3696Z" fill="#FFA3C6"/>
<path d="M73.5596 52.5003C81.3596 52.3403 82.0196 51.9103 84.3196 51.3203" stroke="#28323B" stroke-width="2" stroke-linecap="round" stroke-linejoin="round"/>
<path d="M72.3604 52.4502C72.7504 52.4702 73.1304 52.4802 73.5104 52.5002" stroke="#28323B" stroke-width="2" stroke-linecap="round" stroke-linejoin="round"/>
<path d="M71.54 52.4004C71.79 52.4204 72.04 52.4304 72.29 52.4504" stroke="#28323B" stroke-width="2" stroke-linecap="round" stroke-linejoin="round"/>
<path d="M101.66 52.3804C103.79 52.5604 105.61 53.3304 106.88 54.9404C111.13 60.3304 104.55 70.1404 74.56 67.3904C56.08 65.6804 60.81 51.7804 70.5 52.3604C70.82 52.3804 71.13 52.4004 71.44 52.4104" stroke="#28323B" stroke-width="2" stroke-linecap="round" stroke-linejoin="round"/>
<path d="M75.83 58.5803C75.83 58.5803 82.68 59.0103 90.14 55.6903C95.14 53.4703 96.02 52.1903 100.95 52.3503C101.14 52.3503 101.32 52.3503 101.5 52.3803" stroke="#28323B" stroke-width="2" stroke-linecap="round" stroke-linejoin="round"/>
<path d="M100.94 52.3398C100.94 52.3398 99.55 52.3198 99.88 52.3198C99.93 52.3198 99.99 52.3198 100.05 52.3198C101.39 52.3198 106.81 51.1898 105.14 46.5898C103.78 42.8498 95.53 39.7298 80.78 40.2198C66.05 40.7098 59.81 44.1098 61.96 48.9698C63.02 51.3798 68.23 52.1498 71.44 52.3898C71.52 52.3898 71.56 52.3898 71.53 52.3898C71.79 52.4098 72.05 52.4298 72.28 52.4398H72.35C72.82 52.4698 73.21 52.4898 73.5 52.4898H73.55C73.81 52.4898 73.97 52.4898 73.98 52.4898" stroke="#28323B" stroke-width="2" stroke-linecap="round" stroke-linejoin="round"/>
<path d="M91.4 14.6003C95.24 14.4703 100.91 14.4303 100.94 17.6203C100.95 19.0803 98.65 20.6903 94.34 20.6903C100.5 21.0203 103.56 23.0003 103.09 26.6103C102.12 33.9203 71.06 34.8403 65 28.7103C58.94 22.5803 66.01 18.2803 66.01 18.2803C66.01 18.2803 56.89 12.3803 66.6 5.70034C78.9 -2.76966 103.14 1.19034 102.65 9.59034C102.44 13.1103 97.19 14.3203 91.4 14.5903V14.6003Z" fill="#FFA3C6"/>
<path d="M94.23 20.7003C89.69 20.4703 83.49 21.1203 75.83 22.6803" stroke="#28323B" stroke-width="2" stroke-linecap="round" stroke-linejoin="round"/>
<path d="M91.4 14.6001C97.19 14.3301 102.44 13.1101 102.65 9.60011C103.15 1.20011 78.9 -2.7599 66.6 5.7101C56.89 12.3901 66.01 18.2901 66.01 18.2901C66.01 18.2901 58.94 22.5901 65 28.7201C71.06 34.8501 102.12 33.9201 103.09 26.6201C103.56 23.0101 100.5 21.0301 94.34 20.7001" stroke="#28323B" stroke-width="2" stroke-linecap="round" stroke-linejoin="round"/>
<path d="M76.08 13.7803C76.08 13.7803 84.09 14.9303 91.32 14.6003" stroke="#28323B" stroke-width="2" stroke-linecap="round" stroke-linejoin="round"/>
<path d="M91.3203 14.5998H91.4003C95.2403 14.4698 100.91 14.4298 100.94 17.6198C100.95 19.0798 98.6503 20.6898 94.3403 20.6898H94.2203" stroke="#28323B" stroke-width="2" stroke-linecap="round" stroke-linejoin="round"/>
</g>
<defs>
<clipPath id="clip0_682_1222">
<rect width="162.92" height="68.86" fill="white"/>
</clipPath>
</defs>
</svg>
