<svg width="303" height="153" viewBox="0 0 303 153" fill="none" xmlns="http://www.w3.org/2000/svg">
<rect x="1" y="1" width="301" height="151" rx="15" fill="#F8FAFA"/>
<rect x="1" y="1" width="301" height="151" rx="15" stroke="#1F1F1F" stroke-width="2"/>
<path d="M30.6094 23.9258V32.8262H29.3105V23.9258H30.6094ZM30.9785 34.8496V35.9023H22.5977V31.9238H23.9102V34.8496H30.9785ZM23.9648 24.7461C25.8105 24.7461 27.2188 26.0039 27.2188 27.7812C27.2188 29.5859 25.8105 30.8301 23.9648 30.8301C22.1191 30.8301 20.6973 29.5859 20.6973 27.7812C20.6973 26.0039 22.1191 24.7461 23.9648 24.7461ZM23.9648 25.8809C22.8164 25.8809 21.9688 26.6602 21.9688 27.7812C21.9688 28.9297 22.8164 29.6953 23.9648 29.6953C25.0859 29.6953 25.9473 28.9297 25.9473 27.7812C25.9473 26.6602 25.0859 25.8809 23.9648 25.8809ZM42.7363 23.9258V33.209H41.4375V32.0332H38.9766V31.1172H41.4375V23.9258H42.7363ZM43.0371 34.8496V35.9023H34.1914V32.3066H35.4766V34.8496H43.0371ZM32.4961 29.5176C34.7656 29.5039 37.8145 29.4766 40.4258 29.1484L40.5078 30.0781C39.4619 30.249 38.3613 30.3652 37.2812 30.4336V32.8262H35.9824V30.502C34.793 30.5566 33.6514 30.5635 32.6602 30.5566L32.4961 29.5176ZM36.502 24.3906C38.293 24.3906 39.5371 25.252 39.5371 26.5508C39.5371 27.8496 38.293 28.6836 36.502 28.6836C34.6836 28.6836 33.4531 27.8496 33.4531 26.5508C33.4531 25.252 34.6836 24.3906 36.502 24.3906ZM36.502 25.3613C35.4082 25.3477 34.6699 25.8125 34.6836 26.5508C34.6699 27.2754 35.4082 27.7266 36.502 27.7266C37.5547 27.7266 38.293 27.2754 38.3066 26.5508C38.293 25.8125 37.5547 25.3477 36.502 25.3613Z" fill="#8C8C8C"/>
<path d="M57.875 35V33.9062L61.3066 30.4473C62.3867 29.3125 62.9336 28.6836 62.9336 27.8223C62.9336 26.8516 62.1406 26.2227 61.1016 26.2227C60.0078 26.2227 59.2969 26.9199 59.2969 27.9727H57.875C57.8613 26.168 59.2422 24.9648 61.1289 24.9648C63.043 24.9648 64.3555 26.168 64.3691 27.7812C64.3555 28.8887 63.8359 29.7637 61.9766 31.5957L59.9668 33.6328V33.7148H64.5332V35H57.875ZM66.6387 29.791C67.0898 29.2852 67.6504 29.0254 68.2656 29.0254C69.332 29.0254 70.2754 29.8047 71.3145 29.8047C71.9434 29.8047 72.4902 29.5312 72.9141 28.9844V30.2969C72.4492 30.8027 71.9023 31.0625 71.2871 31.0625C70.2207 31.0625 69.2637 30.2832 68.2246 30.2832C67.6094 30.2832 67.0762 30.5566 66.6387 31.1035V29.791ZM78.8613 25.1016V35H77.3438V26.6055H77.2891L74.9238 28.1504V26.7148L77.3848 25.1016H78.8613ZM84.8223 35.1367C82.5254 35.1367 81.1855 33.291 81.1855 30.0508C81.1855 26.8379 82.5527 24.9648 84.8223 24.9648C87.0918 24.9648 88.459 26.8379 88.459 30.0508C88.459 33.291 87.1055 35.1367 84.8223 35.1367ZM84.8223 33.8379C86.1621 33.8379 86.9551 32.5254 86.9551 30.0508C86.9551 27.5898 86.1484 26.2363 84.8223 26.2363C83.4961 26.2363 82.6895 27.5898 82.6895 30.0508C82.6895 32.5254 83.4824 33.8379 84.8223 33.8379ZM99.8066 23.9121V31.1445H98.5078V29.3262H95.8418V30.3242H90.1543V24.8281H95.8418V25.8398H98.5078V23.9121H99.8066ZM91.4395 25.8672V29.2852H94.5703V25.8672H91.4395ZM95.7051 31.4863C98.2754 31.4863 99.8477 32.334 99.8477 33.8242C99.8477 35.3008 98.2754 36.1484 95.7051 36.1348C93.1348 36.1484 91.5488 35.3008 91.5625 33.8242C91.5488 32.334 93.1348 31.4863 95.7051 31.4863ZM95.7051 32.4844C93.9141 32.498 92.8477 32.9629 92.8477 33.8242C92.8477 34.6445 93.9141 35.1367 95.7051 35.1367C97.4961 35.1367 98.5625 34.6445 98.5625 33.8242C98.5625 32.9629 97.4961 32.498 95.7051 32.4844ZM95.8418 28.2734H98.5078V26.8789H95.8418V28.2734Z" fill="#1F1F1F"/>
<path d="M24.9902 50.4688C24.9902 52.0547 26.166 53.5449 28.0527 54.1465L27.3828 55.1582C25.9746 54.6934 24.9082 53.7295 24.3613 52.5059C23.8076 53.8389 22.7207 54.8916 21.2578 55.4043L20.5879 54.3789C22.4883 53.7363 23.6641 52.1504 23.6777 50.4688V49.9355H20.9297V48.8828H27.6836V49.9355H24.9902V50.4688ZM30.6094 47.9258V56.8672H29.3105V47.9258H30.6094ZM30.9785 58.8496V59.9023H22.5977V56.0195H23.9102V58.8496H30.9785ZM42.9961 47.9121V55.6367H41.7656V52.2188H40.3438V55.2129H39.127V48.1445H40.3438V51.1523H41.7656V47.9121H42.9961ZM38.6758 49.3066V50.332H32.4824V49.3066H34.957V48.0078H36.2422V49.3066H38.6758ZM35.5859 50.9062C37.1445 50.9062 38.2383 51.7402 38.2383 53.0117C38.2383 54.2832 37.1445 55.1172 35.5859 55.1172C34.0547 55.1172 32.9609 54.2832 32.9609 53.0117C32.9609 51.7402 34.0547 50.9062 35.5859 50.9062ZM35.5859 51.8633C34.7246 51.8633 34.123 52.3145 34.123 53.0117C34.123 53.709 34.7246 54.1738 35.5859 54.1738C36.4746 54.1738 37.0625 53.709 37.0625 53.0117C37.0625 52.3145 36.4746 51.8633 35.5859 51.8633ZM38.8945 55.8145C41.4922 55.8145 43.0508 56.5938 43.0645 57.9883C43.0508 59.3555 41.4922 60.1484 38.8945 60.1348C36.2969 60.1484 34.7383 59.3555 34.752 57.9883C34.7383 56.5938 36.2969 55.8145 38.8945 55.8145ZM38.8945 56.8125C37.0762 56.8125 36.0234 57.2227 36.0371 57.9883C36.0234 58.7266 37.0762 59.1504 38.8945 59.1367C40.7266 59.1504 41.752 58.7266 41.7656 57.9883C41.752 57.2227 40.7266 56.8125 38.8945 56.8125Z" fill="#8C8C8C"/>
<path d="M66.9941 47.9121V52.6973H68.9629V53.791H66.9941V60.1895H65.709V47.9121H66.9941ZM63.5352 49.0195V53.5176H59.2422V56.1699C61.3477 56.1631 62.9062 56.0879 64.6973 55.7598L64.8203 56.8125C62.9062 57.168 61.252 57.25 58.9551 57.2637H57.957V52.4648H62.25V50.0723H57.9297V49.0195H63.5352ZM80.748 54.0508V55.1035H75.8945V57.4824H74.582V55.1035H69.5371V54.0508H80.748ZM79.5039 58.8359V59.9023H70.9453V56.3066H72.2441V58.8359H79.5039ZM75.1289 48.1992C77.7676 48.1992 79.4766 49.1562 79.4766 50.6875C79.4766 52.2188 77.7676 53.1621 75.1289 53.1621C72.5039 53.1621 70.7676 52.2188 70.7676 50.6875C70.7676 49.1562 72.5039 48.1992 75.1289 48.1992ZM75.1289 49.2383C73.3379 49.2383 72.1484 49.7852 72.1621 50.6875C72.1484 51.5762 73.3379 52.1094 75.1289 52.1094C76.9336 52.1094 78.1094 51.5762 78.1094 50.6875C78.1094 49.7852 76.9336 49.2383 75.1289 49.2383ZM91.5762 53.7227V54.7891H83.0449V49.0059H91.4668V50.0723H84.3301V53.7227H91.5762ZM92.8613 57.4688V58.5488H81.6504V57.4688H92.8613ZM103.389 47.9121V51.0156H105.152V52.082H103.389V55.1445H102.076V47.9121H103.389ZM99.4238 55.377C101.926 55.377 103.484 56.252 103.484 57.7559C103.484 59.2598 101.926 60.1484 99.4238 60.1348C96.8945 60.1484 95.3086 59.2598 95.3086 57.7559C95.3086 56.252 96.8945 55.377 99.4238 55.377ZM99.4238 56.4297C97.6465 56.416 96.5801 56.9082 96.5938 57.7559C96.5801 58.6035 97.6465 59.0957 99.4238 59.0957C101.16 59.0957 102.227 58.6035 102.24 57.7559C102.227 56.9082 101.16 56.416 99.4238 56.4297ZM99.7383 48.8145V49.8672H95.5547V53.2031C97.9678 53.1963 99.3281 53.1211 100.873 52.8066L100.996 53.8594C99.3555 54.2012 97.8926 54.2559 95.2402 54.2559H94.2695V48.8145H99.7383ZM115.639 49.1562C115.625 52.7656 114.518 55.9785 110.047 58.1797L109.336 57.209C111.551 56.1221 112.87 54.8027 113.602 53.2441L109.596 53.627L109.404 52.5059L113.998 52.1914C114.183 51.5693 114.292 50.9062 114.34 50.209H110.047V49.1562H115.639ZM118.811 47.9121V52.8066H120.711V53.873H118.811V60.1484H117.512V47.9121H118.811ZM131.293 53.7227V54.7891H122.762V49.0059H131.184V50.0723H124.047V53.7227H131.293ZM132.578 57.4688V58.5488H121.367V57.4688H132.578ZM141.068 49.1016V59H139.551V50.6055H139.496L137.131 52.1504V50.7148L139.592 49.1016H141.068ZM147.029 59.1367C144.732 59.1367 143.393 57.291 143.393 54.0508C143.393 50.8379 144.76 48.9648 147.029 48.9648C149.299 48.9648 150.666 50.8379 150.666 54.0508C150.666 57.291 149.312 59.1367 147.029 59.1367ZM147.029 57.8379C148.369 57.8379 149.162 56.5254 149.162 54.0508C149.162 51.5898 148.355 50.2363 147.029 50.2363C145.703 50.2363 144.896 51.5898 144.896 54.0508C144.896 56.5254 145.689 57.8379 147.029 57.8379ZM156.08 50.168C156.08 51.7266 157.16 53.1484 159.02 53.7363L158.404 54.748C157.01 54.3037 155.991 53.3809 155.451 52.2188C154.918 53.5586 153.845 54.6182 152.375 55.1309L151.705 54.0918C153.619 53.4629 154.768 51.877 154.781 50.1816V49.8398H152.088V48.7871H158.719V49.8398H156.08V50.168ZM161.426 47.9121V50.9473H163.203V52.0137H161.426V55.2676H160.127V47.9121H161.426ZM157.475 55.5684C160.004 55.5684 161.535 56.4023 161.535 57.8379C161.535 59.2871 160.004 60.1484 157.475 60.1348C154.918 60.1484 153.359 59.2871 153.359 57.8379C153.359 56.4023 154.918 55.5684 157.475 55.5684ZM157.475 56.5938C155.697 56.5938 154.645 57.0449 154.658 57.8379C154.645 58.6582 155.697 59.1094 157.475 59.1094C159.238 59.1094 160.264 58.6582 160.264 57.8379C160.264 57.0449 159.238 56.5938 157.475 56.5938ZM169 57.3594L168.084 56.4434L170.408 54.1055L168.084 51.7949L169 50.8789L171.324 53.1895L173.648 50.8789L174.564 51.7949L172.24 54.1055L174.564 56.4434L173.648 57.3594L171.324 55.0352L169 57.3594ZM190.807 54.1875V55.2402H179.637V54.1875H184.572V52.7793H185.857V54.1875H190.807ZM185.857 47.8984V49.0742H189.686V50.1133H185.939C186.076 51.2959 187.771 52.1846 190.205 52.3828L189.809 53.3809C187.689 53.1826 185.974 52.4717 185.215 51.3301C184.449 52.4717 182.733 53.1826 180.635 53.3809L180.225 52.3828C182.645 52.1846 184.34 51.2959 184.49 50.1133H180.758V49.0742H184.572V47.8984H185.857ZM185.215 56.0469C187.881 56.0469 189.439 56.7715 189.439 58.0977C189.439 59.4238 187.881 60.1484 185.215 60.1348C182.535 60.1484 180.963 59.4238 180.963 58.0977C180.963 56.7715 182.535 56.0469 185.215 56.0469ZM185.215 57.0176C183.328 57.0176 182.275 57.4004 182.275 58.0977C182.275 58.7949 183.328 59.1641 185.215 59.1504C187.074 59.1641 188.141 58.7949 188.141 58.0977C188.141 57.4004 187.074 57.0176 185.215 57.0176ZM199.092 59.1367C197.041 59.1367 195.578 58.0293 195.523 56.416H197.055C197.109 57.291 197.971 57.8379 199.078 57.8379C200.268 57.8379 201.143 57.1816 201.143 56.2246C201.143 55.2539 200.322 54.543 198.914 54.543H198.066V53.3125H198.914C200.035 53.3125 200.828 52.6836 200.828 51.7402C200.828 50.8379 200.158 50.2227 199.105 50.2227C198.107 50.2227 197.232 50.7695 197.191 51.6719H195.742C195.783 50.0586 197.273 48.9648 199.119 48.9648C201.061 48.9648 202.291 50.1953 202.277 51.6582C202.291 52.7793 201.594 53.5996 200.527 53.8594V53.9277C201.881 54.1191 202.66 55.0215 202.66 56.2793C202.66 57.9336 201.143 59.1367 199.092 59.1367ZM213.434 47.9121V52.6973H215.402V53.791H213.434V60.1895H212.148V47.9121H213.434ZM209.975 49.0195V53.5176H205.682V56.1699C207.787 56.1631 209.346 56.0879 211.137 55.7598L211.26 56.8125C209.346 57.168 207.691 57.25 205.395 57.2637H204.396V52.4648H208.689V50.0723H204.369V49.0195H209.975ZM227.188 54.0508V55.1035H222.334V57.4824H221.021V55.1035H215.977V54.0508H227.188ZM225.943 58.8359V59.9023H217.385V56.3066H218.684V58.8359H225.943ZM221.568 48.1992C224.207 48.1992 225.916 49.1562 225.916 50.6875C225.916 52.2188 224.207 53.1621 221.568 53.1621C218.943 53.1621 217.207 52.2188 217.207 50.6875C217.207 49.1562 218.943 48.1992 221.568 48.1992ZM221.568 49.2383C219.777 49.2383 218.588 49.7852 218.602 50.6875C218.588 51.5762 219.777 52.1094 221.568 52.1094C223.373 52.1094 224.549 51.5762 224.549 50.6875C224.549 49.7852 223.373 49.2383 221.568 49.2383ZM238.016 53.7227V54.7891H229.484V49.0059H237.906V50.0723H230.77V53.7227H238.016ZM239.301 57.4688V58.5488H228.09V57.4688H239.301Z" fill="#1F1F1F"/>
<path d="M26.6719 72.4863V73.5254H22.2832V74.6602H26.4395V75.6582H22.2832V76.875C24.5938 76.8682 25.8994 76.8203 27.4785 76.5742L27.6016 77.5996C25.9062 77.873 24.498 77.9277 21.9414 77.9277H20.9844V72.4863H26.6719ZM30.0762 71.9121V74.4961H31.8535V75.5625H30.0762V78.2832H28.7773V71.9121H30.0762ZM30.0762 78.8438V81.8516H23.459V83.0273H30.5V84.0391H22.1875V80.8945H28.791V79.8691H22.1602V78.8438H30.0762ZM38.6211 72.6367V76.1367H34.3555V77.709C36.4814 77.7021 37.9854 77.627 39.7695 77.3262L39.9062 78.3789C38.0059 78.707 36.3926 78.7754 34.041 78.7754H33.0566V75.125H37.3496V73.6895H33.043V72.6367H38.6211ZM42.1758 71.9258V74.9883H43.9668V76.0684H42.1758V79.3633H40.877V71.9258H42.1758ZM42.1758 79.9785V84.1484H40.877V81.0312H34.082V79.9785H42.1758Z" fill="#8C8C8C"/>
<path d="M64.3555 73.1973V74.2363H57.4648V73.1973H60.3359V71.8164H61.6211V73.1973H64.3555ZM60.9648 74.7695C62.6055 74.7832 63.7812 75.7129 63.7949 77.1211C63.7812 78.5293 62.6055 79.4863 60.9648 79.4727C59.3105 79.4863 58.1484 78.5293 58.1484 77.1211C58.1484 75.7129 59.3105 74.7832 60.9648 74.7695ZM60.9648 75.7812C60.0078 75.7812 59.3652 76.3008 59.3652 77.1211C59.3652 77.9414 60.0078 78.4746 60.9648 78.4609C61.9082 78.4746 62.5645 77.9414 62.5781 77.1211C62.5645 76.3008 61.9082 75.7812 60.9648 75.7812ZM67.6641 71.9121V80.6895H66.3652V78.3926H64.3965V77.3398H66.3652V75.959H64.4238V74.9199H66.3652V71.9121H67.6641ZM64.3145 80.0742C64.3145 81.5645 66.0781 82.7812 68.4434 83.1094L67.9512 84.1074C66.0029 83.8066 64.3828 82.9521 63.6445 81.6738C62.8926 82.9385 61.2725 83.834 59.3516 84.1074L58.873 83.1094C61.1836 82.7812 62.9746 81.5371 62.9883 80.0742V79.9238H64.3145V80.0742ZM79.0938 71.9121V76.6562H81.0625V77.75H79.0938V84.1621H77.7949V71.9121H79.0938ZM71.3008 72.9375V76.082H74.541V72.9375H75.8262V81.25H70.0156V72.9375H71.3008ZM71.3008 80.1836H74.541V77.1074H71.3008V80.1836ZM91.2754 71.9121V74.9336H93.0527V76.0273H91.2754V79.1035H89.9766V71.9121H91.2754ZM91.2754 79.7598V84.1758H89.9766V80.7988H83.1816V79.7598H91.2754ZM87.666 72.7734V73.8262H83.4824V77.2031C85.8682 77.1963 87.2148 77.1211 88.7461 76.8066L88.8965 77.8457C87.2422 78.1875 85.793 78.2559 83.168 78.2559H82.1973V72.7734H87.666ZM97.5918 83V81.9062L101.023 78.4473C102.104 77.3125 102.65 76.6836 102.65 75.8223C102.65 74.8516 101.857 74.2227 100.818 74.2227C99.7246 74.2227 99.0137 74.9199 99.0137 75.9727H97.5918C97.5781 74.168 98.959 72.9648 100.846 72.9648C102.76 72.9648 104.072 74.168 104.086 75.7812C104.072 76.8887 103.553 77.7637 101.693 79.5957L99.6836 81.6328V81.7148H104.25V83H97.5918ZM115.98 71.9121V84.1621H114.736V77.8047H113.219V83.5742H112.002V72.2402H113.219V76.752H114.736V71.9121H115.98ZM110.785 73.4707C110.771 76.6973 109.705 79.582 106.205 81.5645L105.453 80.6621C108.174 79.124 109.322 77.0391 109.527 74.5371H105.973V73.4707H110.785ZM132.223 81.5371V82.6035H121.012V81.5371H125.92V78.625H127.205V81.5371H132.223ZM127.232 73.6211C127.232 75.5625 129.365 77.3809 131.73 77.7773L131.17 78.8438C129.188 78.4473 127.362 77.2236 126.549 75.5352C125.742 77.2168 123.938 78.4609 121.969 78.8438L121.395 77.7773C123.746 77.3809 125.865 75.5625 125.865 73.6211V72.6914H127.232V73.6211ZM137.65 74.4688C137.65 76.0547 138.826 77.5449 140.713 78.1465L140.043 79.1582C138.635 78.6934 137.568 77.7295 137.021 76.5059C136.468 77.8389 135.381 78.8916 133.918 79.4043L133.248 78.3789C135.148 77.7363 136.324 76.1504 136.338 74.4688V73.9355H133.59V72.8828H140.344V73.9355H137.65V74.4688ZM143.27 71.9258V80.8672H141.971V71.9258H143.27ZM143.639 82.8496V83.9023H135.258V80.0195H136.57V82.8496H143.639ZM154.754 71.9121V76.875H156.723V77.9551H154.754V84.1621H153.469V71.9121H154.754ZM152.402 73.8262V74.8926H145.143V73.8262H148.164V72.0762H149.463V73.8262H152.402ZM148.82 75.7949C150.57 75.7949 151.855 76.9707 151.869 78.6387C151.855 80.3203 150.57 81.4824 148.82 81.4961C147.057 81.4824 145.771 80.3203 145.771 78.6387C145.771 76.9707 147.057 75.7949 148.82 75.7949ZM148.82 76.8613C147.781 76.8613 147.002 77.5859 147.016 78.6387C147.002 79.7051 147.781 80.416 148.82 80.4023C149.859 80.416 150.625 79.7051 150.625 78.6387C150.625 77.5859 149.859 76.8613 148.82 76.8613ZM163.559 72.9512V73.9902H166.225V71.9258H167.523V80.8535H166.225V77.6816H163.559V78.748H157.871V72.9512H163.559ZM159.156 74.0039V77.7227H162.287V74.0039H159.156ZM167.797 82.8496V83.9023H159.525V80.0332H160.838V82.8496H167.797ZM163.559 76.6152H166.225V75.0566H163.559V76.6152ZM182.371 71.9121V76.6562H184.34V77.75H182.371V84.1621H181.072V71.9121H182.371ZM174.578 72.9375V76.082H177.818V72.9375H179.104V81.25H173.293V72.9375H174.578ZM174.578 80.1836H177.818V77.1074H174.578V80.1836ZM196.139 81.6055V82.6992H184.928V81.6055H189.863V79.459H186.295V75.5625H193.486V73.8398H186.268V72.7734H194.771V76.6016H187.58V78.3926H195.059V79.459H191.148V81.6055H196.139ZM206.666 72.4863V73.5254H202.277V74.6602H206.434V75.6582H202.277V76.875C204.588 76.8682 205.894 76.8203 207.473 76.5742L207.596 77.5996C205.9 77.873 204.492 77.9277 201.936 77.9277H200.979V72.4863H206.666ZM210.07 71.9121V74.4961H211.848V75.5625H210.07V78.2832H208.771V71.9121H210.07ZM210.07 78.8438V81.8516H203.453V83.0273H210.494V84.0391H202.182V80.8945H208.785V79.8691H202.154V78.8438H210.07ZM218.615 72.6367V76.1367H214.35V77.709C216.476 77.7021 217.979 77.627 219.764 77.3262L219.9 78.3789C218 78.707 216.387 78.7754 214.035 78.7754H213.051V75.125H217.344V73.6895H213.037V72.6367H218.615ZM222.17 71.9258V74.9883H223.961V76.0684H222.17V79.3633H220.871V71.9258H222.17ZM222.17 79.9785V84.1484H220.871V81.0312H214.076V79.9785H222.17ZM234.789 71.9121V84.1895H233.49V71.9121H234.789ZM228.24 72.8281C230.059 72.8281 231.398 74.4961 231.398 77.1211C231.398 79.7598 230.059 81.4277 228.24 81.4277C226.395 81.4277 225.068 79.7598 225.068 77.1211C225.068 74.4961 226.395 72.8281 228.24 72.8281ZM228.24 73.9902C227.105 73.9902 226.326 75.1934 226.326 77.1211C226.326 79.0625 227.105 80.2656 228.24 80.2656C229.361 80.2656 230.141 79.0625 230.141 77.1211C230.141 75.1934 229.361 73.9902 228.24 73.9902ZM240.025 72.8281C241.857 72.8281 243.156 74.4961 243.17 77.1211C243.156 79.7598 241.857 81.4277 240.025 81.4277C238.193 81.4277 236.881 79.7598 236.895 77.1211C236.881 74.4961 238.193 72.8281 240.025 72.8281ZM240.025 73.9902C238.904 73.9902 238.139 75.1934 238.139 77.1211C238.139 79.0625 238.904 80.2656 240.025 80.2656C241.16 80.2656 241.926 79.0625 241.926 77.1211C241.926 75.1934 241.16 73.9902 240.025 73.9902ZM248.188 74.9062V76.0137H246.287V78.5566H248.188V79.623H246.287V84.1621H244.988V71.9121H246.287V74.9062H248.188Z" fill="#1F1F1F"/>
<path d="M26.0293 96.0898C28.7363 96.0898 30.4043 96.8965 30.4043 98.3594C30.4043 99.6855 28.9893 100.485 26.6445 100.602V101.627H31.6211V102.68H20.4512V101.627H25.3867V100.602C23.0693 100.479 21.6543 99.6787 21.6543 98.3594C21.6543 96.8965 23.3359 96.0898 26.0293 96.0898ZM26.0293 97.0742C24.1289 97.0605 22.9805 97.5391 22.9941 98.3594C22.9805 99.1523 24.1289 99.6172 26.0293 99.6172C27.9297 99.6172 29.0645 99.1523 29.0645 98.3594C29.0645 97.5391 27.9297 97.0605 26.0293 97.0742ZM23.1172 103.35V104.58H28.9141V103.35H30.2129V108.012H21.832V103.35H23.1172ZM23.1172 106.959H28.9141V105.592H23.1172V106.959ZM36.8711 98.127C36.8711 99.8906 37.9785 101.572 39.7969 102.283L39.0859 103.295C37.7461 102.755 36.7617 101.682 36.2422 100.342C35.7158 101.777 34.6699 102.912 33.248 103.486L32.5508 102.447C34.4375 101.75 35.5723 100 35.5859 98.127V96.6094H36.8711V98.127ZM42.7637 95.9258V105.045H41.4648V101.189H39.0859V100.137H41.4648V98.7148H39.0859V97.6621H41.4648V95.9258H42.7637ZM43.0371 106.85V107.902H34.7656V104.129H36.0781V106.85H43.0371Z" fill="#8C8C8C"/>
<path d="M61.9492 99.0293C61.9355 101.271 63.2891 103.514 65.1895 104.361L64.4102 105.387C63.002 104.717 61.8877 103.343 61.3203 101.668C60.7461 103.459 59.6182 104.942 58.1484 105.66L57.3555 104.566C59.2832 103.705 60.6367 101.367 60.6367 99.0293V96.9375H61.9492V99.0293ZM67.5957 95.9121V108.189H66.2969V95.9121H67.5957ZM73.8301 98.1133C73.8301 99.6719 74.9102 101.162 76.7832 101.791L76.127 102.803C74.7393 102.324 73.7207 101.367 73.1875 100.164C72.6543 101.49 71.5947 102.529 70.1523 103.035L69.4551 102.023C71.3691 101.367 72.5176 99.7949 72.5312 98.0996V97.7715H69.8379V96.7188H76.4688V97.7715H73.8301V98.1133ZM79.1758 95.9121V99.0566H80.9531V100.15H79.1758V103.295H77.877V95.9121H79.1758ZM79.1758 103.896V108.162H77.877V104.949H71.082V103.896H79.1758ZM95.2812 95.9258V104.895H93.9824V100.287H91.6445V99.2344H93.9824V95.9258H95.2812ZM95.6094 106.85V107.902H87.3242V104.088H88.623V106.85H95.6094ZM89.457 98.4004C89.457 99.9316 90.5645 101.463 92.4102 102.078L91.7402 103.117C90.3662 102.632 89.3477 101.647 88.8145 100.438C88.2812 101.784 87.208 102.871 85.752 103.391L85.082 102.338C86.9688 101.695 88.1309 100.082 88.1309 98.4004V97.9219H85.4785V96.8555H92.082V97.9219H89.457V98.4004ZM107.709 95.9121V108.162H106.465V95.9121H107.709ZM105.221 96.1445V107.561H103.977V101.654H102.596C102.486 104.047 101.461 105.537 99.9434 105.523C98.3438 105.537 97.3047 103.855 97.3047 101.203C97.3047 98.5508 98.3438 96.8828 99.9434 96.8965C101.434 96.8828 102.445 98.2979 102.596 100.602H103.977V96.1445H105.221ZM99.9434 98.1133C99.0547 98.1133 98.5078 99.248 98.5078 101.203C98.5078 103.158 99.0547 104.293 99.9434 104.293C100.846 104.293 101.406 103.158 101.406 101.203C101.406 99.248 100.846 98.1133 99.9434 98.1133ZM122.885 95.9121V102.256H121.6V99.6172H118.92V101.805H113.273V96.4727H114.572V98.0996H117.635V96.4727H118.92V98.5508H121.6V95.9121H122.885ZM122.885 102.803V105.824H116.199V106.973H123.322V108.012H114.9V104.867H121.6V103.842H114.873V102.803H122.885ZM114.572 100.779H117.635V99.125H114.572V100.779ZM129.338 98.6055C129.338 100.096 130.555 101.49 132.428 102.037L131.812 103.049C130.363 102.625 129.283 101.716 128.723 100.547C128.169 101.825 127.089 102.816 125.619 103.281L124.977 102.256C126.891 101.654 128.039 100.191 128.039 98.6055V98.3867H125.318V97.334H128.039V95.8574H129.352V97.334H132.045V98.3867H129.338V98.6055ZM134.943 95.9121V103.432H133.645V95.9121H134.943ZM134.943 104.033V108.162H133.645V105.086H126.645V104.033H134.943ZM142.463 96.1172C145.225 96.1172 146.838 96.8555 146.838 98.2227C146.838 99.5898 145.225 100.342 142.463 100.342C139.701 100.342 138.088 99.5898 138.088 98.2227C138.088 96.8555 139.701 96.1172 142.463 96.1172ZM142.463 97.0742C140.508 97.0742 139.428 97.498 139.441 98.2227C139.428 98.9746 140.508 99.3711 142.463 99.3711C144.418 99.3711 145.498 98.9746 145.498 98.2227C145.498 97.498 144.418 97.0742 142.463 97.0742ZM148.055 101.094V102.133H136.885V101.094H148.055ZM146.646 103.076V105.947H139.51V107.041H146.988V108.039H138.238V105.004H145.361V104.047H138.225V103.076H146.646ZM156.941 98.1133C156.941 99.6855 158.117 101.189 160.004 101.791L159.334 102.803C157.926 102.338 156.859 101.367 156.312 100.137C155.759 101.47 154.672 102.522 153.209 103.035L152.539 102.037C154.439 101.381 155.615 99.7812 155.629 98.1133V97.7715H152.881V96.7188H159.635V97.7715H156.941V98.1133ZM162.561 95.9121V103.309H161.262V95.9121H162.561ZM162.561 103.924V108.162H161.262V104.977H154.262V103.924H162.561ZM174.701 95.9121V102.584H173.416V99.877H171.119V98.8105H173.416V95.9121H174.701ZM168.016 103.131V104.539H173.416V103.131H174.701V108.012H166.73V103.131H168.016ZM168.016 106.959H173.416V105.551H168.016V106.959ZM168.891 97.8262C168.891 99.3438 169.998 100.875 171.844 101.504L171.174 102.516C169.793 102.03 168.781 101.053 168.248 99.8359C167.708 101.196 166.642 102.276 165.186 102.789L164.516 101.764C166.402 101.107 167.564 99.4941 167.564 97.8125V97.6484H164.912V96.5957H171.516V97.6484H168.891V97.8262ZM190.178 95.9121V102.488H188.879V95.9121H190.178ZM183.438 103.076V104.457H188.893V103.076H190.178V108.012H182.166V103.076H183.438ZM183.438 106.945H188.893V105.482H183.438V106.945ZM183.533 96.4727C185.406 96.4727 186.787 97.6348 186.787 99.3164C186.787 100.998 185.406 102.16 183.533 102.146C181.66 102.16 180.266 100.998 180.266 99.3164C180.266 97.6348 181.66 96.4727 183.533 96.4727ZM183.533 97.5664C182.371 97.5527 181.537 98.2773 181.537 99.3164C181.537 100.369 182.371 101.08 183.533 101.08C184.682 101.08 185.516 100.369 185.516 99.3164C185.516 98.2773 184.682 97.5527 183.533 97.5664ZM197.957 96.6504V100.219H193.91V101.914C196.043 101.921 197.205 101.873 198.586 101.613L198.709 102.666C197.219 102.926 195.961 102.967 193.514 102.967H192.625V99.2344H196.658V97.6895H192.611V96.6504H197.957ZM202.332 95.9258V103.459H201.033V101.299H198.736V100.26H201.033V98.7422H198.736V97.7031H201.033V95.9258H202.332ZM202.332 104.074V108.176H201.033V105.127H194.02V104.074H202.332ZM213.844 95.8711V98.7422H215.635V99.8086H213.844V102.611H212.545V95.8711H213.844ZM213.844 103.186V106.029H207.227V107.055H214.268V108.039H205.955V105.113H212.559V104.156H205.928V103.186H213.844ZM211.533 96.9512V97.9766H204.232V96.9512H207.24V95.8027H208.539V96.9512H211.533ZM207.883 98.4414C209.674 98.4414 210.85 99.207 210.85 100.451C210.85 101.695 209.674 102.447 207.883 102.447C206.078 102.447 204.902 101.695 204.902 100.451C204.902 99.207 206.078 98.4414 207.883 98.4414ZM207.883 99.3711C206.83 99.3711 206.146 99.7949 206.16 100.451C206.146 101.107 206.83 101.504 207.883 101.504C208.936 101.504 209.619 101.107 209.633 100.451C209.619 99.7949 208.936 99.3711 207.883 99.3711ZM226.012 96.9922C225.998 98.6191 227.994 100.15 230.4 100.465L229.895 101.531C227.892 101.21 226.128 100.171 225.342 98.7285C224.535 100.178 222.778 101.21 220.789 101.531L220.27 100.465C222.676 100.15 224.645 98.6328 224.658 96.9922V96.3223H226.012V96.9922ZM230.906 102.734V103.801H225.93V108.162H224.658V103.801H219.736V102.734H230.906ZM239.506 104.006C239.506 105.059 240.025 106.173 241.133 106.836C242.261 106.118 242.814 104.942 242.814 104.006V103.418H244.086V104.006C244.086 105.277 244.92 106.508 246.52 107.027L245.877 107.984C244.667 107.567 243.847 106.754 243.416 105.742C243.026 106.733 242.295 107.629 241.174 108.094C239.998 107.649 239.253 106.781 238.877 105.783C238.433 106.747 237.626 107.561 236.471 107.984L235.814 107.027C237.387 106.467 238.234 105.195 238.248 104.006V103.418H239.506V104.006ZM245.412 95.9258V102.898H244.113V95.9258H245.412ZM238.768 96.5957C240.641 96.5957 242.021 97.7852 242.021 99.4941C242.021 101.189 240.641 102.365 238.768 102.365C236.895 102.365 235.5 101.189 235.5 99.4941C235.5 97.7852 236.895 96.5957 238.768 96.5957ZM238.768 97.7031C237.605 97.6895 236.771 98.4141 236.771 99.4941C236.771 100.561 237.605 101.285 238.768 101.285C239.916 101.285 240.75 100.561 240.75 99.4941C240.75 98.4141 239.916 97.6895 238.768 97.7031ZM250.676 96.8281C252.337 96.8281 253.554 98.2363 253.752 100.506H256.281V95.9121H257.566V108.189H256.281V101.559H253.766C253.622 103.944 252.378 105.428 250.676 105.428C248.844 105.428 247.559 103.76 247.572 101.121C247.559 98.4961 248.844 96.8281 250.676 96.8281ZM250.676 97.9902C249.568 97.9902 248.803 99.1934 248.803 101.121C248.803 103.062 249.568 104.266 250.676 104.266C251.783 104.266 252.549 103.062 252.549 101.121C252.549 99.1934 251.783 97.9902 250.676 97.9902ZM261.709 97.1016L261.586 104.143H260.232L260.109 97.1016H261.709ZM260.916 107.096C260.383 107.096 259.932 106.658 259.945 106.125C259.932 105.592 260.383 105.154 260.916 105.154C261.436 105.154 261.887 105.592 261.887 106.125C261.887 106.658 261.436 107.096 260.916 107.096Z" fill="#1F1F1F"/>
<path d="M66.4219 119.496V129.996H65.3555V119.496H66.4219ZM64.3125 119.695V129.48H63.2578V126.094H61.7344C61.3594 127.137 60.6621 127.74 59.7656 127.734C58.3945 127.746 57.5039 126.305 57.5039 124.031C57.5039 121.758 58.3945 120.328 59.7656 120.34C60.6621 120.334 61.3535 120.932 61.7344 121.969H63.2578V119.695H64.3125ZM59.7656 121.383C58.9922 121.383 58.5234 122.355 58.5234 124.031C58.5234 125.707 58.9922 126.68 59.7656 126.68C60.5391 126.68 61.0312 125.707 61.0312 124.031C61.0312 122.355 60.5391 121.383 59.7656 121.383ZM61.9688 122.871C62.0215 123.229 62.0508 123.615 62.0508 124.031C62.0508 124.441 62.0215 124.828 61.9688 125.18H63.2578V122.871H61.9688ZM68.9531 127.91C68.4961 127.91 68.1094 127.535 68.1211 127.078C68.1094 126.621 68.4961 126.246 68.9531 126.246C69.3984 126.246 69.7852 126.621 69.7852 127.078C69.7852 127.535 69.3984 127.91 68.9531 127.91ZM68.9531 123.281C68.4961 123.281 68.1094 122.906 68.1211 122.449C68.1094 121.992 68.4961 121.617 68.9531 121.617C69.3984 121.617 69.7852 121.992 69.7852 122.449C69.7852 122.906 69.3984 123.281 68.9531 123.281ZM76.6641 120.281C78.2344 120.281 79.3477 121.711 79.3594 123.961C79.3477 126.223 78.2344 127.652 76.6641 127.652C75.0938 127.652 73.9688 126.223 73.9805 123.961C73.9688 121.711 75.0938 120.281 76.6641 120.281ZM76.6641 121.277C75.7031 121.277 75.0469 122.309 75.0469 123.961C75.0469 125.625 75.7031 126.656 76.6641 126.656C77.6367 126.656 78.293 125.625 78.293 123.961C78.293 122.309 77.6367 121.277 76.6641 121.277ZM82.0312 119.496V123.609H83.7188V124.547H82.0312V129.996H80.918V119.496H82.0312ZM92.918 119.496V130.02H91.8047V119.496H92.918ZM87.3047 120.281C88.8633 120.281 90.0117 121.711 90.0117 123.961C90.0117 126.223 88.8633 127.652 87.3047 127.652C85.7227 127.652 84.5859 126.223 84.5859 123.961C84.5859 121.711 85.7227 120.281 87.3047 120.281ZM87.3047 121.277C86.332 121.277 85.6641 122.309 85.6641 123.961C85.6641 125.625 86.332 126.656 87.3047 126.656C88.2656 126.656 88.9336 125.625 88.9336 123.961C88.9336 122.309 88.2656 121.277 87.3047 121.277ZM99.9258 120.984C99.9258 122.695 101.754 124.312 103.77 124.676L103.254 125.602C101.578 125.238 100.031 124.137 99.3516 122.66C98.6602 124.125 97.1191 125.227 95.4375 125.602L94.9453 124.676C96.9375 124.301 98.7539 122.695 98.7539 120.984V120.188H99.9258V120.984ZM104.203 127.688V128.613H94.5938V127.688H104.203ZM113.414 120.516V121.793C113.414 123.328 113.414 124.77 112.957 126.949L111.855 126.844C112.078 125.883 112.195 125.039 112.254 124.254L105.949 124.594L105.809 123.68L112.312 123.434C112.33 122.871 112.33 122.332 112.336 121.793V121.43H106.102V120.516H113.414ZM114.539 127.676V128.59H104.965V127.676H114.539ZM124.043 119.508V125.73H122.93V119.508H124.043ZM120.691 120.129V123.082H116.977V124.348C118.811 124.354 120.164 124.289 121.758 124.031L121.898 124.945C120.188 125.215 118.746 125.273 116.766 125.262H115.887V122.215H119.59V121.02H115.863V120.129H120.691ZM124.043 126.258V129.867H117.141V126.258H124.043ZM118.242 127.148V128.965H122.953V127.148H118.242ZM131.883 121.477C131.871 122.355 132.363 123.469 133.418 124.137C134.467 123.48 134.953 122.391 134.953 121.477V120.27H136.078V121.477C136.066 122.695 136.793 123.914 138.176 124.43L137.602 125.273C136.564 124.852 135.861 124.072 135.492 123.117C135.141 124.031 134.473 124.852 133.418 125.262C132.357 124.84 131.678 124.008 131.32 123.094C130.957 124.037 130.271 124.852 129.258 125.273L128.66 124.43C130.031 123.891 130.77 122.613 130.781 121.477V120.27H131.883V121.477ZM138.234 127.758V128.684H128.637V127.758H132.867V125.648H133.969V127.758H138.234ZM147.738 119.496V129.996H146.613V119.496H147.738ZM144.609 120.621C144.609 123.691 143.297 126.363 139.699 128.086L139.113 127.184C141.908 125.854 143.268 123.961 143.484 121.512H139.617V120.621H144.609ZM151.266 128.191L150.328 131.426H149.332L149.953 128.191H151.266ZM160.734 120.562C160.723 123.656 159.715 126.41 155.988 128.309L155.367 127.465C157.207 126.521 158.344 125.391 158.977 124.055L155.578 124.383L155.402 123.422L159.328 123.176C159.486 122.637 159.586 122.062 159.633 121.465H155.941V120.562H160.734ZM164.121 119.496V129.996H163.02V124.57H160.711V123.656H163.02V119.496H164.121ZM174.48 119.496V129.996H173.355V119.496H174.48ZM171.984 120.574V121.488H170.895V126.363C171.439 126.328 171.979 126.281 172.5 126.223L172.559 127.043C170.285 127.406 167.789 127.441 165.855 127.453L165.727 126.527L167.109 126.516V121.488H166.008V120.574H171.984ZM168.188 126.492C168.715 126.48 169.26 126.463 169.805 126.434V121.488H168.188V126.492ZM188.039 119.496V129.996H186.973V124.617H185.625V129.457H184.582V119.707H185.625V123.703H186.973V119.496H188.039ZM180.656 120.738V126.34C181.629 126.334 182.689 126.258 183.879 126.023L183.996 126.996C182.555 127.254 181.348 127.324 180.223 127.324H179.543V120.738H180.656ZM198.152 119.496V129.996H197.027V119.496H198.152ZM195.023 120.621C195.023 123.691 193.711 126.363 190.113 128.086L189.527 127.184C192.322 125.854 193.682 123.961 193.898 121.512H190.031V120.621H195.023Z" fill="#8C8C8C"/>
</svg>
