<svg width="303" height="478" viewBox="0 0 303 478" fill="none" xmlns="http://www.w3.org/2000/svg">
<rect x="1" y="1" width="301" height="475.822" rx="15" fill="#F8FAFA"/>
<rect x="1" y="1" width="301" height="475.822" rx="15" stroke="#1F1F1F" stroke-width="2"/>
<rect x="117" y="20" width="69" height="28" rx="14" fill="#333333"/>
<path d="M139.16 29.7383V30.957H137.777V32.0586H139.16V33.2891H137.777V34.6484H136.277V28.4141H137.777V29.7383H139.16ZM132.316 29C133.969 28.9883 135.223 30.0664 135.223 31.5781C135.223 33.0898 133.969 34.1562 132.316 34.1562C130.652 34.1562 129.387 33.0898 129.387 31.5781C129.387 30.0664 130.652 28.9883 132.316 29ZM132.316 30.2539C131.473 30.2422 130.852 30.7578 130.863 31.5781C130.852 32.4102 131.473 32.9023 132.316 32.9023C133.137 32.9023 133.758 32.4102 133.77 31.5781C133.758 30.7578 133.137 30.2422 132.316 30.2539ZM134.285 34.8594C136.477 34.8594 137.883 35.6562 137.883 36.9805C137.883 38.293 136.477 39.0781 134.285 39.0781C132.047 39.0781 130.629 38.293 130.629 36.9805C130.629 35.6562 132.047 34.8594 134.285 34.8594ZM134.285 36.043C132.879 36.043 132.117 36.3594 132.129 36.9805C132.117 37.6016 132.879 37.8945 134.285 37.8945C135.668 37.8945 136.406 37.6016 136.406 36.9805C136.406 36.3594 135.668 36.043 134.285 36.043ZM148.617 28.4258V34.4375H147.117V28.4258H148.617ZM148.617 34.9297V38.9609H141.469V34.9297H148.617ZM142.945 36.1133V37.7656H147.152V36.1133H142.945ZM143.777 29.8438C143.766 31.1445 144.551 32.375 146.273 32.9141L145.547 34.0508C144.328 33.6934 143.484 32.9551 143.004 32C142.518 33.0371 141.65 33.8574 140.379 34.25L139.652 33.0781C141.434 32.5391 142.219 31.1797 142.219 29.8438V28.8125H143.777V29.8438ZM162.586 36.6055V37.8359H152.824V36.6055H156.938V34.4258H153.855V29.1992H161.496V34.4258H158.426V36.6055H162.586ZM155.332 30.3945V33.2539H160.02V30.3945H155.332ZM171.891 33.3477V34.543H164.344V29.3047H171.809V30.5117H165.82V33.3477H171.891ZM172.957 36.5469V37.7773H163.195V36.5469H172.957Z" fill="white"/>
<path d="M63.7852 67.2402C63.7705 69.6719 65.0449 72.1035 67.1982 73.0264L66.2314 74.3301C64.708 73.627 63.5874 72.2207 62.9795 70.4922C62.3716 72.3599 61.2363 73.8833 59.625 74.6377L58.6289 73.2754C60.8408 72.3232 62.1299 69.7891 62.1299 67.2402V65.1309H63.7852V67.2402ZM69.791 64.0615V77.3184H68.1504V64.0615H69.791ZM82.1836 64.0615V67.8701H84.0293V69.2324H82.1836V73.6123H80.5283V64.0615H82.1836ZM78.5801 65.0723C78.5801 68.5879 76.2949 71.0928 72.3691 72.2354L71.6953 70.9463C74.7202 70.0747 76.522 68.4268 76.8076 66.4053H72.252V65.0723H78.5801ZM82.6816 75.7217V77.04H73.6729V72.6309H75.3281V75.7217H82.6816ZM99.6592 64.0615V77.3037H98.1064V64.0615H99.6592ZM96.9639 64.3105V76.6592H95.4258V69.9941H93.5215V68.6758H95.4258V64.3105H96.9639ZM92.3496 67.6797C92.3496 69.9209 93.1553 72.1621 95.0449 73.2461L94.0781 74.4473C92.855 73.7148 92.042 72.4551 91.5879 70.9463C91.1191 72.5796 90.2769 73.9712 89.0244 74.7549L88.0283 73.5391C89.9473 72.3818 90.7822 69.9795 90.7822 67.6797V66.8008H88.4824V65.4824H94.4883V66.8008H92.3496V67.6797ZM111.671 64.0762V68.2363H113.517V69.584H111.671V73.9639H110.045V64.0762H111.671ZM109.093 65.541V66.8447H101.241V65.541H104.361V64.0615H105.987V65.541H109.093ZM105.167 67.3867C107.071 67.3867 108.39 68.3975 108.404 69.9209C108.39 71.4297 107.071 72.4258 105.167 72.4258C103.248 72.4258 101.915 71.4297 101.915 69.9209C101.915 68.3975 103.248 67.3867 105.167 67.3867ZM105.167 68.6465C104.156 68.6465 103.497 69.1152 103.497 69.9209C103.497 70.7119 104.156 71.1807 105.167 71.166C106.178 71.1807 106.852 70.7119 106.852 69.9209C106.852 69.1152 106.178 68.6465 105.167 68.6465ZM112.198 75.7217V77.04H103.189V73.1875H104.815V75.7217H112.198ZM120.753 71.8105V73.2314H122.496V71.8105H124.005V76.0146C125.558 75.3628 126.275 74.0225 126.275 72.7627V71.708H127.901V72.7627C127.901 74.1396 128.604 75.4727 130.245 76.0293L129.41 77.2451C128.246 76.8276 127.491 76.022 127.081 75.0186C126.634 75.9927 125.88 76.7983 124.781 77.2451L124.005 76.0879V77.1426H119.229V71.8105H120.753ZM120.753 75.8975H122.496V74.4473H120.753V75.8975ZM121.427 64.6035C123.133 64.6035 124.481 65.5557 124.825 66.9912H127.213V64.0615H128.839V71.0781H127.213V68.3389H124.825C124.503 69.811 123.141 70.7852 121.427 70.7852C119.391 70.7852 117.926 69.5107 117.926 67.6797C117.926 65.8633 119.391 64.6035 121.427 64.6035ZM121.427 65.9512C120.284 65.9512 119.479 66.625 119.479 67.6797C119.479 68.749 120.284 69.4521 121.427 69.4521C122.54 69.4521 123.331 68.749 123.346 67.6797C123.331 66.625 122.54 65.9512 121.427 65.9512ZM141.437 67.8115V69.1006H132.267V64.5449H133.878V67.8115H141.437ZM142.799 70.6387V71.9277H130.699V70.6387H142.799ZM141.524 75.6777V76.9961H132.149V73.0996H133.775V75.6777H141.524ZM158.326 64.0615V71.9277H156.7V68.6904H154.444V67.3574H156.7V64.0615H158.326ZM153.844 72.2646C156.656 72.2646 158.37 73.1875 158.37 74.7842C158.37 76.3809 156.656 77.3037 153.844 77.3037C151.046 77.3037 149.332 76.3809 149.347 74.7842C149.332 73.1875 151.046 72.2646 153.844 72.2646ZM153.844 73.5098C151.998 73.5098 150.958 73.9492 150.958 74.7842C150.958 75.6045 151.998 76.0439 153.844 76.0439C155.689 76.0439 156.744 75.6045 156.744 74.7842C156.744 73.9492 155.689 73.5098 153.844 73.5098ZM152.101 66.332C152.101 67.9434 153.17 69.5693 155.221 70.2578L154.4 71.5469C152.928 71.0488 151.881 70.0381 151.31 68.793C150.724 70.2065 149.618 71.3345 148.043 71.8984L147.193 70.6094C149.317 69.877 150.445 68.0898 150.445 66.3467V66.2441H147.691V64.9258H154.84V66.2441H152.101V66.332ZM165.226 66.3613C165.226 68.002 166.354 69.6279 168.463 70.2871L167.628 71.5469C166.126 71.0708 165.035 70.0674 164.435 68.8076C163.834 70.1772 162.713 71.2686 161.139 71.7959L160.304 70.5361C162.428 69.8184 163.57 68.0898 163.585 66.3613V66.2002H160.729V64.8965H168.009V66.2002H165.226V66.3613ZM171.231 64.0615V72.0449H169.591V64.0615H171.231ZM171.231 72.6602V77.3037H169.591V73.9785H162.193V72.6602H171.231ZM183.609 64.0762V68.2363H185.455V69.584H183.609V73.9639H181.983V64.0762H183.609ZM181.031 65.541V66.8447H173.18V65.541H176.3V64.0615H177.926V65.541H181.031ZM177.105 67.3867C179.01 67.3867 180.328 68.3975 180.343 69.9209C180.328 71.4297 179.01 72.4258 177.105 72.4258C175.187 72.4258 173.854 71.4297 173.854 69.9209C173.854 68.3975 175.187 67.3867 177.105 67.3867ZM177.105 68.6465C176.095 68.6465 175.436 69.1152 175.436 69.9209C175.436 70.7119 176.095 71.1807 177.105 71.166C178.116 71.1807 178.79 70.7119 178.79 69.9209C178.79 69.1152 178.116 68.6465 177.105 68.6465ZM184.137 75.7217V77.04H175.128V73.1875H176.754V75.7217H184.137ZM191.754 64.6475V66.332H194.845V64.6475H196.456V70.4189H190.143V64.6475H191.754ZM191.754 69.1299H194.845V67.5625H191.754V69.1299ZM200.133 64.0615V66.7422H201.979V68.0605H200.133V70.8438H198.507V64.0615H200.133ZM200.133 71.3711V74.8428H193.102V75.8975H200.543V77.1865H191.49V73.6562H198.507V72.6455H191.476V71.3711H200.133ZM208.673 64.3252C211.603 64.3252 213.434 65.292 213.448 66.9033C213.434 68.4854 211.603 69.4375 208.673 69.4229C205.772 69.4375 203.897 68.4854 203.897 66.9033C203.897 65.292 205.772 64.3252 208.673 64.3252ZM208.673 65.5996C206.739 65.5996 205.582 66.0537 205.597 66.9033C205.582 67.709 206.739 68.1484 208.673 68.1631C210.606 68.1484 211.764 67.709 211.764 66.9033C211.764 66.0537 210.606 65.5996 208.673 65.5996ZM213.258 72.6895V77.1426H204.073V72.6895H213.258ZM205.685 73.9785V75.8242H211.676V73.9785H205.685ZM214.723 70.3164V71.6348H202.652V70.3164H214.723ZM230.572 64.0615V77.3037H229.02V70.5508H227.525V76.6299H226.031V64.3105H227.525V69.2471H229.02V64.0615H230.572ZM224.537 65.6289V66.9473H221.227V72.8359C222.669 72.8213 223.856 72.748 225.196 72.499L225.313 73.832C223.717 74.1543 222.325 74.1982 220.479 74.2129H219.586V65.6289H224.537ZM243.229 64.0615V70.7705H241.603V69.6133H238.409V68.3682H241.603V67.0645H238.585C237.75 69.0859 235.816 70.4043 232.887 71.0635L232.315 69.7305C235.428 69.0859 236.981 67.7163 237.208 65.9512H233.048V64.6328H239.024C239.024 65.0503 238.988 65.4458 238.937 65.8193H241.603V64.0615H243.229ZM243.229 71.2832V74.7695H236.153V75.8682H243.58V77.1719H234.527V73.5537H241.603V72.5723H234.513V71.2832H243.229Z" fill="#1F1F1F"/>
<path d="M77.8018 88.9121V95.2148H76.5166V88.9121H77.8018ZM77.8154 95.8027V98.8652H71.0615V100H78.2256V101.039H69.8037V97.8809H76.5303V96.8281H69.7627V95.8027H77.8154ZM72.1143 90.1836C72.1006 91.8242 73.29 93.3145 75.1631 93.9023L74.5205 94.9141C73.0918 94.4492 72.0186 93.4785 71.4717 92.2344C70.9111 93.5742 69.8174 94.6406 68.3545 95.1465L67.6982 94.1211C69.6123 93.4785 70.7881 91.8789 70.7881 90.1836V89.2402H72.1143V90.1836ZM90.2979 88.9121V101.162H89.0537V94.8457H87.6045V100.533H86.374V89.1582H87.6045V93.7793H89.0537V88.9121H90.2979ZM85.5674 90.4023V91.4688H84.5967V96.9512C85.0068 96.917 85.4033 96.876 85.7725 96.8281L85.8408 97.7852C83.9131 98.1543 81.3564 98.209 79.7705 98.209L79.6201 97.1152L80.8506 97.1016V91.4688H79.8799V90.4023H85.5674ZM82.04 97.0879C82.4912 97.0742 82.9492 97.0605 83.4072 97.0332V91.4688H82.04V97.0879ZM99.7725 92.0293C99.7588 94.2715 101.112 96.5137 103.013 97.3613L102.233 98.3867C100.825 97.7168 99.7109 96.3428 99.1436 94.668C98.5693 96.459 97.4414 97.9424 95.9717 98.6602L95.1787 97.5664C97.1064 96.7051 98.46 94.3672 98.46 92.0293V89.9375H99.7725V92.0293ZM105.419 88.9121V101.189H104.12V88.9121H105.419ZM114.976 90.1016V100H113.458V91.6055H113.403L111.038 93.1504V91.7148L113.499 90.1016H114.976ZM127.28 88.9121V96.0488H125.981V92.9727H123.685V91.8926H125.981V88.9121H127.28ZM127.28 96.623V101.012H119.2V96.623H127.28ZM120.485 97.6484V99.959H126.009V97.6484H120.485ZM121.456 91.0039C121.456 92.5352 122.563 94.0527 124.409 94.6953L123.739 95.7207C122.365 95.2354 121.347 94.251 120.813 93.041C120.28 94.3877 119.207 95.4678 117.751 95.9805L117.081 94.9551C118.968 94.3125 120.13 92.6855 120.13 91.0039V90.7168H117.478V89.6504H124.081V90.7168H121.456V91.0039ZM136.782 92.8496C136.782 94.7363 137.931 96.7324 139.763 97.6074L139.024 98.5918C137.691 97.9629 136.687 96.6846 136.167 95.1875C135.627 96.8076 134.561 98.1611 133.159 98.8105L132.435 97.8125C134.294 96.9648 135.511 94.873 135.511 92.8496V92.043H132.804V91.0039H135.497V89.1582H136.81V91.0039H139.476V92.043H136.782V92.8496ZM142.128 88.9121V93.8477H144.097V94.9414H142.128V101.162H140.829V88.9121H142.128ZM154.31 88.9121V91.7969H156.087V92.877H154.31V95.8301H153.011V88.9121H154.31ZM150.933 89.6777C150.919 92.8223 148.8 95.0234 145.149 96.0078L144.63 94.9688C147.556 94.1963 149.285 92.6582 149.524 90.7441H145.204V89.6777H150.933ZM154.31 96.3496V100.998H146.462V96.3496H154.31ZM147.761 97.4297V99.959H153.024V97.4297H147.761ZM163.524 100.137C161.542 100.137 160.312 98.9609 160.312 97.375C160.312 96.1855 161.091 95.4541 162.226 94.6816C161.597 93.9297 161.132 93.2324 161.132 92.3438C161.132 90.9766 162.13 89.9922 163.634 89.9922C165.165 89.9922 166.095 90.9902 166.095 92.1523C166.095 93.0957 165.603 93.7793 164.782 94.3809L164.099 94.873L166.081 97.2383C166.334 96.7529 166.491 96.165 166.491 95.502H167.804C167.804 96.8691 167.407 97.7578 166.983 98.3047L168.392 100H166.751L166.081 99.207C165.411 99.8428 164.427 100.137 163.524 100.137ZM161.774 97.334C161.774 98.1816 162.472 98.9062 163.538 98.9062C164.14 98.9062 164.755 98.6738 165.261 98.25L163.046 95.6523L162.8 95.8438C162.021 96.418 161.774 97.0195 161.774 97.334ZM162.499 92.3574C162.499 92.8564 162.854 93.3623 163.306 93.916L163.907 93.4922C164.44 93.1367 164.769 92.7812 164.769 92.1934C164.769 91.7285 164.331 91.209 163.661 91.209C162.978 91.209 162.499 91.7832 162.499 92.3574ZM179.233 90.1973V91.2363H172.343V90.1973H175.214V88.8164H176.499V90.1973H179.233ZM175.843 91.7695C177.483 91.7832 178.659 92.7129 178.673 94.1211C178.659 95.5293 177.483 96.4863 175.843 96.4727C174.188 96.4863 173.026 95.5293 173.026 94.1211C173.026 92.7129 174.188 91.7832 175.843 91.7695ZM175.843 92.7812C174.886 92.7812 174.243 93.3008 174.243 94.1211C174.243 94.9414 174.886 95.4746 175.843 95.4609C176.786 95.4746 177.442 94.9414 177.456 94.1211C177.442 93.3008 176.786 92.7812 175.843 92.7812ZM182.542 88.9121V97.6895H181.243V95.3926H179.274V94.3398H181.243V92.959H179.302V91.9199H181.243V88.9121H182.542ZM179.192 97.0742C179.192 98.5645 180.956 99.7812 183.321 100.109L182.829 101.107C180.881 100.807 179.261 99.9521 178.522 98.6738C177.771 99.9385 176.15 100.834 174.229 101.107L173.751 100.109C176.062 99.7812 177.853 98.5371 177.866 97.0742V96.9238H179.192V97.0742ZM193.972 88.9121V93.6562H195.94V94.75H193.972V101.162H192.673V88.9121H193.972ZM186.179 89.9375V93.082H189.419V89.9375H190.704V98.25H184.894V89.9375H186.179ZM186.179 97.1836H189.419V94.1074H186.179V97.1836ZM206.153 88.9121V91.9336H207.931V93.0273H206.153V96.1035H204.854V88.9121H206.153ZM206.153 96.7598V101.176H204.854V97.7988H198.06V96.7598H206.153ZM202.544 89.7734V90.8262H198.36V94.2031C200.746 94.1963 202.093 94.1211 203.624 93.8066L203.774 94.8457C202.12 95.1875 200.671 95.2559 198.046 95.2559H197.075V89.7734H202.544ZM216.243 92.8496C216.243 94.7363 217.392 96.7324 219.224 97.6074L218.485 98.5918C217.152 97.9629 216.147 96.6846 215.628 95.1875C215.088 96.8076 214.021 98.1611 212.62 98.8105L211.896 97.8125C213.755 96.9648 214.972 94.873 214.972 92.8496V92.043H212.265V91.0039H214.958V89.1582H216.271V91.0039H218.937V92.043H216.243V92.8496ZM221.589 88.9121V93.8477H223.558V94.9414H221.589V101.162H220.29V88.9121H221.589ZM233.771 88.9121V91.7969H235.548V92.877H233.771V95.8301H232.472V88.9121H233.771ZM230.394 89.6777C230.38 92.8223 228.261 95.0234 224.61 96.0078L224.091 94.9688C227.017 94.1963 228.746 92.6582 228.985 90.7441H224.665V89.6777H230.394ZM233.771 96.3496V100.998H225.923V96.3496H233.771ZM227.222 97.4297V99.959H232.485V97.4297H227.222Z" fill="#8C8C8C"/>
<g filter="url(#filter0_d_1840_8329)">
<rect x="37.3398" y="124.579" width="227.675" height="47.7864" rx="23.8932" fill="white" shape-rendering="crispEdges"/>
<g clip-path="url(#clip0_1840_8329)">
<rect x="45.3047" y="132.544" width="31.8576" height="31.8576" rx="15.9288" fill="#F5F5F5"/>
<path d="M53.4235 173.744C47.5824 172.391 47.0188 166.686 47.544 163.445C53.2495 169.913 58.3438 164.619 64.5623 163.957C69.5371 163.428 75.2395 159.787 76.2143 163.121C76.9611 165.738 76.077 172.017 66.5661 176.204C65.7975 172.914 64.4269 171.887 63.8376 171.784C60.5712 170.631 59.2646 175.097 53.4235 173.744Z" fill="url(#paint0_linear_1840_8329)"/>
<path d="M53.4235 173.744C47.5824 172.391 47.0188 166.686 47.544 163.445C53.2495 169.913 58.3438 164.619 64.5623 163.957C69.5371 163.428 75.2395 159.787 76.2143 163.121C76.9611 165.738 76.077 172.017 66.5661 176.204C65.7975 172.914 64.4269 171.887 63.8376 171.784C60.5712 170.631 59.2646 175.097 53.4235 173.744Z" fill="url(#paint1_linear_1840_8329)"/>
<path d="M50.9538 143.157C52.5516 136.154 58.0104 134.908 61.2069 134.908C66.1332 134.908 70.2179 137.652 71.226 142.231C71.7437 145.887 71.4312 145.575 71.8907 148.112C72.3503 150.648 77.0653 152.622 77.6427 158.63C77.6427 158.63 78.909 166.527 66.0719 166.604C53.2348 166.682 49.2402 167.496 46.7116 162.492C44.183 157.488 46.7116 153.865 49.5121 149.644C50.3296 147.81 50.3952 145.939 50.9538 143.157Z" fill="url(#paint2_radial_1840_8329)"/>
<path d="M50.9538 143.157C52.5516 136.154 58.0104 134.908 61.2069 134.908C66.1332 134.908 70.2179 137.652 71.226 142.231C71.7437 145.887 71.4312 145.575 71.8907 148.112C72.3503 150.648 77.0653 152.622 77.6427 158.63C77.6427 158.63 78.909 166.527 66.0719 166.604C53.2348 166.682 49.2402 167.496 46.7116 162.492C44.183 157.488 46.7116 153.865 49.5121 149.644C50.3296 147.81 50.3952 145.939 50.9538 143.157Z" fill="#FAA9C8"/>
<path d="M61.0098 139.803C61.8467 140.156 62.4102 139.853 62.927 139.236" stroke="#2E363C" stroke-width="0.77985" stroke-linecap="round"/>
<path d="M59.1582 148.191C60.6776 150.7 64.2594 151.665 65.8048 150.485" stroke="#2E363C" stroke-width="0.77985" stroke-linecap="round"/>
<path d="M65.7596 140.058C66.0132 140.534 66.2812 140.978 66.8897 141.145" stroke="#2E363C" stroke-width="0.77985" stroke-linecap="round"/>
<ellipse cx="1.9483" cy="2.81351" rx="1.9483" ry="2.81351" transform="matrix(-0.999821 0.0189118 0.0189118 0.999821 63.4639 142.223)" fill="white"/>
<ellipse cx="1.9483" cy="2.81351" rx="1.9483" ry="2.81351" transform="matrix(-0.999821 0.0189118 0.0189118 0.999821 67.9492 142.223)" fill="white"/>
<ellipse cx="1.26488" cy="1.96581" rx="1.26488" ry="1.96581" transform="matrix(-0.993425 0.114486 0.114486 0.993425 62.042 143.578)" fill="#2E363C"/>
<ellipse cx="1.26488" cy="1.96581" rx="1.26488" ry="1.96581" transform="matrix(-0.993425 0.114486 0.114486 0.993425 66.5322 143.578)" fill="#2E363C"/>
<path d="M59.4364 147.631C59.0449 147.698 58.6279 148.026 58.4258 148.69" stroke="#2E363C" stroke-width="0.77985" stroke-linecap="round"/>
<path d="M53.1553 157.712C53.6872 156.821 55.9838 155.243 60.4348 156.441C65.6318 157.84 67.9685 160.375 72.0138 157.258" stroke="#DD89AC" stroke-width="0.682369" stroke-linecap="round"/>
<path d="M70.69 157.973C69.213 156.773 65.8223 155.026 63.4258 157.389" stroke="#DD89AC" stroke-width="0.682369" stroke-linecap="round"/>
<path d="M52.8602 154.99C52.9456 154.822 53.151 154.755 53.319 154.84C53.487 154.925 53.5539 155.131 53.4685 155.299L53.1643 155.144L52.8602 154.99ZM62.665 164.2L62.5584 164.524L62.5037 164.506L62.4579 164.471L62.665 164.2ZM53.1643 155.144L53.4685 155.299C52.979 156.261 53.1328 157.145 53.7055 157.997C54.292 158.869 55.3089 159.688 56.497 160.441C57.6794 161.192 58.9971 161.857 60.1588 162.438C61.3005 163.008 62.3289 163.514 62.8721 163.928L62.665 164.2L62.4579 164.471C61.9805 164.106 61.0327 163.637 59.8538 163.048C58.6948 162.469 57.3474 161.789 56.1314 161.018C54.9212 160.25 53.8064 159.37 53.1392 158.378C52.4583 157.365 52.2363 156.217 52.8602 154.99L53.1643 155.144ZM62.665 164.2L62.7716 163.875C63.6928 164.178 65.1768 164.646 66.6323 165.064C68.0964 165.484 69.5043 165.845 70.2872 165.945L70.2439 166.283L70.2006 166.622C69.3578 166.514 67.9008 166.137 66.4441 165.719C64.9787 165.299 63.4862 164.829 62.5584 164.524L62.665 164.2Z" fill="#DD89AC"/>
<path d="M70.1338 166.212C71.6279 166.694 74.3955 165.195 75.8907 163.439" stroke="#DD89AC" stroke-width="0.682369" stroke-linecap="round"/>
<path d="M63.8376 171.78C60.5712 170.627 59.2646 175.092 53.4235 173.74C51.124 173.411 46.7162 170.96 47.4805 163.787C48.9203 165.013 52.6139 167.254 55.8691 166.409C58.6926 165.84 61.383 164.291 64.5623 163.953C69.537 163.423 72.7304 169.96 73.7052 173.295C74.668 173.295 77.4213 173.402 78.3168 175.778C79.6344 179.275 75.3627 181.155 73.2142 181.31C70.2552 181.31 67.5267 180.311 66.566 176.199C65.7975 172.91 64.4268 171.882 63.8376 171.78Z" fill="url(#paint3_radial_1840_8329)"/>
<path d="M63.8376 171.78C60.5712 170.627 59.2646 175.092 53.4235 173.74C51.124 173.411 46.7162 170.96 47.4805 163.787C48.9203 165.013 52.6139 167.254 55.8691 166.409C58.6926 165.84 61.383 164.291 64.5623 163.953C69.537 163.423 72.7304 169.96 73.7052 173.295C74.668 173.295 77.4213 173.402 78.3168 175.778C79.6344 179.275 75.3627 181.155 73.2142 181.31C70.2552 181.31 67.5267 180.311 66.566 176.199C65.7975 172.91 64.4268 171.882 63.8376 171.78Z" fill="#FAA9C8"/>
<path d="M73.1669 171.17C67.8444 159.347 61.1812 165.441 55.7775 166.294C53.9621 166.719 50.408 166.699 47.8496 163.987" stroke="#DD89AC" stroke-width="0.682369" stroke-linecap="round"/>
</g>
<rect x="82.4717" y="133.172" width="35.9644" height="11.9466" rx="5.97331" fill="#F5F5F5"/>
<path d="M89.5137 136.484V141.646H88.4372V137.503H88.4086L87.2251 138.245V137.296L88.5013 136.484H89.5137ZM92.4226 141.646V136.484H94.4474C95.6238 136.484 96.294 137.147 96.294 138.166C96.294 138.872 95.9696 139.385 95.3814 139.635L96.4794 141.646H95.2958L94.312 139.813H93.4921V141.646H92.4226ZM93.4921 138.943H94.2478C94.8823 138.943 95.1889 138.68 95.1889 138.166C95.1889 137.646 94.8823 137.361 94.2478 137.361H93.4921V138.943ZM98.6895 141.724C97.5203 141.724 96.7931 140.918 96.7931 139.721C96.7931 138.523 97.5203 137.724 98.6895 137.724C99.8588 137.724 100.593 138.523 100.593 139.721C100.593 140.918 99.8588 141.724 98.6895 141.724ZM98.6967 140.904C99.2385 140.904 99.5166 140.398 99.5166 139.721C99.5166 139.036 99.2385 138.53 98.6967 138.53C98.1477 138.53 97.8625 139.036 97.8625 139.721C97.8625 140.398 98.1477 140.904 98.6967 140.904ZM103.737 139.999V137.774H104.792V141.646H103.78V140.947H103.737C103.559 141.396 103.146 141.695 102.561 141.695C101.784 141.695 101.256 141.146 101.256 140.241V137.774H102.311V140.056C102.311 140.512 102.575 140.804 102.989 140.804C103.374 140.804 103.737 140.526 103.737 139.999ZM106.668 139.407V141.646H105.612V137.774H106.618V138.451H106.66C106.839 138.002 107.252 137.724 107.823 137.724C108.628 137.724 109.163 138.273 109.156 139.179V141.646H108.108V139.364C108.108 138.886 107.844 138.601 107.409 138.601C106.967 138.601 106.668 138.893 106.668 139.407ZM111.402 141.71C110.518 141.71 109.826 141.004 109.826 139.713C109.826 138.387 110.546 137.724 111.402 137.724C112.05 137.724 112.357 138.109 112.5 138.423H112.535V136.484H113.59V141.646H112.549V141.025H112.5C112.35 141.346 112.029 141.71 111.402 141.71ZM111.73 140.868C112.257 140.868 112.557 140.405 112.557 139.706C112.557 139.008 112.257 138.566 111.73 138.566C111.195 138.566 110.91 139.029 110.91 139.706C110.91 140.391 111.195 140.868 111.73 140.868Z" fill="#8C8C8C"/>
<path d="M89.0184 161.896C87.0233 161.896 85.6614 160.726 85.6614 159.208C85.6614 157.631 87.0831 156.485 89.0184 156.485C90.9538 156.485 92.3874 157.631 92.3874 159.208C92.3874 160.702 91.0374 161.896 89.0184 161.896ZM83.3677 153.677V151.598C83.3677 150.822 83.7978 150.428 84.6579 150.428H88.1463C88.6839 150.428 89.0423 150.738 89.0423 151.252C89.0423 151.766 88.6839 152.076 88.1463 152.076H85.6017C85.4105 152.076 85.3389 152.148 85.3389 152.303V152.518H87.8954C88.3853 152.518 88.7078 152.817 88.7078 153.295C88.7078 153.773 88.3853 154.071 87.8954 154.071H85.3389C85.3389 154.466 85.6734 154.621 86.4499 154.621C87.1309 154.621 87.8596 154.549 88.6122 154.394C88.6481 154.382 88.6959 154.382 88.7675 154.382C89.1857 154.382 89.4963 154.74 89.4963 155.266C89.4963 155.648 89.3171 155.911 88.9826 155.995C88.1822 156.174 87.2862 156.27 86.3185 156.27C84.3115 156.27 83.3677 155.529 83.3677 153.677ZM87.6326 159.196C87.6326 159.758 88.2299 160.152 89.0423 160.152C89.8427 160.152 90.4162 159.758 90.4162 159.196C90.4162 158.623 89.8427 158.205 89.0423 158.205C88.2299 158.205 87.6326 158.623 87.6326 159.196ZM88.9706 153.116C88.9706 152.554 89.2812 152.244 89.9144 152.244H90.5954V150.929C90.5954 150.356 90.9657 150.033 91.5511 150.033H91.6108C92.1962 150.033 92.5666 150.356 92.5666 150.929V155.672C92.5666 156.246 92.1962 156.568 91.6108 156.568H91.5511C90.9657 156.568 90.5954 156.246 90.5954 155.672V153.988H89.9144C89.2812 153.988 88.9706 153.677 88.9706 153.116ZM99.1662 161.753C96.8247 161.753 95.7376 161.335 95.7376 160.128V159.698C95.7376 159.113 96.1676 158.754 97.0278 158.754H100.731C100.839 158.754 100.875 158.719 100.875 158.575C100.875 158.492 100.827 158.456 100.731 158.456H96.4902C95.9765 158.456 95.6778 158.169 95.6778 157.703C95.6778 157.285 95.9765 157.046 96.4902 157.046H101.556C102.404 157.046 102.846 157.404 102.846 158.026V159.029C102.846 159.639 102.38 159.997 101.532 159.997H97.8641C97.7565 159.997 97.7087 160.033 97.7087 160.116C97.7087 160.2 97.8282 160.26 98.0791 160.296C98.318 160.331 98.772 160.343 99.4529 160.343C100.468 160.343 101.329 160.284 102.033 160.176C102.069 160.164 102.129 160.164 102.213 160.164C102.679 160.164 103.001 160.439 103.001 160.905C103.001 161.239 102.786 161.502 102.392 161.562C101.591 161.693 100.516 161.753 99.1662 161.753ZM94.0053 155.971C94.0053 155.529 94.3517 155.23 94.8893 155.23H103.742C104.279 155.23 104.638 155.505 104.638 155.971C104.638 156.437 104.279 156.712 103.742 156.712H94.8893C94.3517 156.712 94.0053 156.413 94.0053 155.971ZM95.7376 153.044V151.395C95.7376 150.631 96.1437 150.26 97.0039 150.26H102.081C102.595 150.26 102.846 150.571 102.846 150.965C102.846 151.36 102.595 151.67 102.081 151.67H97.9835C97.7804 151.67 97.7087 151.742 97.7087 151.945H101.962C102.404 151.945 102.667 152.184 102.667 152.566C102.667 152.948 102.404 153.187 101.962 153.187H97.7087C97.7446 153.319 97.876 153.414 98.103 153.45C98.33 153.498 98.7362 153.522 99.3335 153.522C100.564 153.522 101.508 153.462 102.153 153.355L102.344 153.331C102.81 153.331 103.133 153.641 103.133 154.071C103.133 154.394 102.906 154.657 102.535 154.717C101.663 154.86 100.683 154.908 99.2857 154.908C96.9561 154.908 95.7376 154.466 95.7376 153.044ZM111.512 161.669C111.333 161.789 111.142 161.849 110.927 161.849C110.652 161.849 110.425 161.741 110.27 161.538C110.103 161.335 110.043 161.12 110.079 160.881C109.756 160.63 109.422 160.403 109.051 160.176C108.681 160.69 108.155 161.156 107.498 161.574C107.307 161.693 107.104 161.753 106.901 161.753C106.626 161.753 106.399 161.657 106.232 161.466C106.088 161.299 106.017 161.12 106.017 160.941C106.017 160.666 106.172 160.427 106.471 160.224C107.391 159.603 107.904 158.85 107.904 158.193V157.978C107.904 157.452 108.263 157.118 108.824 157.118H108.872C109.434 157.118 109.792 157.452 109.792 157.978V158.265C109.792 158.396 109.78 158.539 109.756 158.683C110.234 158.981 110.724 159.34 111.225 159.746C111.847 159.208 112.133 158.707 112.133 158.145V157.978C112.133 157.452 112.492 157.118 113.053 157.118H113.101C113.663 157.118 114.021 157.452 114.021 157.978V158.145C114.021 158.408 113.973 158.683 113.878 158.958C114.559 159.423 115.12 159.901 115.562 160.367C115.717 160.523 115.789 160.702 115.789 160.905C115.789 161.108 115.694 161.311 115.502 161.502C115.347 161.657 115.144 161.741 114.917 161.741C114.678 161.741 114.463 161.657 114.272 161.478C113.83 161.06 113.4 160.714 113.006 160.415C112.599 160.881 112.098 161.299 111.512 161.669ZM105.778 151.264C105.778 150.75 106.124 150.428 106.793 150.428H109.971C110.831 150.428 111.261 150.798 111.261 151.479V153.259C111.261 153.868 110.891 154.274 110.186 154.274H108.024C107.833 154.274 107.761 154.334 107.761 154.478C107.761 154.633 107.845 154.752 108.012 154.836C108.179 154.92 108.454 154.955 108.848 154.955C109.601 154.955 110.282 154.884 110.915 154.728C110.999 154.705 111.082 154.693 111.166 154.693C111.632 154.693 111.966 155.063 111.966 155.601C111.966 155.971 111.751 156.246 111.369 156.353C110.712 156.532 109.852 156.628 108.764 156.628C106.65 156.628 105.838 155.792 105.838 154.274V153.856C105.838 153.128 106.303 152.674 107.176 152.674H109.087C109.242 152.674 109.326 152.614 109.326 152.494V152.279C109.326 152.16 109.254 152.1 109.123 152.1H106.793C106.124 152.1 105.778 151.778 105.778 151.264ZM111.56 154.095C111.56 153.582 111.871 153.259 112.432 153.259H113.065V152.841H112.432C111.871 152.841 111.56 152.518 111.56 152.005C111.56 151.491 111.871 151.168 112.432 151.168H113.065V150.929C113.065 150.356 113.436 150.033 114.021 150.033H114.081C114.666 150.033 115.036 150.356 115.036 150.929V155.792C115.036 156.365 114.666 156.688 114.081 156.688H114.021C113.436 156.688 113.065 156.365 113.065 155.792V154.932H112.432C111.871 154.932 111.56 154.609 111.56 154.095ZM117.335 158.862C117.108 158.683 116.989 158.468 116.989 158.205C116.989 157.966 117.084 157.751 117.264 157.548C118.566 156.15 119.271 154.979 119.271 153.39V152.554H118.088C117.419 152.554 117.073 152.232 117.073 151.658C117.073 151.085 117.419 150.762 118.088 150.762H122.365C123.034 150.762 123.38 151.085 123.38 151.658C123.38 152.232 123.034 152.554 122.365 152.554H121.242V153.39C121.242 153.761 121.194 154.167 121.087 154.621C122.102 155.624 122.998 156.676 123.512 157.488C123.607 157.643 123.655 157.799 123.655 157.966C123.655 158.241 123.512 158.504 123.237 158.683C123.058 158.802 122.879 158.862 122.687 158.862C122.413 158.862 122.162 158.731 121.959 158.456C121.481 157.787 120.943 157.142 120.346 156.508C119.88 157.357 119.33 158.085 118.697 158.683C118.434 158.934 118.16 159.053 117.885 159.053C117.694 159.053 117.515 158.993 117.335 158.862ZM124.3 160.738V150.929C124.3 150.356 124.671 150.033 125.256 150.033H125.316C125.901 150.033 126.271 150.356 126.271 150.929V160.738C126.271 161.311 125.901 161.634 125.316 161.634H125.256C124.671 161.634 124.3 161.311 124.3 160.738Z" fill="#4A4A4A"/>
<rect x="156.168" y="129.499" width="103.537" height="37.9466" rx="18.9733" fill="#F8FAFA"/>
<path d="M177.854 136.47V140.553H176.991V138.85H175.778V138.142H176.991V136.47H177.854ZM177.854 140.856V143.415H173.18V140.856H177.854ZM174.043 141.541V142.715H177.007V141.541H174.043ZM174.549 137.629C174.549 138.476 175.117 139.34 176.206 139.713L175.77 140.397C174.984 140.129 174.428 139.596 174.121 138.935C173.81 139.666 173.223 140.254 172.395 140.53L171.951 139.853C173.071 139.48 173.67 138.554 173.67 137.621V137.566H172.208V136.866H176.003V137.566H174.549V137.629ZM182.513 137.053C182.513 137.94 183.501 138.834 185.002 139.029L184.66 139.729C183.466 139.55 182.517 138.963 182.062 138.165C181.599 138.963 180.654 139.55 179.472 139.729L179.13 139.029C180.616 138.834 181.603 137.94 181.603 137.053V136.695H182.513V137.053ZM185.259 140.335V141.051H182.467V143.501H181.611V141.051H178.85V140.335H185.259Z" fill="#8C8C8C"/>
<path d="M178.497 159.016C177.457 159.016 176.263 158.67 175.462 158.037C175.223 157.834 175.104 157.607 175.104 157.368C175.104 157.165 175.187 156.961 175.367 156.758C175.546 156.543 175.785 156.436 176.059 156.436C176.263 156.436 176.466 156.507 176.645 156.639C177.23 157.081 177.792 157.284 178.449 157.284C179.393 157.284 179.954 156.794 179.954 155.994C179.954 155.181 179.285 154.68 178.222 154.68H177.099C176.561 154.68 176.203 154.345 176.203 153.819C176.203 153.294 176.561 152.947 177.099 152.947H177.947C178.962 152.947 179.596 152.398 179.596 151.585C179.596 150.881 179.166 150.463 178.413 150.463C177.971 150.463 177.636 150.642 177.206 151.036C176.979 151.239 176.728 151.347 176.454 151.347C176.239 151.347 176.036 151.275 175.856 151.143C175.629 150.952 175.522 150.737 175.522 150.498C175.522 150.271 175.606 150.068 175.773 149.877C176.382 149.16 177.326 148.73 178.377 148.73C180.312 148.73 181.543 149.949 181.543 151.657C181.543 152.47 181.101 153.198 180.277 153.664C181.388 154.154 181.949 155.038 181.949 156.03C181.949 156.591 181.806 157.105 181.531 157.559C180.97 158.467 179.894 159.016 178.497 159.016Z" fill="#F571A2"/>
<line x1="197.649" y1="137.854" x2="197.649" y2="159.092" stroke="black" stroke-opacity="0.05" stroke-width="0.663701"/>
<path d="M217.299 136.516V138.04H218.287V138.756H217.299V140.474H216.436V136.516H217.299ZM217.299 140.817V143.446H212.749V140.817H217.299ZM213.597 141.493V142.761H216.452V141.493H213.597ZM212.928 136.858V139.331C213.83 139.323 214.779 139.242 215.806 139.043L215.907 139.751C214.74 139.984 213.659 140.047 212.641 140.047H212.057V136.858H212.928ZM225.046 140.14V140.832H218.637V140.14H225.046ZM224.323 142.699V143.399H219.43V141.353H220.294V142.699H224.323ZM221.834 136.733C223.366 136.733 224.362 137.27 224.369 138.157C224.362 139.051 223.366 139.596 221.834 139.596C220.302 139.596 219.298 139.051 219.298 138.157C219.298 137.27 220.302 136.733 221.834 136.733ZM221.834 137.426C220.815 137.426 220.193 137.69 220.2 138.157C220.193 138.631 220.815 138.896 221.834 138.888C222.86 138.896 223.475 138.631 223.475 138.157C223.475 137.69 222.86 137.426 221.834 137.426ZM233.283 136.508V143.539H232.412V136.508H233.283ZM231.183 137.254C231.183 139.347 230.374 141.128 227.908 142.294L227.457 141.602C229.297 140.727 230.152 139.537 230.304 137.939H227.815V137.254H231.183ZM240.15 136.508V143.539H239.287V136.508H240.15ZM234.325 141.587C234.885 141.583 235.519 141.583 236.184 141.563V140.918C235.39 140.793 234.877 140.307 234.877 139.642C234.877 138.849 235.577 138.32 236.604 138.32C237.638 138.32 238.354 138.849 238.354 139.642C238.354 140.303 237.836 140.786 237.047 140.91V141.532C237.665 141.505 238.288 141.454 238.875 141.377L238.937 142.022C237.389 142.287 235.717 142.302 234.449 142.302L234.325 141.587ZM238.75 137.317V138.001H234.473V137.317H236.184V136.531H237.047V137.317H238.75ZM236.604 138.981C236.075 138.989 235.694 139.23 235.702 139.642C235.694 140.047 236.075 140.288 236.604 140.28C237.156 140.288 237.521 140.047 237.521 139.642C237.521 139.23 237.156 138.989 236.604 138.981Z" fill="#8C8C8C"/>
<path d="M213.711 156.713C213.309 153.809 214.92 151.335 216.367 151.197C218.495 150.994 222.639 150.688 222.196 151.087C221.643 151.585 221.44 152.378 220.997 155.532C220.643 158.055 219.875 158.863 218.673 159.295C217.47 159.727 214.117 159.645 213.711 156.713Z" fill="#F571A2"/>
<path d="M216.121 155.115C216.085 153.343 217.184 151.923 217.737 151.434C217.986 151.248 218.499 150.895 218.766 150.809L219.289 150.93L219.39 150.98C217.106 152.806 216.929 154.502 216.809 155.115C216.69 155.729 216.719 155.878 216.33 155.819C216.173 155.795 216.13 155.559 216.121 155.115Z" fill="black" fill-opacity="0.15"/>
<path fill-rule="evenodd" clip-rule="evenodd" d="M213.491 148.902C213.723 148.716 214.062 148.752 214.249 148.984C215.05 149.978 216.632 150.625 218.429 150.776C220 150.909 221.619 150.651 222.84 150.019C222.765 149.886 222.695 149.749 222.63 149.611C222.503 149.342 222.618 149.021 222.887 148.893C223.156 148.766 223.478 148.881 223.605 149.15C223.772 149.502 223.883 149.695 224.026 149.835C224.158 149.963 224.357 150.084 224.761 150.19C225.048 150.266 225.221 150.561 225.145 150.849C225.07 151.136 224.774 151.309 224.486 151.233C224.123 151.138 223.825 151.013 223.573 150.846C222.093 151.693 220.146 152.003 218.338 151.85C216.399 151.687 214.472 150.98 213.409 149.66C213.222 149.428 213.259 149.089 213.491 148.902Z" fill="#2E363C"/>
<path d="M228.303 156.713C227.901 153.809 229.512 151.335 230.959 151.197C233.086 150.994 237.23 150.688 236.788 151.087C236.234 151.585 236.031 152.378 235.589 155.532C235.235 158.055 234.467 158.863 233.265 159.295C232.062 159.727 228.709 159.645 228.303 156.713Z" fill="#E0E0E0"/>
<path d="M230.714 155.115C230.678 153.343 231.776 151.923 232.33 151.434C232.578 151.248 233.092 150.895 233.359 150.809L233.882 150.93L233.983 150.98C231.699 152.806 231.522 154.502 231.402 155.115C231.283 155.729 231.312 155.878 230.923 155.819C230.766 155.795 230.723 155.559 230.714 155.115Z" fill="black" fill-opacity="0.08"/>
<path fill-rule="evenodd" clip-rule="evenodd" d="M228.084 148.903C228.316 148.717 228.655 148.753 228.842 148.985C229.642 149.979 231.225 150.626 233.021 150.777C234.594 150.91 236.215 150.651 237.435 150.018C237.36 149.885 237.29 149.748 237.224 149.609C237.097 149.34 237.213 149.019 237.481 148.891C237.75 148.764 238.073 148.879 238.2 149.148C238.367 149.5 238.478 149.693 238.621 149.833C238.753 149.961 238.952 150.082 239.355 150.188C239.643 150.264 239.815 150.559 239.74 150.846C239.664 151.134 239.369 151.307 239.081 151.231C238.719 151.136 238.421 151.013 238.17 150.846C236.689 151.695 234.74 152.004 232.93 151.851C230.992 151.688 229.065 150.981 228.002 149.661C227.815 149.429 227.852 149.09 228.084 148.903Z" fill="#BDBDBD"/>
</g>
<g filter="url(#filter1_d_1840_8329)">
<rect x="37.3379" y="403.105" width="109.835" height="47.7833" rx="14.335" fill="url(#paint4_linear_1840_8329)" shape-rendering="crispEdges"/>
<rect x="38.3334" y="404.101" width="107.844" height="45.7923" rx="13.3395" stroke="#28323B" stroke-width="1.99097" shape-rendering="crispEdges"/>
<path d="M67.1539 434.014C66.1876 434.014 65.6872 433.548 65.6872 432.72C65.6872 431.892 66.1876 431.426 67.1539 431.426H71.9853V427.699C71.9853 427.026 72.5375 426.577 73.3657 426.577H73.452C74.2803 426.577 74.8324 427.026 74.8324 427.699V431.426H79.5776C80.5439 431.426 81.0443 431.892 81.0443 432.72C81.0443 433.548 80.5439 434.014 79.5776 434.014H67.1539ZM66.9986 421.331C66.9986 420.503 67.43 420.037 68.2065 420.037H71.1744C72.3477 420.037 72.8999 420.624 72.8999 421.953C72.8999 424.213 72.4685 426.422 71.692 428.164C71.4677 428.665 71.0536 428.958 70.5187 428.958C70.3634 428.958 70.1908 428.924 69.9838 428.872C69.3453 428.665 69.0002 428.268 69.0002 427.785C69.0002 427.664 69.0347 427.526 69.0865 427.371C69.7249 425.593 70.0355 424.11 70.0355 422.919C70.0355 422.729 69.9492 422.626 69.7767 422.626H68.2065C67.43 422.626 66.9986 422.16 66.9986 421.331ZM73.2967 421.331C73.2967 420.503 73.7281 420.037 74.5046 420.037H77.645C78.8184 420.037 79.3705 420.624 79.3705 421.953C79.3705 424.524 79.1635 426.594 78.7321 428.182C78.594 428.734 78.1627 429.079 77.5932 429.079C77.4379 429.079 77.2826 429.062 77.1446 429.01C76.4371 428.82 76.0748 428.372 76.0748 427.768C76.0748 427.647 76.0748 427.561 76.092 427.509C76.3509 426.008 76.5062 424.23 76.5062 422.919C76.5062 422.729 76.4199 422.626 76.2473 422.626H74.5046C73.7281 422.626 73.2967 422.142 73.2967 421.331ZM94.5969 428.423C93.7514 428.423 93.2165 427.957 93.2165 427.129V426.663H91.9741C91.2839 426.663 90.9043 426.301 90.8526 425.559C90.0933 426.853 88.6266 427.647 86.8839 427.647C84.2611 427.647 82.3458 425.904 82.3458 423.506C82.3458 422.729 82.5356 422.022 82.9325 421.383C83.709 420.141 85.1756 419.382 86.8839 419.382C88.6266 419.382 90.0933 420.175 90.8526 421.469C90.9043 420.693 91.3357 420.348 91.9741 420.348H93.2165V420.279C93.2165 419.451 93.7514 418.985 94.5969 418.985H94.6832C95.5287 418.985 96.0636 419.451 96.0636 420.279V427.129C96.0636 427.957 95.5287 428.423 94.6832 428.423H94.5969ZM82.6564 434.704C82.6564 434.307 82.8635 433.962 83.2776 433.686C84.6407 432.737 85.4172 431.512 85.4172 430.252V429.942C85.4172 429.183 85.9349 428.699 86.7458 428.699H86.8149C87.6259 428.699 88.1435 429.183 88.1435 429.942V430.356C88.1435 430.615 88.109 430.891 88.0572 431.219C88.8337 431.754 89.5584 432.306 90.2314 432.875C91.1114 432.047 91.5255 431.201 91.5255 430.183V429.942C91.5255 429.183 92.0432 428.699 92.8541 428.699H92.9232C93.7342 428.699 94.2518 429.183 94.2518 429.942V430.183C94.2518 430.649 94.1655 431.132 94.0102 431.615C95.0973 432.426 95.9601 433.186 96.564 433.893C96.7538 434.1 96.8573 434.342 96.8573 434.635C96.8573 434.963 96.702 435.274 96.4087 435.532C96.1844 435.739 95.9255 435.843 95.5977 435.843C95.2181 435.843 94.8902 435.705 94.6314 435.429C93.9067 434.704 93.3028 434.152 92.8196 433.755C92.2157 434.514 91.4737 435.17 90.6282 435.739C90.3694 435.929 90.0761 436.016 89.7482 436.016C89.3514 436.016 89.0408 435.877 88.8165 435.601C88.6094 435.36 88.5059 435.101 88.5059 434.825C88.5059 434.704 88.5231 434.601 88.5576 434.497C88.0745 434.1 87.5913 433.738 87.1082 433.427C86.5043 434.255 85.745 434.98 84.8305 435.584C84.5372 435.774 84.2266 435.877 83.916 435.877C83.5364 435.877 83.2258 435.739 82.9842 435.481C82.7599 435.256 82.6564 434.997 82.6564 434.704ZM85.1411 423.506C85.1411 424.42 85.8658 425.128 86.8839 425.128C87.8674 425.128 88.6094 424.42 88.6094 423.506C88.6094 422.591 87.8674 421.901 86.8839 421.901C85.9003 421.901 85.1411 422.591 85.1411 423.506ZM91.3357 424.265C91.5082 424.161 91.7153 424.11 91.9741 424.11H93.2165V422.902H91.9741C91.7153 422.902 91.5082 422.85 91.3357 422.746C91.3875 422.971 91.4047 423.212 91.4047 423.506C91.4047 423.799 91.3875 424.04 91.3357 424.265ZM110.824 435.739C109.979 435.739 109.444 435.274 109.444 434.445V426.888H107.873C107.459 429.424 105.699 431.029 103.284 431.029C100.54 431.029 98.573 428.975 98.573 425.68C98.573 422.384 100.54 420.348 103.284 420.348C105.63 420.348 107.373 421.866 107.856 424.299H109.444V420.279C109.444 419.451 109.979 418.985 110.824 418.985H110.91C111.756 418.985 112.291 419.451 112.291 420.279V434.445C112.291 435.274 111.756 435.739 110.91 435.739H110.824ZM101.368 425.68C101.368 427.336 102.128 428.441 103.284 428.441C104.44 428.441 105.182 427.336 105.182 425.68C105.182 424.04 104.405 422.936 103.284 422.936C102.128 422.936 101.368 424.04 101.368 425.68ZM116.301 430.494C115.611 430.494 115.094 430.011 115.076 429.269L114.869 420.952C114.852 420.141 115.49 419.537 116.301 419.537C117.112 419.537 117.768 420.141 117.716 420.952L117.509 429.269C117.526 430.011 116.992 430.494 116.301 430.494ZM114.628 433.117C114.628 432.237 115.352 431.529 116.301 431.529C117.268 431.529 117.992 432.237 117.992 433.117C117.992 433.997 117.25 434.687 116.301 434.687C115.352 434.687 114.628 433.997 114.628 433.117Z" fill="white"/>
</g>
<g filter="url(#filter2_d_1840_8329)">
<rect x="155.138" y="403.105" width="109.835" height="47.7833" rx="14.335" fill="url(#paint5_linear_1840_8329)" shape-rendering="crispEdges"/>
<rect x="156.133" y="404.101" width="107.844" height="45.7923" rx="13.3395" stroke="#28323B" stroke-width="1.99097" shape-rendering="crispEdges"/>
<path d="M194.196 427.716C193.937 427.871 193.661 427.94 193.402 427.94C192.936 427.94 192.574 427.716 192.281 427.267C192.125 427.008 192.039 426.767 192.039 426.508C192.039 426.077 192.264 425.731 192.695 425.473C194.576 424.317 195.507 422.919 195.507 421.245V420.624C195.507 419.796 196.111 419.33 196.888 419.33H196.957C197.733 419.33 198.337 419.796 198.337 420.624V421.245C198.337 421.728 198.303 422.16 198.217 422.557C199.373 423.299 200.339 424.023 201.098 424.748C201.426 425.059 201.581 425.386 201.581 425.731C201.581 426.059 201.443 426.37 201.167 426.681C200.874 427.008 200.546 427.164 200.166 427.164C199.804 427.164 199.476 427.026 199.2 426.75C198.665 426.249 197.975 425.714 197.147 425.128C196.405 426.197 195.421 427.06 194.196 427.716ZM195.663 431.978C195.663 429.528 197.647 427.785 200.511 427.785C203.41 427.785 205.377 429.528 205.377 431.978C205.377 434.411 203.393 436.119 200.511 436.119C197.63 436.119 195.663 434.394 195.663 431.978ZM198.51 431.961C198.51 432.91 199.321 433.6 200.546 433.6C201.737 433.6 202.53 432.91 202.53 431.961C202.53 430.977 201.737 430.27 200.546 430.27C199.321 430.27 198.51 430.977 198.51 431.961ZM199.838 422.436C199.838 421.625 200.304 421.176 201.271 421.176H202.789V420.279C202.789 419.451 203.324 418.985 204.17 418.985H204.256C205.101 418.985 205.636 419.451 205.636 420.279V426.611C205.636 427.44 205.101 427.906 204.256 427.906H204.17C203.324 427.906 202.789 427.44 202.789 426.611V423.695H201.271C200.304 423.695 199.838 423.247 199.838 422.436ZM209.181 427.923C208.215 427.923 207.714 427.457 207.714 426.629C207.714 425.801 208.215 425.335 209.181 425.335H213.15V423.902C213.15 423.23 213.702 422.781 214.53 422.781H214.616C215.445 422.781 215.997 423.23 215.997 423.902V425.335H221.605C222.571 425.335 223.071 425.801 223.071 426.629C223.071 427.457 222.571 427.923 221.605 427.923H209.181ZM210.147 420.676C210.147 419.865 210.648 419.399 211.614 419.399H218.878C220.086 419.399 220.69 419.917 220.69 420.952C220.69 422.419 220.569 423.126 220.172 424.023C219.983 424.437 219.568 424.679 219.085 424.679C218.982 424.679 218.826 424.662 218.619 424.61C217.981 424.455 217.601 424.058 217.601 423.575C217.601 423.454 217.619 423.35 217.653 423.23C217.808 422.746 217.86 422.401 217.843 422.211C217.843 422.056 217.722 421.953 217.584 421.953H211.614C210.648 421.953 210.147 421.487 210.147 420.676ZM210.665 432.357C210.665 430.27 212.546 428.613 215.358 428.613C218.205 428.613 220.069 430.27 220.069 432.357C220.069 434.463 218.188 436.119 215.358 436.119C212.528 436.119 210.665 434.445 210.665 432.357ZM213.477 432.357C213.477 433.134 214.288 433.686 215.393 433.686C216.48 433.686 217.256 433.134 217.256 432.357C217.256 431.581 216.48 431.012 215.393 431.012C214.288 431.012 213.477 431.581 213.477 432.357ZM225.874 430.494C225.184 430.494 224.666 430.011 224.649 429.269L224.442 420.952C224.425 420.141 225.063 419.537 225.874 419.537C226.685 419.537 227.341 420.141 227.289 420.952L227.082 429.269C227.099 430.011 226.564 430.494 225.874 430.494ZM224.2 433.117C224.2 432.237 224.925 431.529 225.874 431.529C226.84 431.529 227.565 432.237 227.565 433.117C227.565 433.997 226.823 434.687 225.874 434.687C224.925 434.687 224.2 433.997 224.2 433.117Z" fill="white"/>
</g>
<g filter="url(#filter3_d_1840_8329)">
<rect x="41.5801" y="195.117" width="219.171" height="196.139" rx="15.3356" fill="white" shape-rendering="crispEdges"/>
<rect width="137.445" height="21.5017" transform="translate(82.4434 214.127)" fill="white"/>
<rect width="137.445" height="6.90102" transform="translate(82.4434 214.127)" fill="white"/>
<path fill-rule="evenodd" clip-rule="evenodd" d="M143.558 228.844C144.756 230.041 144.756 231.983 143.558 233.181C142.36 234.379 140.418 234.379 139.221 233.181C138.023 231.983 138.023 230.041 139.221 228.844C140.418 227.646 142.36 227.646 143.558 228.844Z" fill="#BDBDBD"/>
<path d="M143.558 228.844C144.756 230.041 144.756 231.983 143.558 233.181C142.36 234.379 140.418 234.379 139.221 233.181C138.023 231.983 138.023 230.041 139.221 228.844C140.418 227.646 142.36 227.646 143.558 228.844" stroke="#BDBDBD" stroke-width="0.76678" stroke-linecap="round" stroke-linejoin="round"/>
<path d="M141.39 229.479V231.012" stroke="white" stroke-width="0.76678" stroke-linecap="round" stroke-linejoin="round"/>
<path d="M140.623 226.795H142.157" stroke="#BDBDBD" stroke-width="0.76678" stroke-linecap="round" stroke-linejoin="round"/>
<path d="M144.84 228.328L144.073 227.562L144.457 227.945L143.559 228.843" stroke="#BDBDBD" stroke-width="0.76678" stroke-linecap="round" stroke-linejoin="round"/>
<path d="M150.272 233.554C149.622 233.554 148.874 233.337 148.373 232.941C148.224 232.814 148.149 232.672 148.149 232.522C148.149 232.395 148.201 232.268 148.313 232.141C148.425 232.007 148.575 231.939 148.747 231.939C148.874 231.939 149.001 231.984 149.113 232.066C149.479 232.343 149.831 232.47 150.242 232.47C150.833 232.47 151.184 232.164 151.184 231.663C151.184 231.154 150.765 230.84 150.1 230.84H149.397C149.061 230.84 148.837 230.631 148.837 230.302C148.837 229.973 149.061 229.756 149.397 229.756H149.928C150.564 229.756 150.96 229.412 150.96 228.904C150.96 228.463 150.691 228.201 150.22 228.201C149.943 228.201 149.734 228.313 149.465 228.56C149.322 228.687 149.166 228.754 148.994 228.754C148.859 228.754 148.732 228.71 148.62 228.627C148.478 228.508 148.41 228.373 148.41 228.224C148.41 228.082 148.463 227.955 148.567 227.835C148.949 227.386 149.539 227.117 150.197 227.117C151.408 227.117 152.178 227.88 152.178 228.949C152.178 229.457 151.902 229.913 151.386 230.205C152.081 230.511 152.433 231.065 152.433 231.685C152.433 232.036 152.343 232.358 152.171 232.642C151.82 233.21 151.147 233.554 150.272 233.554ZM155.439 233.562C154.056 233.562 153.181 232.358 153.181 230.339C153.181 228.328 154.049 227.117 155.439 227.117C156.815 227.117 157.697 228.336 157.697 230.339C157.697 232.358 156.807 233.562 155.439 233.562ZM154.407 230.339C154.407 231.693 154.789 232.478 155.439 232.478C156.075 232.478 156.471 231.693 156.471 230.339C156.471 228.994 156.075 228.201 155.439 228.201C154.789 228.201 154.407 228.986 154.407 230.339ZM159.801 231.446C159.718 231.468 159.644 231.483 159.591 231.483C159.382 231.483 159.202 231.364 159.105 231.154C159.068 231.072 159.045 230.997 159.045 230.923C159.045 230.721 159.165 230.541 159.367 230.474C159.868 230.272 160.249 230.085 160.503 229.906C160.75 229.734 160.9 229.554 160.937 229.368H159.741C159.389 229.368 159.165 229.166 159.165 228.837C159.165 228.515 159.389 228.313 159.741 228.313H163.382C163.733 228.313 163.957 228.515 163.957 228.837C163.957 229.158 163.733 229.368 163.382 229.368H162.148C162.141 229.495 162.118 229.607 162.096 229.689C162.589 229.898 163.135 230.153 163.74 230.459C163.92 230.556 164.017 230.728 164.017 230.908C164.017 231.005 163.987 231.109 163.92 231.207C163.793 231.394 163.628 231.483 163.441 231.483C163.352 231.483 163.262 231.461 163.18 231.416C162.679 231.132 162.126 230.848 161.505 230.564C161.131 230.885 160.563 231.177 159.801 231.446ZM158.216 232.859C158.216 232.5 158.432 232.298 158.851 232.298H160.944V231.58C160.944 231.289 161.184 231.095 161.542 231.095H161.58C161.939 231.095 162.178 231.289 162.178 231.58V232.298H164.234C164.653 232.298 164.869 232.5 164.869 232.859C164.869 233.218 164.653 233.42 164.234 233.42H158.851C158.432 233.42 158.216 233.218 158.216 232.859ZM159.92 227.386C159.92 227.334 159.935 227.259 159.958 227.17C160.025 226.938 160.189 226.826 160.376 226.826C160.429 226.826 160.488 226.841 160.556 226.863C160.847 226.983 161.057 227.02 161.505 227.02H162.612C162.97 227.02 163.172 227.207 163.172 227.536C163.172 227.865 162.963 228.052 162.612 228.052H161.453C160.877 228.052 160.556 228.007 160.234 227.85C160.025 227.753 159.92 227.603 159.92 227.386Z" fill="#8C8C8C"/>
<path d="M102.322 281.801C98.5495 281.801 96.0652 279.57 96.0652 276.786C96.0652 274.394 97.8594 272.531 100.597 271.956C100.528 271.749 100.482 271.541 100.482 271.288V270.345H94.0869C92.7987 270.345 92.1316 269.724 92.1316 268.62C92.1316 267.516 92.7987 266.895 94.0869 266.895H110.649C111.938 266.895 112.605 267.516 112.605 268.62C112.605 269.724 111.938 270.345 110.649 270.345H104.277V271.288C104.277 271.541 104.231 271.772 104.162 271.979C106.831 272.6 108.602 274.463 108.602 276.786C108.602 279.593 106.095 281.801 102.322 281.801ZM95.3751 261.213C95.3751 260.132 96.0422 259.511 97.3304 259.511H107.015C108.625 259.511 109.43 260.201 109.43 261.581C109.43 263.536 109.269 264.479 108.74 265.676C108.487 266.228 107.935 266.55 107.291 266.55C107.153 266.55 106.946 266.527 106.67 266.458C105.819 266.251 105.313 265.722 105.313 265.078C105.313 264.916 105.336 264.778 105.382 264.617C105.589 263.973 105.658 263.513 105.635 263.26C105.635 263.053 105.474 262.915 105.29 262.915H97.3304C96.0422 262.915 95.3751 262.294 95.3751 261.213ZM99.8147 276.786C99.8147 277.821 100.896 278.558 102.368 278.558C103.817 278.558 104.852 277.821 104.852 276.786C104.852 275.751 103.817 274.992 102.368 274.992C100.896 274.992 99.8147 275.751 99.8147 276.786ZM123.955 281.801C120.045 281.801 117.698 279.892 117.698 277.131C117.698 274.9 119.285 273.175 122.115 272.646V271.587H115.72C114.432 271.587 113.765 270.966 113.765 269.954C113.765 268.942 114.432 268.321 115.72 268.321H132.282C133.571 268.321 134.238 268.942 134.238 269.954C134.238 270.966 133.571 271.587 132.282 271.587H125.91V272.669C128.671 273.221 130.235 274.923 130.235 277.131C130.235 279.892 127.866 281.801 123.955 281.801ZM115.95 266.251C115.95 265.538 116.502 264.963 117.261 264.778C118.71 264.433 119.815 264.088 120.597 263.766C121.356 263.467 121.816 263.076 121.931 262.639H118.273C117.146 262.639 116.433 262.018 116.433 261.006C116.433 259.971 117.238 259.373 118.273 259.373H129.315C130.35 259.373 131.155 259.971 131.155 261.006C131.155 262.041 130.35 262.639 129.315 262.639H125.726C125.703 262.892 125.657 263.076 125.634 263.214C127.751 263.766 129.384 264.295 130.557 264.801C131.201 265.055 131.569 265.607 131.569 266.228C131.569 266.596 131.454 266.941 131.224 267.263C130.925 267.7 130.488 267.907 129.867 267.907C129.545 267.907 129.177 267.838 128.763 267.7C126.509 266.872 124.737 266.297 123.449 265.998C122.138 266.849 120.413 267.47 118.319 267.861C118.135 267.884 117.951 267.884 117.767 267.907C116.962 267.907 116.433 267.608 116.134 267.033C116.019 266.78 115.95 266.527 115.95 266.251ZM121.448 277.131C121.448 277.959 122.46 278.558 124.001 278.558C125.496 278.558 126.486 277.959 126.486 277.131C126.486 276.303 125.496 275.682 124.001 275.682C122.46 275.682 121.448 276.303 121.448 277.131ZM151.114 281.801C147.273 281.801 144.858 279.846 144.858 277.131C144.858 274.831 146.537 273.175 149.274 272.646V271.495H142.879C141.591 271.495 140.924 270.874 140.924 269.862C140.924 268.85 141.591 268.229 142.879 268.229H159.442C160.73 268.229 161.397 268.85 161.397 269.862C161.397 270.874 160.73 271.495 159.442 271.495H153.07V272.669C155.761 273.198 157.394 274.854 157.394 277.131C157.394 279.823 154.979 281.801 151.114 281.801ZM143.224 266.205C143.224 265.538 143.615 264.939 144.328 264.732C147.756 263.536 149.228 262.547 149.297 260.799C149.32 259.695 150.079 259.097 151.114 259.097H151.206C152.242 259.097 153.047 259.718 153.047 260.822C153.047 261.443 152.955 262.018 152.771 262.547C154.956 263.398 156.612 264.157 157.693 264.778C158.315 265.124 158.614 265.584 158.614 266.159C158.614 266.504 158.476 266.872 158.223 267.217C157.923 267.608 157.509 267.815 156.934 267.815C156.589 267.815 156.244 267.723 155.899 267.562C154.542 266.895 152.242 265.86 150.769 265.285C149.665 266.182 148.055 266.964 145.916 267.677C145.525 267.792 145.18 267.861 144.904 267.861C144.351 267.861 143.914 267.654 143.592 267.263C143.339 266.964 143.224 266.596 143.224 266.205ZM148.607 277.131C148.607 277.982 149.619 278.558 151.16 278.558C152.656 278.558 153.645 277.982 153.645 277.131C153.645 276.28 152.656 275.682 151.16 275.682C149.619 275.682 148.607 276.234 148.607 277.131ZM172.748 281.801C168.837 281.801 166.491 279.846 166.491 277.016C166.491 275.659 167.066 274.463 168.101 273.612C167.549 273.313 167.273 272.807 167.273 272.094V271.196H164.512C163.224 271.196 162.557 270.575 162.557 269.563C162.557 268.551 163.224 267.93 164.512 267.93H181.075C182.363 267.93 183.03 268.551 183.03 269.563C183.03 270.575 182.363 271.196 181.075 271.196H178.199V272.094C178.199 272.807 177.923 273.313 177.394 273.589C178.475 274.44 179.027 275.636 179.027 277.016C179.027 279.846 176.681 281.801 172.748 281.801ZM165.893 261.466V260.914C165.893 259.81 166.606 259.189 167.733 259.189H167.848C168.975 259.189 169.688 259.81 169.688 260.914V261.397C169.688 263.076 170.493 263.72 172.909 263.72C174.726 263.72 176.359 263.513 177.808 263.099C178.061 263.03 178.291 262.984 178.475 262.984C179.189 262.984 179.741 263.375 179.948 264.088C180.04 264.341 180.086 264.571 180.086 264.824C180.086 265.492 179.672 265.975 178.866 266.228C177.095 266.734 175.117 266.987 172.909 266.987C167.917 266.987 165.893 265.331 165.893 261.466ZM170.24 277.016C170.24 277.959 171.229 278.558 172.794 278.558C174.335 278.558 175.278 277.959 175.278 277.016C175.278 276.073 174.289 275.452 172.794 275.452C171.229 275.452 170.24 276.073 170.24 277.016ZM171.045 272.393C171.574 272.301 172.149 272.255 172.748 272.255C173.346 272.255 173.898 272.301 174.427 272.393C174.404 272.324 174.404 272.232 174.404 272.094V271.196H171.068V272.094C171.068 272.232 171.068 272.324 171.045 272.393ZM199.907 281.801C195.996 281.801 193.65 279.892 193.65 277.131C193.65 274.9 195.237 273.175 198.067 272.646V271.587H191.672C190.383 271.587 189.716 270.966 189.716 269.954C189.716 268.942 190.383 268.321 191.672 268.321H208.234C209.522 268.321 210.189 268.942 210.189 269.954C210.189 270.966 209.522 271.587 208.234 271.587H201.862V272.669C204.623 273.221 206.187 274.923 206.187 277.131C206.187 279.892 203.817 281.801 199.907 281.801ZM191.902 266.251C191.902 265.538 192.454 264.963 193.213 264.778C194.662 264.433 195.766 264.088 196.548 263.766C197.307 263.467 197.768 263.076 197.883 262.639H194.225C193.098 262.639 192.385 262.018 192.385 261.006C192.385 259.971 193.19 259.373 194.225 259.373H205.267C206.302 259.373 207.107 259.971 207.107 261.006C207.107 262.041 206.302 262.639 205.267 262.639H201.678C201.655 262.892 201.609 263.076 201.586 263.214C203.702 263.766 205.336 264.295 206.509 264.801C207.153 265.055 207.521 265.607 207.521 266.228C207.521 266.596 207.406 266.941 207.176 267.263C206.877 267.7 206.44 267.907 205.819 267.907C205.497 267.907 205.129 267.838 204.715 267.7C202.46 266.872 200.689 266.297 199.401 265.998C198.09 266.849 196.364 267.47 194.271 267.861C194.087 267.884 193.903 267.884 193.719 267.907C192.914 267.907 192.385 267.608 192.086 267.033C191.971 266.78 191.902 266.527 191.902 266.251ZM197.399 277.131C197.399 277.959 198.412 278.558 199.953 278.558C201.448 278.558 202.437 277.959 202.437 277.131C202.437 276.303 201.448 275.682 199.953 275.682C198.412 275.682 197.399 276.303 197.399 277.131ZM80.781 311.387C76.3644 311.387 73.834 310.283 73.834 307.614V306.786C73.834 305.521 74.4781 304.946 76.0423 304.946H83.5184C83.7715 304.946 83.8405 304.877 83.8405 304.67V304.417C83.8405 304.21 83.7715 304.164 83.5184 304.164H75.2142C74.1791 304.164 73.604 303.566 73.604 302.669C73.604 301.772 74.1791 301.173 75.2142 301.173H78.8948V300.253H72.3618C71.1656 300.253 70.4985 299.632 70.4985 298.735C70.4985 297.838 71.1656 297.217 72.3618 297.217H89.1083C90.3044 297.217 90.9715 297.838 90.9715 298.735C90.9715 299.632 90.3044 300.253 89.1083 300.253H82.6903V301.173H85.4967C86.8079 301.173 87.636 301.933 87.636 303.106V305.498C87.636 306.809 87.061 307.43 85.6808 307.43H77.9746C77.7446 307.43 77.6296 307.545 77.6296 307.752C77.6296 307.959 77.8596 308.12 78.2967 308.235C78.7337 308.35 79.5619 308.396 80.781 308.396C82.8283 308.396 84.7376 308.212 86.4859 307.844C86.5549 307.821 86.6469 307.821 86.7619 307.821C87.383 307.821 87.9121 308.235 88.1191 308.903C88.1881 309.156 88.2111 309.34 88.2111 309.455C88.2111 310.076 87.8661 310.605 87.245 310.72C85.3817 311.203 83.4494 311.387 80.781 311.387ZM73.834 291.604V290.822C73.834 289.718 74.5471 289.097 75.6743 289.097H75.7893C76.9165 289.097 77.6296 289.718 77.6296 290.822V291.443C77.6296 292.8 78.4807 293.398 80.85 293.398C82.4833 293.398 84.1395 293.191 85.7958 292.754C86.0028 292.708 86.2098 292.685 86.3709 292.685C87.291 292.685 87.9351 293.306 87.9351 294.341C87.9351 295.078 87.521 295.607 86.6699 295.814C84.8526 296.228 82.9204 296.435 80.85 296.435C75.8813 296.435 73.834 294.801 73.834 291.604ZM102.368 298.919C98.3195 298.919 95.7431 296.895 95.7431 294.042C95.7431 291.121 98.4805 289.212 102.368 289.212C106.256 289.212 108.993 291.121 108.993 294.042C108.993 296.895 106.417 298.919 102.368 298.919ZM92.1316 301.426C92.1316 300.414 92.7987 299.793 94.0869 299.793H110.649C111.938 299.793 112.605 300.414 112.605 301.426C112.605 302.439 111.938 303.06 110.649 303.06H94.0869C92.7987 303.06 92.1316 302.439 92.1316 301.426ZM95.4671 306.234V305.659C95.4671 304.624 96.1802 303.934 97.3074 303.934H97.4224C98.5495 303.934 99.2626 304.624 99.2626 305.659V306.004C99.2626 306.602 99.5387 307.016 100.114 307.246C100.689 307.476 101.563 307.591 102.736 307.591C104.415 307.591 106.003 307.315 107.521 306.786C107.797 306.694 108.05 306.648 108.28 306.648C108.947 306.648 109.476 307.039 109.729 307.752C109.844 308.028 109.89 308.304 109.89 308.581C109.89 309.271 109.499 309.777 108.74 310.076C107.13 310.72 105.037 311.042 102.483 311.042C98.0435 311.042 95.4671 309.34 95.4671 306.234ZM99.5387 294.042C99.5387 295.147 100.689 295.883 102.368 295.883C104.047 295.883 105.198 295.147 105.198 294.042C105.198 292.961 104.047 292.248 102.368 292.248C100.689 292.248 99.5387 292.961 99.5387 294.042ZM129.481 311.801C125.709 311.801 123.224 309.57 123.224 306.786C123.224 304.394 125.019 302.531 127.756 301.956C127.687 301.749 127.641 301.541 127.641 301.288V300.345H121.246C119.958 300.345 119.291 299.724 119.291 298.62C119.291 297.516 119.958 296.895 121.246 296.895H137.809C139.097 296.895 139.764 297.516 139.764 298.62C139.764 299.724 139.097 300.345 137.809 300.345H131.437V301.288C131.437 301.541 131.391 301.772 131.322 301.979C133.99 302.6 135.761 304.463 135.761 306.786C135.761 309.593 133.254 311.801 129.481 311.801ZM122.534 291.213C122.534 290.132 123.201 289.511 124.49 289.511H134.174C135.784 289.511 136.589 290.201 136.589 291.581C136.589 293.536 136.428 294.479 135.899 295.676C135.646 296.228 135.094 296.55 134.45 296.55C134.312 296.55 134.105 296.527 133.829 296.458C132.978 296.251 132.472 295.722 132.472 295.078C132.472 294.916 132.495 294.778 132.541 294.617C132.748 293.973 132.817 293.513 132.794 293.26C132.794 293.053 132.633 292.915 132.449 292.915H124.49C123.201 292.915 122.534 292.294 122.534 291.213ZM126.974 306.786C126.974 307.821 128.055 308.558 129.527 308.558C130.977 308.558 132.012 307.821 132.012 306.786C132.012 305.751 130.977 304.992 129.527 304.992C128.055 304.992 126.974 305.751 126.974 306.786ZM151.114 311.801C147.204 311.801 144.858 309.892 144.858 307.131C144.858 304.9 146.445 303.175 149.274 302.646V301.587H142.879C141.591 301.587 140.924 300.966 140.924 299.954C140.924 298.942 141.591 298.321 142.879 298.321H159.442C160.73 298.321 161.397 298.942 161.397 299.954C161.397 300.966 160.73 301.587 159.442 301.587H153.07V302.669C155.83 303.221 157.394 304.923 157.394 307.131C157.394 309.892 155.025 311.801 151.114 311.801ZM143.109 296.251C143.109 295.538 143.661 294.963 144.42 294.778C145.87 294.433 146.974 294.088 147.756 293.766C148.515 293.467 148.975 293.076 149.09 292.639H145.433C144.305 292.639 143.592 292.018 143.592 291.006C143.592 289.971 144.397 289.373 145.433 289.373H156.474C157.509 289.373 158.315 289.971 158.315 291.006C158.315 292.041 157.509 292.639 156.474 292.639H152.886C152.863 292.892 152.817 293.076 152.794 293.214C154.91 293.766 156.543 294.295 157.716 294.801C158.361 295.055 158.729 295.607 158.729 296.228C158.729 296.596 158.614 296.941 158.384 297.263C158.084 297.7 157.647 297.907 157.026 297.907C156.704 297.907 156.336 297.838 155.922 297.7C153.668 296.872 151.897 296.297 150.608 295.998C149.297 296.849 147.572 297.47 145.479 297.861C145.295 297.884 145.111 297.884 144.927 297.907C144.121 297.907 143.592 297.608 143.293 297.033C143.178 296.78 143.109 296.527 143.109 296.251ZM148.607 307.131C148.607 307.959 149.619 308.558 151.16 308.558C152.656 308.558 153.645 307.959 153.645 307.131C153.645 306.303 152.656 305.682 151.16 305.682C149.619 305.682 148.607 306.303 148.607 307.131ZM178.274 311.801C174.432 311.801 172.017 309.846 172.017 307.131C172.017 304.831 173.696 303.175 176.433 302.646V301.495H170.039C168.75 301.495 168.083 300.874 168.083 299.862C168.083 298.85 168.75 298.229 170.039 298.229H186.601C187.889 298.229 188.556 298.85 188.556 299.862C188.556 300.874 187.889 301.495 186.601 301.495H180.229V302.669C182.92 303.198 184.554 304.854 184.554 307.131C184.554 309.823 182.138 311.801 178.274 311.801ZM170.384 296.205C170.384 295.538 170.775 294.939 171.488 294.732C174.915 293.536 176.387 292.547 176.456 290.799C176.479 289.695 177.239 289.097 178.274 289.097H178.366C179.401 289.097 180.206 289.718 180.206 290.822C180.206 291.443 180.114 292.018 179.93 292.547C182.115 293.398 183.772 294.157 184.853 294.778C185.474 295.124 185.773 295.584 185.773 296.159C185.773 296.504 185.635 296.872 185.382 297.217C185.083 297.608 184.669 297.815 184.094 297.815C183.749 297.815 183.404 297.723 183.058 297.562C181.701 296.895 179.401 295.86 177.929 295.285C176.825 296.182 175.214 296.964 173.075 297.677C172.684 297.792 172.339 297.861 172.063 297.861C171.511 297.861 171.074 297.654 170.752 297.263C170.499 296.964 170.384 296.596 170.384 296.205ZM175.766 307.131C175.766 307.982 176.779 308.558 178.32 308.558C179.815 308.558 180.804 307.982 180.804 307.131C180.804 306.28 179.815 305.682 178.32 305.682C176.779 305.682 175.766 306.234 175.766 307.131ZM199.907 311.801C195.996 311.801 193.65 309.846 193.65 307.016C193.65 305.659 194.225 304.463 195.26 303.612C194.708 303.313 194.432 302.807 194.432 302.094V301.196H191.672C190.383 301.196 189.716 300.575 189.716 299.563C189.716 298.551 190.383 297.93 191.672 297.93H208.234C209.522 297.93 210.189 298.551 210.189 299.563C210.189 300.575 209.522 301.196 208.234 301.196H205.359V302.094C205.359 302.807 205.083 303.313 204.554 303.589C205.635 304.44 206.187 305.636 206.187 307.016C206.187 309.846 203.84 311.801 199.907 311.801ZM193.052 291.466V290.914C193.052 289.81 193.765 289.189 194.892 289.189H195.007C196.134 289.189 196.847 289.81 196.847 290.914V291.397C196.847 293.076 197.653 293.72 200.068 293.72C201.885 293.72 203.518 293.513 204.968 293.099C205.221 293.03 205.451 292.984 205.635 292.984C206.348 292.984 206.9 293.375 207.107 294.088C207.199 294.341 207.245 294.571 207.245 294.824C207.245 295.492 206.831 295.975 206.026 296.228C204.254 296.734 202.276 296.987 200.068 296.987C195.076 296.987 193.052 295.331 193.052 291.466ZM197.399 307.016C197.399 307.959 198.389 308.558 199.953 308.558C201.494 308.558 202.437 307.959 202.437 307.016C202.437 306.073 201.448 305.452 199.953 305.452C198.389 305.452 197.399 306.073 197.399 307.016ZM198.205 302.393C198.734 302.301 199.309 302.255 199.907 302.255C200.505 302.255 201.057 302.301 201.586 302.393C201.563 302.324 201.563 302.232 201.563 302.094V301.196H198.228V302.094C198.228 302.232 198.228 302.324 198.205 302.393ZM221.586 298.919C217.537 298.919 214.961 296.895 214.961 294.042C214.961 291.121 217.698 289.212 221.586 289.212C225.473 289.212 228.211 291.121 228.211 294.042C228.211 296.895 225.635 298.919 221.586 298.919ZM211.349 301.426C211.349 300.414 212.017 299.793 213.305 299.793H229.867C231.155 299.793 231.822 300.414 231.822 301.426C231.822 302.439 231.155 303.06 229.867 303.06H213.305C212.017 303.06 211.349 302.439 211.349 301.426ZM214.685 306.234V305.659C214.685 304.624 215.398 303.934 216.525 303.934H216.64C217.767 303.934 218.48 304.624 218.48 305.659V306.004C218.48 306.602 218.757 307.016 219.332 307.246C219.907 307.476 220.781 307.591 221.954 307.591C223.633 307.591 225.22 307.315 226.739 306.786C227.015 306.694 227.268 306.648 227.498 306.648C228.165 306.648 228.694 307.039 228.947 307.752C229.062 308.028 229.108 308.304 229.108 308.581C229.108 309.271 228.717 309.777 227.958 310.076C226.348 310.72 224.254 311.042 221.701 311.042C217.261 311.042 214.685 309.34 214.685 306.234ZM218.757 294.042C218.757 295.147 219.907 295.883 221.586 295.883C223.265 295.883 224.415 295.147 224.415 294.042C224.415 292.961 223.265 292.248 221.586 292.248C219.907 292.248 218.757 292.961 218.757 294.042ZM126.81 341.387C122.394 341.387 119.863 340.283 119.863 337.614V336.786C119.863 335.521 120.507 334.946 122.072 334.946H129.548C129.801 334.946 129.87 334.877 129.87 334.67V334.417C129.87 334.21 129.801 334.164 129.548 334.164H121.243C120.208 334.164 119.633 333.566 119.633 332.669C119.633 331.772 120.208 331.173 121.243 331.173H131.526C132.837 331.173 133.665 331.933 133.665 333.106V335.498C133.665 336.809 133.09 337.43 131.71 337.43H124.004C123.774 337.43 123.659 337.545 123.659 337.752C123.659 337.959 123.889 338.12 124.326 338.235C124.763 338.35 125.591 338.396 126.81 338.396C128.858 338.396 130.767 338.212 132.515 337.844C132.584 337.821 132.676 337.821 132.791 337.821C133.412 337.821 133.941 338.235 134.148 338.903C134.217 339.156 134.24 339.34 134.24 339.455C134.24 340.076 133.895 340.605 133.274 340.72C131.411 341.203 129.479 341.387 126.81 341.387ZM116.528 328.85C116.528 327.953 117.195 327.332 118.391 327.332H135.138C136.334 327.332 137.001 327.953 137.001 328.85C137.001 329.747 136.334 330.368 135.138 330.368H118.391C117.195 330.368 116.528 329.747 116.528 328.85ZM119.863 321.604V320.822C119.863 319.718 120.576 319.097 121.704 319.097H121.819C122.946 319.097 123.659 319.718 123.659 320.822V321.443C123.659 322.8 124.51 323.398 126.879 323.398C128.513 323.398 130.169 323.191 131.825 322.754C132.032 322.708 132.239 322.685 132.4 322.685C133.32 322.685 133.964 323.306 133.964 324.341C133.964 325.078 133.55 325.607 132.699 325.814C130.882 326.228 128.95 326.435 126.879 326.435C121.911 326.435 119.863 324.801 119.863 321.604ZM158.915 341.295C157.788 341.295 157.075 340.674 157.075 339.57V336.878C157.075 336.625 156.937 336.487 156.684 336.487H148.679C147.483 336.487 146.954 335.797 146.954 334.854C146.954 333.911 147.506 333.221 148.702 333.221H152.037V331.887H145.642C144.354 331.887 143.687 331.265 143.687 330.253C143.687 329.241 144.354 328.62 145.642 328.62H162.205C163.493 328.62 164.16 329.241 164.16 330.253C164.16 331.265 163.493 331.887 162.205 331.887H155.833V333.221H158.754C160.227 333.221 160.871 333.842 160.871 335.291V339.57C160.871 340.674 160.158 341.295 159.03 341.295H158.915ZM147.023 321.811V320.914C147.023 319.81 147.736 319.189 148.863 319.189H148.978C150.105 319.189 150.818 319.81 150.818 320.914V321.742C150.818 323.559 151.646 324.272 154.039 324.272C155.856 324.272 157.489 324.065 158.938 323.651C159.191 323.582 159.421 323.536 159.605 323.536C160.319 323.536 160.871 323.927 161.078 324.64C161.17 324.893 161.216 325.124 161.216 325.377C161.216 326.044 160.802 326.527 159.996 326.78C158.225 327.286 156.247 327.539 154.039 327.539C149.001 327.539 147.023 325.745 147.023 321.811ZM180.548 341.295C179.421 341.295 178.708 340.674 178.708 339.57V336.878C178.708 336.625 178.57 336.487 178.317 336.487H170.312C169.116 336.487 168.587 335.797 168.587 334.854C168.587 333.911 169.139 333.221 170.335 333.221H173.67V331.887H167.275C165.987 331.887 165.32 331.265 165.32 330.253C165.32 329.241 165.987 328.62 167.275 328.62H183.838C185.126 328.62 185.793 329.241 185.793 330.253C185.793 331.265 185.126 331.887 183.838 331.887H177.466V333.221H180.387C181.86 333.221 182.504 333.842 182.504 335.291V339.57C182.504 340.674 181.791 341.295 180.663 341.295H180.548ZM168.656 321.811V320.914C168.656 319.81 169.369 319.189 170.496 319.189H170.611C171.738 319.189 172.451 319.81 172.451 320.914V321.742C172.451 323.559 173.279 324.272 175.672 324.272C177.489 324.272 179.122 324.065 180.571 323.651C180.824 323.582 181.054 323.536 181.239 323.536C181.952 323.536 182.504 323.927 182.711 324.64C182.803 324.893 182.849 325.124 182.849 325.377C182.849 326.044 182.435 326.527 181.63 326.78C179.858 327.286 177.88 327.539 175.672 327.539C170.634 327.539 168.656 325.745 168.656 321.811Z" fill="#1F1F1F"/>
<path d="M144.541 371.544C144.16 371.544 143.928 371.319 143.928 370.961V366.699L143.666 366.841C143.554 366.909 143.442 366.938 143.315 366.938C143.128 366.938 142.941 366.841 142.844 366.662C142.792 366.565 142.762 366.467 142.762 366.385C142.762 366.198 142.874 366.034 143.106 365.892L144.048 365.346L144.092 365.316C144.249 365.219 144.399 365.174 144.548 365.167C144.93 365.167 145.154 365.413 145.154 365.765V370.961C145.154 371.312 144.922 371.544 144.541 371.544Z" fill="#BDBDBD"/>
<path d="M150.237 371.947C149.967 371.858 149.825 371.686 149.825 371.454C149.825 371.402 149.84 371.327 149.863 371.245L151.807 365.279C151.889 365.032 152.083 364.89 152.33 364.89C152.397 364.89 152.472 364.905 152.554 364.927L152.569 364.935C152.838 365.025 152.988 365.197 152.988 365.428C152.988 365.481 152.973 365.555 152.95 365.638L151.007 371.604C150.924 371.85 150.73 371.992 150.483 371.992C150.416 371.992 150.341 371.977 150.259 371.955L150.237 371.947ZM156.75 371.544C156.368 371.544 156.137 371.319 156.137 370.961V366.699L155.875 366.841C155.763 366.909 155.651 366.938 155.524 366.938C155.337 366.938 155.15 366.841 155.053 366.662C155 366.565 154.97 366.467 154.97 366.385C154.97 366.198 155.082 366.034 155.314 365.892L156.256 365.346L156.301 365.316C156.458 365.219 156.608 365.174 156.757 365.167C157.138 365.167 157.363 365.413 157.363 365.765V370.961C157.363 371.312 157.131 371.544 156.75 371.544ZM160.411 371.581C159.028 371.581 158.153 370.377 158.153 368.359C158.153 366.348 159.02 365.137 160.411 365.137C161.786 365.137 162.668 366.355 162.668 368.359C162.668 370.377 161.779 371.581 160.411 371.581ZM159.379 368.359C159.379 369.712 159.76 370.497 160.411 370.497C161.046 370.497 161.442 369.712 161.442 368.359C161.442 367.013 161.046 366.221 160.411 366.221C159.76 366.221 159.379 367.006 159.379 368.359Z" fill="#BDBDBD"/>
</g>
<g filter="url(#filter4_d_1840_8329)">
<rect x="37.3398" y="182.237" width="227.649" height="202.487" rx="15.9288" fill="white" shape-rendering="crispEdges"/>
<path d="M98.0818 250.332C93.9818 250.332 91.2818 247.907 91.2818 244.882C91.2818 242.282 93.2318 240.257 96.2068 239.632C96.1318 239.407 96.0818 239.182 96.0818 238.907V237.882H89.1318C87.7318 237.882 87.0068 237.207 87.0068 236.007C87.0068 234.807 87.7318 234.132 89.1318 234.132H107.132C108.532 234.132 109.257 234.807 109.257 236.007C109.257 237.207 108.532 237.882 107.132 237.882H100.207V238.907C100.207 239.182 100.157 239.432 100.082 239.657C102.982 240.332 104.907 242.357 104.907 244.882C104.907 247.932 102.182 250.332 98.0818 250.332ZM90.5318 227.957C90.5318 226.782 91.2568 226.107 92.6568 226.107H103.182C104.932 226.107 105.807 226.857 105.807 228.357C105.807 230.482 105.632 231.507 105.057 232.807C104.782 233.407 104.182 233.757 103.482 233.757C103.332 233.757 103.107 233.732 102.807 233.657C101.882 233.432 101.332 232.857 101.332 232.157C101.332 231.982 101.357 231.832 101.407 231.657C101.632 230.957 101.707 230.457 101.682 230.182C101.682 229.957 101.507 229.807 101.307 229.807H92.6568C91.2568 229.807 90.5318 229.132 90.5318 227.957ZM95.3568 244.882C95.3568 246.007 96.5318 246.807 98.1318 246.807C99.7068 246.807 100.832 246.007 100.832 244.882C100.832 243.757 99.7068 242.932 98.1318 242.932C96.5318 242.932 95.3568 243.757 95.3568 244.882ZM121.593 250.332C117.343 250.332 114.793 248.257 114.793 245.257C114.793 242.832 116.518 240.957 119.593 240.382V239.232H112.643C111.243 239.232 110.518 238.557 110.518 237.457C110.518 236.357 111.243 235.682 112.643 235.682H130.643C132.043 235.682 132.768 236.357 132.768 237.457C132.768 238.557 132.043 239.232 130.643 239.232H123.718V240.407C126.718 241.007 128.418 242.857 128.418 245.257C128.418 248.257 125.843 250.332 121.593 250.332ZM112.893 233.432C112.893 232.657 113.493 232.032 114.318 231.832C115.893 231.457 117.093 231.082 117.943 230.732C118.768 230.407 119.268 229.982 119.393 229.507H115.418C114.193 229.507 113.418 228.832 113.418 227.732C113.418 226.607 114.293 225.957 115.418 225.957H127.418C128.543 225.957 129.418 226.607 129.418 227.732C129.418 228.857 128.543 229.507 127.418 229.507H123.518C123.493 229.782 123.443 229.982 123.418 230.132C125.718 230.732 127.493 231.307 128.768 231.857C129.468 232.132 129.868 232.732 129.868 233.407C129.868 233.807 129.743 234.182 129.493 234.532C129.168 235.007 128.693 235.232 128.018 235.232C127.668 235.232 127.268 235.157 126.818 235.007C124.368 234.107 122.443 233.482 121.043 233.157C119.618 234.082 117.743 234.757 115.468 235.182C115.268 235.207 115.068 235.207 114.868 235.232C113.993 235.232 113.418 234.907 113.093 234.282C112.968 234.007 112.893 233.732 112.893 233.432ZM118.868 245.257C118.868 246.157 119.968 246.807 121.643 246.807C123.268 246.807 124.343 246.157 124.343 245.257C124.343 244.357 123.268 243.682 121.643 243.682C119.968 243.682 118.868 244.357 118.868 245.257ZM151.109 250.332C146.934 250.332 144.309 248.207 144.309 245.257C144.309 242.757 146.134 240.957 149.109 240.382V239.132H142.159C140.759 239.132 140.034 238.457 140.034 237.357C140.034 236.257 140.759 235.582 142.159 235.582H160.159C161.559 235.582 162.284 236.257 162.284 237.357C162.284 238.457 161.559 239.132 160.159 239.132H153.234V240.407C156.159 240.982 157.934 242.782 157.934 245.257C157.934 248.182 155.309 250.332 151.109 250.332ZM142.534 233.382C142.534 232.657 142.959 232.007 143.734 231.782C147.459 230.482 149.059 229.407 149.134 227.507C149.159 226.307 149.984 225.657 151.109 225.657H151.209C152.334 225.657 153.209 226.332 153.209 227.532C153.209 228.207 153.109 228.832 152.909 229.407C155.284 230.332 157.084 231.157 158.259 231.832C158.934 232.207 159.259 232.707 159.259 233.332C159.259 233.707 159.109 234.107 158.834 234.482C158.509 234.907 158.059 235.132 157.434 235.132C157.059 235.132 156.684 235.032 156.309 234.857C154.834 234.132 152.334 233.007 150.734 232.382C149.534 233.357 147.784 234.207 145.459 234.982C145.034 235.107 144.659 235.182 144.359 235.182C143.759 235.182 143.284 234.957 142.934 234.532C142.659 234.207 142.534 233.807 142.534 233.382ZM148.384 245.257C148.384 246.182 149.484 246.807 151.159 246.807C152.784 246.807 153.859 246.182 153.859 245.257C153.859 244.332 152.784 243.682 151.159 243.682C149.484 243.682 148.384 244.282 148.384 245.257ZM174.62 250.332C170.37 250.332 167.82 248.207 167.82 245.132C167.82 243.657 168.445 242.357 169.57 241.432C168.97 241.107 168.67 240.557 168.67 239.782V238.807H165.67C164.27 238.807 163.545 238.132 163.545 237.032C163.545 235.932 164.27 235.257 165.67 235.257H183.67C185.07 235.257 185.795 235.932 185.795 237.032C185.795 238.132 185.07 238.807 183.67 238.807H180.545V239.782C180.545 240.557 180.245 241.107 179.67 241.407C180.845 242.332 181.445 243.632 181.445 245.132C181.445 248.207 178.895 250.332 174.62 250.332ZM167.17 228.232V227.632C167.17 226.432 167.945 225.757 169.17 225.757H169.295C170.52 225.757 171.295 226.432 171.295 227.632V228.157C171.295 229.982 172.17 230.682 174.795 230.682C176.77 230.682 178.545 230.457 180.12 230.007C180.395 229.932 180.645 229.882 180.845 229.882C181.62 229.882 182.22 230.307 182.445 231.082C182.545 231.357 182.595 231.607 182.595 231.882C182.595 232.607 182.145 233.132 181.27 233.407C179.345 233.957 177.195 234.232 174.795 234.232C169.37 234.232 167.17 232.432 167.17 228.232ZM171.895 245.132C171.895 246.157 172.97 246.807 174.67 246.807C176.345 246.807 177.37 246.157 177.37 245.132C177.37 244.107 176.295 243.432 174.67 243.432C172.97 243.432 171.895 244.107 171.895 245.132ZM172.77 240.107C173.345 240.007 173.97 239.957 174.62 239.957C175.27 239.957 175.87 240.007 176.445 240.107C176.42 240.032 176.42 239.932 176.42 239.782V238.807H172.795V239.782C172.795 239.932 172.795 240.032 172.77 240.107ZM204.137 250.332C199.887 250.332 197.337 248.257 197.337 245.257C197.337 242.832 199.062 240.957 202.137 240.382V239.232H195.187C193.787 239.232 193.062 238.557 193.062 237.457C193.062 236.357 193.787 235.682 195.187 235.682H213.187C214.587 235.682 215.312 236.357 215.312 237.457C215.312 238.557 214.587 239.232 213.187 239.232H206.262V240.407C209.262 241.007 210.962 242.857 210.962 245.257C210.962 248.257 208.387 250.332 204.137 250.332ZM195.437 233.432C195.437 232.657 196.037 232.032 196.862 231.832C198.437 231.457 199.637 231.082 200.487 230.732C201.312 230.407 201.812 229.982 201.937 229.507H197.962C196.737 229.507 195.962 228.832 195.962 227.732C195.962 226.607 196.837 225.957 197.962 225.957H209.962C211.087 225.957 211.962 226.607 211.962 227.732C211.962 228.857 211.087 229.507 209.962 229.507H206.062C206.037 229.782 205.987 229.982 205.962 230.132C208.262 230.732 210.037 231.307 211.312 231.857C212.012 232.132 212.412 232.732 212.412 233.407C212.412 233.807 212.287 234.182 212.037 234.532C211.712 235.007 211.237 235.232 210.562 235.232C210.212 235.232 209.812 235.157 209.362 235.007C206.912 234.107 204.987 233.482 203.587 233.157C202.162 234.082 200.287 234.757 198.012 235.182C197.812 235.207 197.612 235.207 197.412 235.232C196.537 235.232 195.962 234.907 195.637 234.282C195.512 234.007 195.437 233.732 195.437 233.432ZM201.412 245.257C201.412 246.157 202.512 246.807 204.187 246.807C205.812 246.807 206.887 246.157 206.887 245.257C206.887 244.357 205.812 243.682 204.187 243.682C202.512 243.682 201.412 244.357 201.412 245.257ZM74.6711 281.882C69.8711 281.882 67.1211 280.682 67.1211 277.782V276.882C67.1211 275.507 67.8211 274.882 69.5211 274.882H77.6461C77.9211 274.882 77.9961 274.807 77.9961 274.582V274.307C77.9961 274.082 77.9211 274.032 77.6461 274.032H68.6211C67.4961 274.032 66.8711 273.382 66.8711 272.407C66.8711 271.432 67.4961 270.782 68.6211 270.782H72.6211V269.782H65.5211C64.2211 269.782 63.4961 269.107 63.4961 268.132C63.4961 267.157 64.2211 266.482 65.5211 266.482H83.7211C85.0211 266.482 85.7461 267.157 85.7461 268.132C85.7461 269.107 85.0211 269.782 83.7211 269.782H76.7461V270.782H79.7961C81.2211 270.782 82.1211 271.607 82.1211 272.882V275.482C82.1211 276.907 81.4961 277.582 79.9961 277.582H71.6211C71.3711 277.582 71.2461 277.707 71.2461 277.932C71.2461 278.157 71.4961 278.332 71.9711 278.457C72.4461 278.582 73.3461 278.632 74.6711 278.632C76.8961 278.632 78.9711 278.432 80.8711 278.032C80.9461 278.007 81.0461 278.007 81.1711 278.007C81.8461 278.007 82.4211 278.457 82.6461 279.182C82.7211 279.457 82.7461 279.657 82.7461 279.782C82.7461 280.457 82.3711 281.032 81.6961 281.157C79.6711 281.682 77.5711 281.882 74.6711 281.882ZM67.1211 260.382V259.532C67.1211 258.332 67.8961 257.657 69.1211 257.657H69.2461C70.4711 257.657 71.2461 258.332 71.2461 259.532V260.207C71.2461 261.682 72.1711 262.332 74.7461 262.332C76.5211 262.332 78.3211 262.107 80.1211 261.632C80.3461 261.582 80.5711 261.557 80.7461 261.557C81.7461 261.557 82.4461 262.232 82.4461 263.357C82.4461 264.157 81.9961 264.732 81.0711 264.957C79.0961 265.407 76.9961 265.632 74.7461 265.632C69.3461 265.632 67.1211 263.857 67.1211 260.382ZM98.1318 268.332C93.7318 268.332 90.9318 266.132 90.9318 263.032C90.9318 259.857 93.9068 257.782 98.1318 257.782C102.357 257.782 105.332 259.857 105.332 263.032C105.332 266.132 102.532 268.332 98.1318 268.332ZM87.0068 271.057C87.0068 269.957 87.7318 269.282 89.1318 269.282H107.132C108.532 269.282 109.257 269.957 109.257 271.057C109.257 272.157 108.532 272.832 107.132 272.832H89.1318C87.7318 272.832 87.0068 272.157 87.0068 271.057ZM90.6318 276.282V275.657C90.6318 274.532 91.4068 273.782 92.6318 273.782H92.7568C93.9818 273.782 94.7568 274.532 94.7568 275.657V276.032C94.7568 276.682 95.0568 277.132 95.6818 277.382C96.3068 277.632 97.2568 277.757 98.5318 277.757C100.357 277.757 102.082 277.457 103.732 276.882C104.032 276.782 104.307 276.732 104.557 276.732C105.282 276.732 105.857 277.157 106.132 277.932C106.257 278.232 106.307 278.532 106.307 278.832C106.307 279.582 105.882 280.132 105.057 280.457C103.307 281.157 101.032 281.507 98.2568 281.507C93.4318 281.507 90.6318 279.657 90.6318 276.282ZM95.0568 263.032C95.0568 264.232 96.3068 265.032 98.1318 265.032C99.9568 265.032 101.207 264.232 101.207 263.032C101.207 261.857 99.9568 261.082 98.1318 261.082C96.3068 261.082 95.0568 261.857 95.0568 263.032ZM127.598 282.332C123.498 282.332 120.798 279.907 120.798 276.882C120.798 274.282 122.748 272.257 125.723 271.632C125.648 271.407 125.598 271.182 125.598 270.907V269.882H118.648C117.248 269.882 116.523 269.207 116.523 268.007C116.523 266.807 117.248 266.132 118.648 266.132H136.648C138.048 266.132 138.773 266.807 138.773 268.007C138.773 269.207 138.048 269.882 136.648 269.882H129.723V270.907C129.723 271.182 129.673 271.432 129.598 271.657C132.498 272.332 134.423 274.357 134.423 276.882C134.423 279.932 131.698 282.332 127.598 282.332ZM120.048 259.957C120.048 258.782 120.773 258.107 122.173 258.107H132.698C134.448 258.107 135.323 258.857 135.323 260.357C135.323 262.482 135.148 263.507 134.573 264.807C134.298 265.407 133.698 265.757 132.998 265.757C132.848 265.757 132.623 265.732 132.323 265.657C131.398 265.432 130.848 264.857 130.848 264.157C130.848 263.982 130.873 263.832 130.923 263.657C131.148 262.957 131.223 262.457 131.198 262.182C131.198 261.957 131.023 261.807 130.823 261.807H122.173C120.773 261.807 120.048 261.132 120.048 259.957ZM124.873 276.882C124.873 278.007 126.048 278.807 127.648 278.807C129.223 278.807 130.348 278.007 130.348 276.882C130.348 275.757 129.223 274.932 127.648 274.932C126.048 274.932 124.873 275.757 124.873 276.882ZM151.109 282.332C146.859 282.332 144.309 280.257 144.309 277.257C144.309 274.832 146.034 272.957 149.109 272.382V271.232H142.159C140.759 271.232 140.034 270.557 140.034 269.457C140.034 268.357 140.759 267.682 142.159 267.682H160.159C161.559 267.682 162.284 268.357 162.284 269.457C162.284 270.557 161.559 271.232 160.159 271.232H153.234V272.407C156.234 273.007 157.934 274.857 157.934 277.257C157.934 280.257 155.359 282.332 151.109 282.332ZM142.409 265.432C142.409 264.657 143.009 264.032 143.834 263.832C145.409 263.457 146.609 263.082 147.459 262.732C148.284 262.407 148.784 261.982 148.909 261.507H144.934C143.709 261.507 142.934 260.832 142.934 259.732C142.934 258.607 143.809 257.957 144.934 257.957H156.934C158.059 257.957 158.934 258.607 158.934 259.732C158.934 260.857 158.059 261.507 156.934 261.507H153.034C153.009 261.782 152.959 261.982 152.934 262.132C155.234 262.732 157.009 263.307 158.284 263.857C158.984 264.132 159.384 264.732 159.384 265.407C159.384 265.807 159.259 266.182 159.009 266.532C158.684 267.007 158.209 267.232 157.534 267.232C157.184 267.232 156.784 267.157 156.334 267.007C153.884 266.107 151.959 265.482 150.559 265.157C149.134 266.082 147.259 266.757 144.984 267.182C144.784 267.207 144.584 267.207 144.384 267.232C143.509 267.232 142.934 266.907 142.609 266.282C142.484 266.007 142.409 265.732 142.409 265.432ZM148.384 277.257C148.384 278.157 149.484 278.807 151.159 278.807C152.784 278.807 153.859 278.157 153.859 277.257C153.859 276.357 152.784 275.682 151.159 275.682C149.484 275.682 148.384 276.357 148.384 277.257ZM180.626 282.332C176.451 282.332 173.826 280.207 173.826 277.257C173.826 274.757 175.651 272.957 178.626 272.382V271.132H171.676C170.276 271.132 169.551 270.457 169.551 269.357C169.551 268.257 170.276 267.582 171.676 267.582H189.676C191.076 267.582 191.801 268.257 191.801 269.357C191.801 270.457 191.076 271.132 189.676 271.132H182.751V272.407C185.676 272.982 187.451 274.782 187.451 277.257C187.451 280.182 184.826 282.332 180.626 282.332ZM172.051 265.382C172.051 264.657 172.476 264.007 173.251 263.782C176.976 262.482 178.576 261.407 178.651 259.507C178.676 258.307 179.501 257.657 180.626 257.657H180.726C181.851 257.657 182.726 258.332 182.726 259.532C182.726 260.207 182.626 260.832 182.426 261.407C184.801 262.332 186.601 263.157 187.776 263.832C188.451 264.207 188.776 264.707 188.776 265.332C188.776 265.707 188.626 266.107 188.351 266.482C188.026 266.907 187.576 267.132 186.951 267.132C186.576 267.132 186.201 267.032 185.826 266.857C184.351 266.132 181.851 265.007 180.251 264.382C179.051 265.357 177.301 266.207 174.976 266.982C174.551 267.107 174.176 267.182 173.876 267.182C173.276 267.182 172.801 266.957 172.451 266.532C172.176 266.207 172.051 265.807 172.051 265.382ZM177.901 277.257C177.901 278.182 179.001 278.807 180.676 278.807C182.301 278.807 183.376 278.182 183.376 277.257C183.376 276.332 182.301 275.682 180.676 275.682C179.001 275.682 177.901 276.282 177.901 277.257ZM204.137 282.332C199.887 282.332 197.337 280.207 197.337 277.132C197.337 275.657 197.962 274.357 199.087 273.432C198.487 273.107 198.187 272.557 198.187 271.782V270.807H195.187C193.787 270.807 193.062 270.132 193.062 269.032C193.062 267.932 193.787 267.257 195.187 267.257H213.187C214.587 267.257 215.312 267.932 215.312 269.032C215.312 270.132 214.587 270.807 213.187 270.807H210.062V271.782C210.062 272.557 209.762 273.107 209.187 273.407C210.362 274.332 210.962 275.632 210.962 277.132C210.962 280.207 208.412 282.332 204.137 282.332ZM196.687 260.232V259.632C196.687 258.432 197.462 257.757 198.687 257.757H198.812C200.037 257.757 200.812 258.432 200.812 259.632V260.157C200.812 261.982 201.687 262.682 204.312 262.682C206.287 262.682 208.062 262.457 209.637 262.007C209.912 261.932 210.162 261.882 210.362 261.882C211.137 261.882 211.737 262.307 211.962 263.082C212.062 263.357 212.112 263.607 212.112 263.882C212.112 264.607 211.662 265.132 210.787 265.407C208.862 265.957 206.712 266.232 204.312 266.232C198.887 266.232 196.687 264.432 196.687 260.232ZM201.412 277.132C201.412 278.157 202.487 278.807 204.187 278.807C205.862 278.807 206.887 278.157 206.887 277.132C206.887 276.107 205.812 275.432 204.187 275.432C202.487 275.432 201.412 276.107 201.412 277.132ZM202.287 272.107C202.862 272.007 203.487 271.957 204.137 271.957C204.787 271.957 205.387 272.007 205.962 272.107C205.937 272.032 205.937 271.932 205.937 271.782V270.807H202.312V271.782C202.312 271.932 202.312 272.032 202.287 272.107ZM227.697 268.332C223.297 268.332 220.497 266.132 220.497 263.032C220.497 259.857 223.472 257.782 227.697 257.782C231.922 257.782 234.897 259.857 234.897 263.032C234.897 266.132 232.097 268.332 227.697 268.332ZM216.572 271.057C216.572 269.957 217.297 269.282 218.697 269.282H236.697C238.097 269.282 238.822 269.957 238.822 271.057C238.822 272.157 238.097 272.832 236.697 272.832H218.697C217.297 272.832 216.572 272.157 216.572 271.057ZM220.197 276.282V275.657C220.197 274.532 220.972 273.782 222.197 273.782H222.322C223.547 273.782 224.322 274.532 224.322 275.657V276.032C224.322 276.682 224.622 277.132 225.247 277.382C225.872 277.632 226.822 277.757 228.097 277.757C229.922 277.757 231.647 277.457 233.297 276.882C233.597 276.782 233.872 276.732 234.122 276.732C234.847 276.732 235.422 277.157 235.697 277.932C235.822 278.232 235.872 278.532 235.872 278.832C235.872 279.582 235.447 280.132 234.622 280.457C232.872 281.157 230.597 281.507 227.822 281.507C222.997 281.507 220.197 279.657 220.197 276.282ZM224.622 263.032C224.622 264.232 225.872 265.032 227.697 265.032C229.522 265.032 230.772 264.232 230.772 263.032C230.772 261.857 229.522 261.082 227.697 261.082C225.872 261.082 224.622 261.857 224.622 263.032ZM124.695 313.882C119.895 313.882 117.145 312.682 117.145 309.782V308.882C117.145 307.507 117.845 306.882 119.545 306.882H127.67C127.945 306.882 128.02 306.807 128.02 306.582V306.307C128.02 306.082 127.945 306.032 127.67 306.032H118.645C117.52 306.032 116.895 305.382 116.895 304.407C116.895 303.432 117.52 302.782 118.645 302.782H129.82C131.245 302.782 132.145 303.607 132.145 304.882V307.482C132.145 308.907 131.52 309.582 130.02 309.582H121.645C121.395 309.582 121.27 309.707 121.27 309.932C121.27 310.157 121.52 310.332 121.995 310.457C122.47 310.582 123.37 310.632 124.695 310.632C126.92 310.632 128.995 310.432 130.895 310.032C130.97 310.007 131.07 310.007 131.195 310.007C131.87 310.007 132.445 310.457 132.67 311.182C132.745 311.457 132.77 311.657 132.77 311.782C132.77 312.457 132.395 313.032 131.72 313.157C129.695 313.682 127.595 313.882 124.695 313.882ZM113.52 300.257C113.52 299.282 114.245 298.607 115.545 298.607H133.745C135.045 298.607 135.77 299.282 135.77 300.257C135.77 301.232 135.045 301.907 133.745 301.907H115.545C114.245 301.907 113.52 301.232 113.52 300.257ZM117.145 292.382V291.532C117.145 290.332 117.92 289.657 119.145 289.657H119.27C120.495 289.657 121.27 290.332 121.27 291.532V292.207C121.27 293.682 122.195 294.332 124.77 294.332C126.545 294.332 128.345 294.107 130.145 293.632C130.37 293.582 130.595 293.557 130.77 293.557C131.77 293.557 132.47 294.232 132.47 295.357C132.47 296.157 132.02 296.732 131.095 296.957C129.12 297.407 127.02 297.632 124.77 297.632C119.37 297.632 117.145 295.857 117.145 292.382ZM159.587 313.782C158.362 313.782 157.587 313.107 157.587 311.907V308.982C157.587 308.707 157.437 308.557 157.162 308.557H148.462C147.162 308.557 146.587 307.807 146.587 306.782C146.587 305.757 147.187 305.007 148.487 305.007H152.112V303.557H145.162C143.762 303.557 143.037 302.882 143.037 301.782C143.037 300.682 143.762 300.007 145.162 300.007H163.162C164.562 300.007 165.287 300.682 165.287 301.782C165.287 302.882 164.562 303.557 163.162 303.557H156.237V305.007H159.412C161.012 305.007 161.712 305.682 161.712 307.257V311.907C161.712 313.107 160.937 313.782 159.712 313.782H159.587ZM146.662 292.607V291.632C146.662 290.432 147.437 289.757 148.662 289.757H148.787C150.012 289.757 150.787 290.432 150.787 291.632V292.532C150.787 294.507 151.687 295.282 154.287 295.282C156.262 295.282 158.037 295.057 159.612 294.607C159.887 294.532 160.137 294.482 160.337 294.482C161.112 294.482 161.712 294.907 161.937 295.682C162.037 295.957 162.087 296.207 162.087 296.482C162.087 297.207 161.637 297.732 160.762 298.007C158.837 298.557 156.687 298.832 154.287 298.832C148.812 298.832 146.662 296.882 146.662 292.607ZM183.098 313.782C181.873 313.782 181.098 313.107 181.098 311.907V308.982C181.098 308.707 180.948 308.557 180.673 308.557H171.973C170.673 308.557 170.098 307.807 170.098 306.782C170.098 305.757 170.698 305.007 171.998 305.007H175.623V303.557H168.673C167.273 303.557 166.548 302.882 166.548 301.782C166.548 300.682 167.273 300.007 168.673 300.007H186.673C188.073 300.007 188.798 300.682 188.798 301.782C188.798 302.882 188.073 303.557 186.673 303.557H179.748V305.007H182.923C184.523 305.007 185.223 305.682 185.223 307.257V311.907C185.223 313.107 184.448 313.782 183.223 313.782H183.098ZM170.173 292.607V291.632C170.173 290.432 170.948 289.757 172.173 289.757H172.298C173.523 289.757 174.298 290.432 174.298 291.632V292.532C174.298 294.507 175.198 295.282 177.798 295.282C179.773 295.282 181.548 295.057 183.123 294.607C183.398 294.532 183.648 294.482 183.848 294.482C184.623 294.482 185.223 294.907 185.448 295.682C185.548 295.957 185.598 296.207 185.598 296.482C185.598 297.207 185.148 297.732 184.273 298.007C182.348 298.557 180.198 298.832 177.798 298.832C172.323 298.832 170.173 296.882 170.173 292.607Z" fill="#1F1F1F"/>
<path d="M145.184 366.947C144.803 366.947 144.555 366.714 144.555 366.341V365.402H142.404C142.008 365.402 141.759 365.184 141.759 364.835C141.759 364.664 141.806 364.501 141.891 364.346L144.547 360.704C144.734 360.447 144.912 360.323 145.199 360.323C145.572 360.323 145.813 360.548 145.813 360.921V364.268H146.155C146.535 364.268 146.807 364.501 146.807 364.843C146.807 365.176 146.551 365.402 146.155 365.402H145.813V366.341C145.813 366.706 145.564 366.947 145.184 366.947ZM143.351 364.268H144.563V363.491C144.563 363.134 144.578 362.777 144.617 362.412C144.493 362.629 144.291 362.932 144.019 363.321L143.351 364.268Z" fill="#BDBDBD"/>
<path d="M150.199 367.366C149.919 367.273 149.772 367.094 149.772 366.854C149.772 366.799 149.787 366.722 149.81 366.636L151.829 360.44C151.915 360.183 152.117 360.036 152.373 360.036C152.443 360.036 152.521 360.051 152.606 360.075L152.621 360.082C152.901 360.176 153.056 360.354 153.056 360.595C153.056 360.649 153.041 360.727 153.018 360.812L150.999 367.009C150.913 367.265 150.711 367.413 150.455 367.413C150.385 367.413 150.307 367.397 150.222 367.374L150.199 367.366ZM156.964 366.947C156.568 366.947 156.327 366.714 156.327 366.341V361.915L156.055 362.063C155.939 362.132 155.822 362.164 155.69 362.164C155.496 362.164 155.302 362.063 155.201 361.876C155.147 361.775 155.115 361.674 155.115 361.589C155.115 361.395 155.232 361.224 155.473 361.076L156.451 360.51L156.498 360.478C156.661 360.378 156.816 360.331 156.971 360.323C157.367 360.323 157.6 360.579 157.6 360.944V366.341C157.6 366.706 157.36 366.947 156.964 366.947ZM160.766 366.986C159.33 366.986 158.421 365.736 158.421 363.639C158.421 361.55 159.322 360.292 160.766 360.292C162.195 360.292 163.111 361.558 163.111 363.639C163.111 365.736 162.187 366.986 160.766 366.986ZM159.695 363.639C159.695 365.044 160.091 365.86 160.766 365.86C161.426 365.86 161.838 365.044 161.838 363.639C161.838 362.241 161.426 361.418 160.766 361.418C160.091 361.418 159.695 362.233 159.695 363.639Z" fill="#BDBDBD"/>
</g>
<defs>
<filter id="filter0_d_1840_8329" x="24.0658" y="111.305" width="254.223" height="74.3342" filterUnits="userSpaceOnUse" color-interpolation-filters="sRGB">
<feFlood flood-opacity="0" result="BackgroundImageFix"/>
<feColorMatrix in="SourceAlpha" type="matrix" values="0 0 0 0 0 0 0 0 0 0 0 0 0 0 0 0 0 0 127 0" result="hardAlpha"/>
<feOffset/>
<feGaussianBlur stdDeviation="6.63701"/>
<feComposite in2="hardAlpha" operator="out"/>
<feColorMatrix type="matrix" values="0 0 0 0 0 0 0 0 0 0 0 0 0 0 0 0 0 0 0.05 0"/>
<feBlend mode="normal" in2="BackgroundImageFix" result="effect1_dropShadow_1840_8329"/>
<feBlend mode="normal" in="SourceGraphic" in2="effect1_dropShadow_1840_8329" result="shape"/>
</filter>
<filter id="filter1_d_1840_8329" x="32.5596" y="398.327" width="119.392" height="57.3399" filterUnits="userSpaceOnUse" color-interpolation-filters="sRGB">
<feFlood flood-opacity="0" result="BackgroundImageFix"/>
<feColorMatrix in="SourceAlpha" type="matrix" values="0 0 0 0 0 0 0 0 0 0 0 0 0 0 0 0 0 0 127 0" result="hardAlpha"/>
<feOffset/>
<feGaussianBlur stdDeviation="2.38916"/>
<feComposite in2="hardAlpha" operator="out"/>
<feColorMatrix type="matrix" values="0 0 0 0 0 0 0 0 0 0 0 0 0 0 0 0 0 0 0.06 0"/>
<feBlend mode="normal" in2="BackgroundImageFix" result="effect1_dropShadow_1840_8329"/>
<feBlend mode="normal" in="SourceGraphic" in2="effect1_dropShadow_1840_8329" result="shape"/>
</filter>
<filter id="filter2_d_1840_8329" x="150.359" y="398.327" width="119.392" height="57.3399" filterUnits="userSpaceOnUse" color-interpolation-filters="sRGB">
<feFlood flood-opacity="0" result="BackgroundImageFix"/>
<feColorMatrix in="SourceAlpha" type="matrix" values="0 0 0 0 0 0 0 0 0 0 0 0 0 0 0 0 0 0 127 0" result="hardAlpha"/>
<feOffset/>
<feGaussianBlur stdDeviation="2.38916"/>
<feComposite in2="hardAlpha" operator="out"/>
<feColorMatrix type="matrix" values="0 0 0 0 0 0 0 0 0 0 0 0 0 0 0 0 0 0 0.06 0"/>
<feBlend mode="normal" in2="BackgroundImageFix" result="effect1_dropShadow_1840_8329"/>
<feBlend mode="normal" in="SourceGraphic" in2="effect1_dropShadow_1840_8329" result="shape"/>
</filter>
<filter id="filter3_d_1840_8329" x="30.1742" y="186.563" width="241.983" height="218.951" filterUnits="userSpaceOnUse" color-interpolation-filters="sRGB">
<feFlood flood-opacity="0" result="BackgroundImageFix"/>
<feColorMatrix in="SourceAlpha" type="matrix" values="0 0 0 0 0 0 0 0 0 0 0 0 0 0 0 0 0 0 127 0" result="hardAlpha"/>
<feOffset dy="2.85147"/>
<feGaussianBlur stdDeviation="5.70295"/>
<feComposite in2="hardAlpha" operator="out"/>
<feColorMatrix type="matrix" values="0 0 0 0 0 0 0 0 0 0 0 0 0 0 0 0 0 0 0.1 0"/>
<feBlend mode="normal" in2="BackgroundImageFix" result="effect1_dropShadow_1840_8329"/>
<feBlend mode="normal" in="SourceGraphic" in2="effect1_dropShadow_1840_8329" result="shape"/>
</filter>
<filter id="filter4_d_1840_8329" x="25.4927" y="173.352" width="251.344" height="226.181" filterUnits="userSpaceOnUse" color-interpolation-filters="sRGB">
<feFlood flood-opacity="0" result="BackgroundImageFix"/>
<feColorMatrix in="SourceAlpha" type="matrix" values="0 0 0 0 0 0 0 0 0 0 0 0 0 0 0 0 0 0 127 0" result="hardAlpha"/>
<feOffset dy="2.96177"/>
<feGaussianBlur stdDeviation="5.92355"/>
<feComposite in2="hardAlpha" operator="out"/>
<feColorMatrix type="matrix" values="0 0 0 0 0 0 0 0 0 0 0 0 0 0 0 0 0 0 0.1 0"/>
<feBlend mode="normal" in2="BackgroundImageFix" result="effect1_dropShadow_1840_8329"/>
<feBlend mode="normal" in="SourceGraphic" in2="effect1_dropShadow_1840_8329" result="shape"/>
</filter>
<linearGradient id="paint0_linear_1840_8329" x1="62.3673" y1="173.535" x2="62.3673" y2="185.228" gradientUnits="userSpaceOnUse">
<stop offset="0.496302" stop-color="#FFBBD9"/>
<stop offset="1" stop-color="#E58EA3"/>
</linearGradient>
<linearGradient id="paint1_linear_1840_8329" x1="62.156" y1="168.432" x2="62.156" y2="176.2" gradientUnits="userSpaceOnUse">
<stop offset="0.496302" stop-color="#FAA9C8"/>
<stop offset="1" stop-color="#DA82A4"/>
</linearGradient>
<radialGradient id="paint2_radial_1840_8329" cx="0" cy="0" r="1" gradientUnits="userSpaceOnUse" gradientTransform="translate(39.5307 146.952) rotate(32.0054) scale(47.7608 36.9128)">
<stop stop-color="#DA82A4"/>
<stop offset="0.503698" stop-color="#FAA9C8"/>
</radialGradient>
<radialGradient id="paint3_radial_1840_8329" cx="0" cy="0" r="1" gradientUnits="userSpaceOnUse" gradientTransform="translate(48.7239 178.13) rotate(6.08406) scale(30.0094 25.3694)">
<stop stop-color="#DA82A4"/>
<stop offset="0.609948" stop-color="#FAA9C8"/>
</radialGradient>
<linearGradient id="paint4_linear_1840_8329" x1="92.2555" y1="403.105" x2="92.2555" y2="450.889" gradientUnits="userSpaceOnUse">
<stop stop-color="#666666"/>
<stop offset="1" stop-color="#4A4A4A"/>
</linearGradient>
<linearGradient id="paint5_linear_1840_8329" x1="210.055" y1="403.105" x2="210.055" y2="450.889" gradientUnits="userSpaceOnUse">
<stop stop-color="#FF99C0"/>
<stop offset="1" stop-color="#ED5890"/>
</linearGradient>
<clipPath id="clip0_1840_8329">
<rect x="45.3047" y="132.544" width="31.8576" height="31.8576" rx="15.9288" fill="white"/>
</clipPath>
</defs>
</svg>
