<svg width="148" height="212" viewBox="0 0 148 212" fill="none" xmlns="http://www.w3.org/2000/svg">
<g clip-path="url(#clip0_1840_7517)">
<rect width="147.5" height="212" rx="16" fill="#F8FAFA"/>
<rect x="44.75" y="20" width="58" height="28" rx="14" fill="#333333"/>
<path d="M65.9727 28.4258V36.1719H64.4727V28.4258H65.9727ZM62.8555 29.1992C62.8555 32.0938 61.0273 34.1211 57.8047 35.0586L57.2188 33.875C59.6035 33.1895 60.9688 31.9531 61.2266 30.4297H57.8281V29.1992H62.8555ZM66.1953 37.6953V38.8906H58.8477V35.4922H60.3359V37.6953H66.1953ZM79.9531 33.6875V34.8711H75.9336V36.7109H74.457V34.8711H70.1914V33.6875H79.9531ZM78.6992 28.8828V32.8086H71.4102V28.8828H78.6992ZM72.875 30.043V31.6484H77.2344V30.043H72.875ZM78.875 37.6953V38.8906H71.3398V35.7852H72.8281V37.6953H78.875ZM89.1641 29.0352V29.9961C89.1641 30.9922 89.1641 32.082 88.8945 33.5703H90.3008V34.7773H86.1406V39.0898H84.6406V34.7773H80.5742V33.5703H87.3828C87.6523 32.1934 87.6758 31.1504 87.6758 30.2305H81.6875V29.0352H89.1641Z" fill="white"/>
<path d="M41.3135 66.1602V67.2129H30.1436V66.1602H35.0791V64.834H31.6064V60.1992H32.8916V61.5254H38.5654V60.1992H39.8643V64.834H36.3643V66.1602H41.3135ZM39.9463 68.3066V72.1621H38.6338V69.3457H31.3877V68.3066H39.9463ZM32.8916 63.7949H38.5654V62.4961H32.8916V63.7949ZM46.5088 61.9902C46.4951 63.5078 47.6025 64.9297 49.4756 65.5039L48.8604 66.502C47.4453 66.0645 46.4062 65.1484 45.8662 63.9863C45.3262 65.2715 44.2529 66.2764 42.7764 66.7617L42.1201 65.7363C44.0205 65.1211 45.1963 63.6309 45.1963 62.0039V61.7441H42.5166V60.6777H49.1475V61.7441H46.5088V61.9902ZM51.8682 59.9121V62.6738H53.6455V63.7402H51.8682V66.625H50.5693V59.9121H51.8682ZM45.3057 67.1855V68.5664H50.5693V67.1855H51.8682V72.0117H44.0205V67.1855H45.3057ZM45.3057 70.959H50.5693V69.5781H45.3057V70.959ZM63.8857 59.9121V64.875H65.8545V65.9551H63.8857V72.1621H62.6006V59.9121H63.8857ZM61.5342 61.8262V62.8926H54.2744V61.8262H57.2959V60.0762H58.5947V61.8262H61.5342ZM57.9521 63.7949C59.7021 63.7949 60.9873 64.9707 61.001 66.6387C60.9873 68.3203 59.7021 69.4824 57.9521 69.4961C56.1885 69.4824 54.9033 68.3203 54.9033 66.6387C54.9033 64.9707 56.1885 63.7949 57.9521 63.7949ZM57.9521 64.8613C56.9131 64.8613 56.1338 65.5859 56.1475 66.6387C56.1338 67.7051 56.9131 68.416 57.9521 68.4023C58.9912 68.416 59.7568 67.7051 59.7568 66.6387C59.7568 65.5859 58.9912 64.8613 57.9521 64.8613ZM76.3545 61.0879V62.291C76.3545 63.8086 76.3545 65.5039 75.8896 68.0059L74.5771 67.8691C75.0557 65.5039 75.0557 63.7676 75.0557 62.291V62.1406H67.6182V61.0879H76.3545ZM77.6123 69.4277V70.5078H66.4424V69.4277H70.6943V65.1074H71.9795V69.4277H77.6123ZM92.1182 59.9121V66.1465H90.8193V59.9121H92.1182ZM88.4404 60.459C88.4268 63.6719 86.335 65.5723 82.6299 66.3926L82.1514 65.3398C85.2207 64.6973 86.8203 63.3232 87.0186 61.5254H82.7939V60.459H88.4404ZM92.1182 66.6934V69.7695H85.3916V71.0137H92.5283V72.0391H84.1064V68.7988H90.8193V67.7188H84.0654V66.6934H92.1182ZM97.3818 60.8281C99.043 60.8281 100.26 62.2363 100.458 64.5059H102.987V59.9121H104.272V72.1895H102.987V65.5586H100.472C100.328 67.9443 99.084 69.4277 97.3818 69.4277C95.5498 69.4277 94.2646 67.7598 94.2783 65.1211C94.2646 62.4961 95.5498 60.8281 97.3818 60.8281ZM97.3818 61.9902C96.2744 61.9902 95.5088 63.1934 95.5088 65.1211C95.5088 67.0625 96.2744 68.2656 97.3818 68.2656C98.4893 68.2656 99.2549 67.0625 99.2549 65.1211C99.2549 63.1934 98.4893 61.9902 97.3818 61.9902ZM110.575 63.0293C110.575 65.2715 111.833 67.5 113.706 68.3477L112.913 69.3867C111.519 68.6895 110.473 67.3018 109.933 65.627C109.393 67.3906 108.319 68.8809 106.911 69.6191L106.091 68.5664C107.991 67.6641 109.263 65.2988 109.263 63.0293V60.9375H110.575V63.0293ZM116.372 59.9121V72.1895H115.087V65.0391H112.353V63.9863H115.087V59.9121H116.372ZM32.0166 81.8262V82.8926H24.8252V81.8262H27.7783V80.0625H29.1045V81.8262H32.0166ZM28.4482 83.7949C30.1025 83.7949 31.333 84.9707 31.3467 86.6387C31.333 88.3066 30.1025 89.4824 28.4482 89.4961C26.7666 89.4824 25.5498 88.3066 25.5498 86.6387C25.5498 84.9707 26.7666 83.7949 28.4482 83.7949ZM28.4482 84.8887C27.4365 84.9023 26.7119 85.6133 26.7256 86.6387C26.7119 87.6914 27.4365 88.3887 28.4482 88.375C29.4326 88.3887 30.1709 87.6914 30.1709 86.6387C30.1709 85.6133 29.4326 84.9023 28.4482 84.8887ZM35.0244 79.9121V92.1621H33.7393V88.0742H31.8115V87.0215H33.7393V85.0391H31.7979V83.9727H33.7393V79.9121H35.0244ZM46.4541 79.9121V84.793H48.3545V85.873H46.4541V92.1484H45.1553V79.9121H46.4541ZM43.2549 81.1973C43.2412 84.7383 41.6826 87.8965 37.6494 89.8926L36.9248 88.8809C39.9941 87.3496 41.6621 85.1348 41.9287 82.2773H37.54V81.1973H43.2549ZM57.1592 81.1016V81.6074C57.1592 82.6191 57.1592 84.4922 56.3252 87.459L55.0264 87.2539C55.7373 84.9502 55.8535 83.2549 55.874 82.168H53.2764V81.1016H57.1592ZM63.5986 89.3457V90.4121H52.4287V89.3457H57.6104V85.4766H58.8818V89.3457H63.5986ZM62.3682 81.1016V81.9492C62.3682 83.1523 62.3818 84.8613 61.9033 87.418L60.6045 87.2676C61.042 84.9912 61.0693 83.3369 61.083 82.168H58.1162V81.1016H62.3682ZM68.001 80.3223C69.8467 80.3359 71.2002 81.4707 71.2139 83.0703C71.2002 84.6836 69.8467 85.8047 68.001 85.8047C66.1416 85.8047 64.7744 84.6836 64.7744 83.0703C64.7744 81.4707 66.1416 80.3359 68.001 80.3223ZM68.001 81.416C66.8662 81.4023 66.0322 82.0723 66.0459 83.0703C66.0322 84.082 66.8662 84.752 68.001 84.752C69.1221 84.752 69.9561 84.082 69.9561 83.0703C69.9561 82.0723 69.1221 81.4023 68.001 81.416ZM74.6865 79.9121V86.1465H73.3877V79.9121H74.6865ZM74.6865 86.707V89.7969H67.9326V90.9727H75.0967V92.0117H66.6748V88.8262H73.4014V87.7461H66.6338V86.707H74.6865ZM86.3213 80.9922C86.3076 82.6191 88.3037 84.1504 90.71 84.4648L90.2041 85.5312C88.2012 85.21 86.4375 84.1709 85.6514 82.7285C84.8447 84.1777 83.0879 85.21 81.0986 85.5312L80.5791 84.4648C82.9854 84.1504 84.9541 82.6328 84.9678 80.9922V80.3223H86.3213V80.9922ZM91.2158 86.7344V87.8008H86.2393V92.1621H84.9678V87.8008H80.0459V86.7344H91.2158ZM99.8154 88.0059C99.8154 89.0586 100.335 90.1729 101.442 90.8359C102.57 90.1182 103.124 88.9424 103.124 88.0059V87.418H104.396V88.0059C104.396 89.2773 105.229 90.5078 106.829 91.0273L106.187 91.9844C104.977 91.5674 104.156 90.7539 103.726 89.7422C103.336 90.7334 102.604 91.6289 101.483 92.0938C100.308 91.6494 99.5625 90.7812 99.1865 89.7832C98.7422 90.7471 97.9355 91.5605 96.7803 91.9844L96.124 91.0273C97.6963 90.4668 98.5439 89.1953 98.5576 88.0059V87.418H99.8154V88.0059ZM105.722 79.9258V86.8984H104.423V79.9258H105.722ZM99.0771 80.5957C100.95 80.5957 102.331 81.7852 102.331 83.4941C102.331 85.1895 100.95 86.3652 99.0771 86.3652C97.2041 86.3652 95.8096 85.1895 95.8096 83.4941C95.8096 81.7852 97.2041 80.5957 99.0771 80.5957ZM99.0771 81.7031C97.915 81.6895 97.0811 82.4141 97.0811 83.4941C97.0811 84.5605 97.915 85.2852 99.0771 85.2852C100.226 85.2852 101.06 84.5605 101.06 83.4941C101.06 82.4141 100.226 81.6895 99.0771 81.7031ZM110.985 80.8281C112.646 80.8281 113.863 82.2363 114.062 84.5059H116.591V79.9121H117.876V92.1895H116.591V85.5586H114.075C113.932 87.9443 112.688 89.4277 110.985 89.4277C109.153 89.4277 107.868 87.7598 107.882 85.1211C107.868 82.4961 109.153 80.8281 110.985 80.8281ZM110.985 81.9902C109.878 81.9902 109.112 83.1934 109.112 85.1211C109.112 87.0625 109.878 88.2656 110.985 88.2656C112.093 88.2656 112.858 87.0625 112.858 85.1211C112.858 83.1934 112.093 81.9902 110.985 81.9902ZM122.019 81.1016L121.896 88.1426H120.542L120.419 81.1016H122.019ZM121.226 91.0957C120.692 91.0957 120.241 90.6582 120.255 90.125C120.241 89.5918 120.692 89.1543 121.226 89.1543C121.745 89.1543 122.196 89.5918 122.196 90.125C122.196 90.6582 121.745 91.0957 121.226 91.0957Z" fill="#8C8C8C"/>
<g filter="url(#filter0_d_1840_7517)">
<rect x="12" y="112" width="123.5" height="80" rx="12" fill="white"/>
<path d="M45.2837 141.316C42.9877 141.316 41.4757 139.958 41.4757 138.264C41.4757 136.808 42.5677 135.674 44.2337 135.324C44.1917 135.198 44.1637 135.072 44.1637 134.918V134.344H40.2717C39.4877 134.344 39.0817 133.966 39.0817 133.294C39.0817 132.622 39.4877 132.244 40.2717 132.244H50.3517C51.1357 132.244 51.5417 132.622 51.5417 133.294C51.5417 133.966 51.1357 134.344 50.3517 134.344H46.4737V134.918C46.4737 135.072 46.4457 135.212 46.4037 135.338C48.0277 135.716 49.1057 136.85 49.1057 138.264C49.1057 139.972 47.5797 141.316 45.2837 141.316ZM41.0557 128.786C41.0557 128.128 41.4617 127.75 42.2457 127.75H48.1397C49.1197 127.75 49.6097 128.17 49.6097 129.01C49.6097 130.2 49.5117 130.774 49.1897 131.502C49.0357 131.838 48.6997 132.034 48.3077 132.034C48.2237 132.034 48.0977 132.02 47.9297 131.978C47.4117 131.852 47.1037 131.53 47.1037 131.138C47.1037 131.04 47.1177 130.956 47.1457 130.858C47.2717 130.466 47.3137 130.186 47.2997 130.032C47.2997 129.906 47.2017 129.822 47.0897 129.822H42.2457C41.4617 129.822 41.0557 129.444 41.0557 128.786ZM43.7577 138.264C43.7577 138.894 44.4157 139.342 45.3117 139.342C46.1937 139.342 46.8237 138.894 46.8237 138.264C46.8237 137.634 46.1937 137.172 45.3117 137.172C44.4157 137.172 43.7577 137.634 43.7577 138.264ZM58.0297 141.316C55.6497 141.316 54.2217 140.154 54.2217 138.474C54.2217 137.116 55.1877 136.066 56.9097 135.744V135.1H53.0177C52.2337 135.1 51.8277 134.722 51.8277 134.106C51.8277 133.49 52.2337 133.112 53.0177 133.112H63.0977C63.8817 133.112 64.2877 133.49 64.2877 134.106C64.2877 134.722 63.8817 135.1 63.0977 135.1H59.2197V135.758C60.8997 136.094 61.8517 137.13 61.8517 138.474C61.8517 140.154 60.4097 141.316 58.0297 141.316ZM53.1577 131.852C53.1577 131.418 53.4937 131.068 53.9557 130.956C54.8377 130.746 55.5097 130.536 55.9857 130.34C56.4477 130.158 56.7277 129.92 56.7977 129.654H54.5717C53.8857 129.654 53.4517 129.276 53.4517 128.66C53.4517 128.03 53.9417 127.666 54.5717 127.666H61.2917C61.9217 127.666 62.4117 128.03 62.4117 128.66C62.4117 129.29 61.9217 129.654 61.2917 129.654H59.1077C59.0937 129.808 59.0657 129.92 59.0517 130.004C60.3397 130.34 61.3337 130.662 62.0477 130.97C62.4397 131.124 62.6637 131.46 62.6637 131.838C62.6637 132.062 62.5937 132.272 62.4537 132.468C62.2717 132.734 62.0057 132.86 61.6277 132.86C61.4317 132.86 61.2077 132.818 60.9557 132.734C59.5837 132.23 58.5057 131.88 57.7217 131.698C56.9237 132.216 55.8737 132.594 54.5997 132.832C54.4877 132.846 54.3757 132.846 54.2637 132.86C53.7737 132.86 53.4517 132.678 53.2697 132.328C53.1997 132.174 53.1577 132.02 53.1577 131.852ZM56.5037 138.474C56.5037 138.978 57.1197 139.342 58.0577 139.342C58.9677 139.342 59.5697 138.978 59.5697 138.474C59.5697 137.97 58.9677 137.592 58.0577 137.592C57.1197 137.592 56.5037 137.97 56.5037 138.474ZM73.719 141.316C71.381 141.316 69.911 140.126 69.911 138.474C69.911 137.074 70.933 136.066 72.599 135.744V135.044H68.707C67.923 135.044 67.517 134.666 67.517 134.05C67.517 133.434 67.923 133.056 68.707 133.056H78.787C79.571 133.056 79.977 133.434 79.977 134.05C79.977 134.666 79.571 135.044 78.787 135.044H74.909V135.758C76.547 136.08 77.541 137.088 77.541 138.474C77.541 140.112 76.071 141.316 73.719 141.316ZM68.917 131.824C68.917 131.418 69.155 131.054 69.589 130.928C71.675 130.2 72.571 129.598 72.613 128.534C72.627 127.862 73.089 127.498 73.719 127.498H73.775C74.405 127.498 74.895 127.876 74.895 128.548C74.895 128.926 74.839 129.276 74.727 129.598C76.057 130.116 77.065 130.578 77.723 130.956C78.101 131.166 78.283 131.446 78.283 131.796C78.283 132.006 78.199 132.23 78.045 132.44C77.863 132.678 77.611 132.804 77.261 132.804C77.051 132.804 76.841 132.748 76.631 132.65C75.805 132.244 74.405 131.614 73.509 131.264C72.837 131.81 71.857 132.286 70.555 132.72C70.317 132.79 70.107 132.832 69.939 132.832C69.603 132.832 69.337 132.706 69.141 132.468C68.987 132.286 68.917 132.062 68.917 131.824ZM72.193 138.474C72.193 138.992 72.809 139.342 73.747 139.342C74.657 139.342 75.259 138.992 75.259 138.474C75.259 137.956 74.657 137.592 73.747 137.592C72.809 137.592 72.193 137.928 72.193 138.474ZM86.465 141.316C84.085 141.316 82.657 140.126 82.657 138.404C82.657 137.578 83.007 136.85 83.637 136.332C83.301 136.15 83.133 135.842 83.133 135.408V134.862H81.453C80.669 134.862 80.263 134.484 80.263 133.868C80.263 133.252 80.669 132.874 81.453 132.874H91.533C92.317 132.874 92.723 133.252 92.723 133.868C92.723 134.484 92.317 134.862 91.533 134.862H89.783V135.408C89.783 135.842 89.615 136.15 89.293 136.318C89.951 136.836 90.287 137.564 90.287 138.404C90.287 140.126 88.859 141.316 86.465 141.316ZM82.293 128.94V128.604C82.293 127.932 82.727 127.554 83.413 127.554H83.483C84.169 127.554 84.603 127.932 84.603 128.604V128.898C84.603 129.92 85.093 130.312 86.563 130.312C87.669 130.312 88.663 130.186 89.545 129.934C89.699 129.892 89.839 129.864 89.951 129.864C90.385 129.864 90.721 130.102 90.847 130.536C90.903 130.69 90.931 130.83 90.931 130.984C90.931 131.39 90.679 131.684 90.189 131.838C89.111 132.146 87.907 132.3 86.563 132.3C83.525 132.3 82.293 131.292 82.293 128.94ZM84.939 138.404C84.939 138.978 85.541 139.342 86.493 139.342C87.431 139.342 88.005 138.978 88.005 138.404C88.005 137.83 87.403 137.452 86.493 137.452C85.541 137.452 84.939 137.83 84.939 138.404ZM85.429 135.59C85.751 135.534 86.101 135.506 86.465 135.506C86.829 135.506 87.165 135.534 87.487 135.59C87.473 135.548 87.473 135.492 87.473 135.408V134.862H85.443V135.408C85.443 135.492 85.443 135.548 85.429 135.59ZM102.154 141.316C99.7743 141.316 98.3463 140.154 98.3463 138.474C98.3463 137.116 99.3123 136.066 101.034 135.744V135.1H97.1423C96.3583 135.1 95.9523 134.722 95.9523 134.106C95.9523 133.49 96.3583 133.112 97.1423 133.112H107.222C108.006 133.112 108.412 133.49 108.412 134.106C108.412 134.722 108.006 135.1 107.222 135.1H103.344V135.758C105.024 136.094 105.976 137.13 105.976 138.474C105.976 140.154 104.534 141.316 102.154 141.316ZM97.2823 131.852C97.2823 131.418 97.6183 131.068 98.0803 130.956C98.9623 130.746 99.6343 130.536 100.11 130.34C100.572 130.158 100.852 129.92 100.922 129.654H98.6963C98.0103 129.654 97.5763 129.276 97.5763 128.66C97.5763 128.03 98.0663 127.666 98.6963 127.666H105.416C106.046 127.666 106.536 128.03 106.536 128.66C106.536 129.29 106.046 129.654 105.416 129.654H103.232C103.218 129.808 103.19 129.92 103.176 130.004C104.464 130.34 105.458 130.662 106.172 130.97C106.564 131.124 106.788 131.46 106.788 131.838C106.788 132.062 106.718 132.272 106.578 132.468C106.396 132.734 106.13 132.86 105.752 132.86C105.556 132.86 105.332 132.818 105.08 132.734C103.708 132.23 102.63 131.88 101.846 131.698C101.048 132.216 99.9983 132.594 98.7243 132.832C98.6123 132.846 98.5003 132.846 98.3883 132.86C97.8983 132.86 97.5763 132.678 97.3943 132.328C97.3243 132.174 97.2823 132.02 97.2823 131.852ZM100.628 138.474C100.628 138.978 101.244 139.342 102.182 139.342C103.092 139.342 103.694 138.978 103.694 138.474C103.694 137.97 103.092 137.592 102.182 137.592C101.244 137.592 100.628 137.97 100.628 138.474ZM32.5937 159.064C29.9057 159.064 28.3657 158.392 28.3657 156.768V156.264C28.3657 155.494 28.7577 155.144 29.7097 155.144H34.2597C34.4137 155.144 34.4557 155.102 34.4557 154.976V154.822C34.4557 154.696 34.4137 154.668 34.2597 154.668H29.2057C28.5757 154.668 28.2257 154.304 28.2257 153.758C28.2257 153.212 28.5757 152.848 29.2057 152.848H31.4457V152.288H27.4697C26.7417 152.288 26.3357 151.91 26.3357 151.364C26.3357 150.818 26.7417 150.44 27.4697 150.44H37.6617C38.3897 150.44 38.7957 150.818 38.7957 151.364C38.7957 151.91 38.3897 152.288 37.6617 152.288H33.7557V152.848H35.4637C36.2617 152.848 36.7657 153.31 36.7657 154.024V155.48C36.7657 156.278 36.4157 156.656 35.5757 156.656H30.8857C30.7457 156.656 30.6757 156.726 30.6757 156.852C30.6757 156.978 30.8157 157.076 31.0817 157.146C31.3477 157.216 31.8517 157.244 32.5937 157.244C33.8397 157.244 35.0017 157.132 36.0657 156.908C36.1077 156.894 36.1637 156.894 36.2337 156.894C36.6117 156.894 36.9337 157.146 37.0597 157.552C37.1017 157.706 37.1157 157.818 37.1157 157.888C37.1157 158.266 36.9057 158.588 36.5277 158.658C35.3937 158.952 34.2177 159.064 32.5937 159.064ZM28.3657 147.024V146.548C28.3657 145.876 28.7997 145.498 29.4857 145.498H29.5557C30.2417 145.498 30.6757 145.876 30.6757 146.548V146.926C30.6757 147.752 31.1937 148.116 32.6357 148.116C33.6297 148.116 34.6377 147.99 35.6457 147.724C35.7717 147.696 35.8977 147.682 35.9957 147.682C36.5557 147.682 36.9477 148.06 36.9477 148.69C36.9477 149.138 36.6957 149.46 36.1777 149.586C35.0717 149.838 33.8957 149.964 32.6357 149.964C29.6117 149.964 28.3657 148.97 28.3657 147.024ZM45.3117 151.476C42.8477 151.476 41.2797 150.244 41.2797 148.508C41.2797 146.73 42.9457 145.568 45.3117 145.568C47.6777 145.568 49.3437 146.73 49.3437 148.508C49.3437 150.244 47.7757 151.476 45.3117 151.476ZM39.0817 153.002C39.0817 152.386 39.4877 152.008 40.2717 152.008H50.3517C51.1357 152.008 51.5417 152.386 51.5417 153.002C51.5417 153.618 51.1357 153.996 50.3517 153.996H40.2717C39.4877 153.996 39.0817 153.618 39.0817 153.002ZM41.1117 155.928V155.578C41.1117 154.948 41.5457 154.528 42.2317 154.528H42.3017C42.9877 154.528 43.4217 154.948 43.4217 155.578V155.788C43.4217 156.152 43.5897 156.404 43.9397 156.544C44.2897 156.684 44.8217 156.754 45.5357 156.754C46.5577 156.754 47.5237 156.586 48.4477 156.264C48.6157 156.208 48.7697 156.18 48.9097 156.18C49.3157 156.18 49.6377 156.418 49.7917 156.852C49.8617 157.02 49.8897 157.188 49.8897 157.356C49.8897 157.776 49.6517 158.084 49.1897 158.266C48.2097 158.658 46.9357 158.854 45.3817 158.854C42.6797 158.854 41.1117 157.818 41.1117 155.928ZM43.5897 148.508C43.5897 149.18 44.2897 149.628 45.3117 149.628C46.3337 149.628 47.0337 149.18 47.0337 148.508C47.0337 147.85 46.3337 147.416 45.3117 147.416C44.2897 147.416 43.5897 147.85 43.5897 148.508ZM60.973 159.316C58.677 159.316 57.165 157.958 57.165 156.264C57.165 154.808 58.257 153.674 59.923 153.324C59.881 153.198 59.853 153.072 59.853 152.918V152.344H55.961C55.177 152.344 54.771 151.966 54.771 151.294C54.771 150.622 55.177 150.244 55.961 150.244H66.041C66.825 150.244 67.231 150.622 67.231 151.294C67.231 151.966 66.825 152.344 66.041 152.344H62.163V152.918C62.163 153.072 62.135 153.212 62.093 153.338C63.717 153.716 64.795 154.85 64.795 156.264C64.795 157.972 63.269 159.316 60.973 159.316ZM56.745 146.786C56.745 146.128 57.151 145.75 57.935 145.75H63.829C64.809 145.75 65.299 146.17 65.299 147.01C65.299 148.2 65.201 148.774 64.879 149.502C64.725 149.838 64.389 150.034 63.997 150.034C63.913 150.034 63.787 150.02 63.619 149.978C63.101 149.852 62.793 149.53 62.793 149.138C62.793 149.04 62.807 148.956 62.835 148.858C62.961 148.466 63.003 148.186 62.989 148.032C62.989 147.906 62.891 147.822 62.779 147.822H57.935C57.151 147.822 56.745 147.444 56.745 146.786ZM59.447 156.264C59.447 156.894 60.105 157.342 61.001 157.342C61.883 157.342 62.513 156.894 62.513 156.264C62.513 155.634 61.883 155.172 61.001 155.172C60.105 155.172 59.447 155.634 59.447 156.264ZM73.719 159.316C71.339 159.316 69.911 158.154 69.911 156.474C69.911 155.116 70.877 154.066 72.599 153.744V153.1H68.707C67.923 153.1 67.517 152.722 67.517 152.106C67.517 151.49 67.923 151.112 68.707 151.112H78.787C79.571 151.112 79.977 151.49 79.977 152.106C79.977 152.722 79.571 153.1 78.787 153.1H74.909V153.758C76.589 154.094 77.541 155.13 77.541 156.474C77.541 158.154 76.099 159.316 73.719 159.316ZM68.847 149.852C68.847 149.418 69.183 149.068 69.645 148.956C70.527 148.746 71.199 148.536 71.675 148.34C72.137 148.158 72.417 147.92 72.487 147.654H70.261C69.575 147.654 69.141 147.276 69.141 146.66C69.141 146.03 69.631 145.666 70.261 145.666H76.981C77.611 145.666 78.101 146.03 78.101 146.66C78.101 147.29 77.611 147.654 76.981 147.654H74.797C74.783 147.808 74.755 147.92 74.741 148.004C76.029 148.34 77.023 148.662 77.737 148.97C78.129 149.124 78.353 149.46 78.353 149.838C78.353 150.062 78.283 150.272 78.143 150.468C77.961 150.734 77.695 150.86 77.317 150.86C77.121 150.86 76.897 150.818 76.645 150.734C75.273 150.23 74.195 149.88 73.411 149.698C72.613 150.216 71.563 150.594 70.289 150.832C70.177 150.846 70.065 150.846 69.953 150.86C69.463 150.86 69.141 150.678 68.959 150.328C68.889 150.174 68.847 150.02 68.847 149.852ZM72.193 156.474C72.193 156.978 72.809 157.342 73.747 157.342C74.657 157.342 75.259 156.978 75.259 156.474C75.259 155.97 74.657 155.592 73.747 155.592C72.809 155.592 72.193 155.97 72.193 156.474ZM89.4083 159.316C87.0703 159.316 85.6003 158.126 85.6003 156.474C85.6003 155.074 86.6223 154.066 88.2883 153.744V153.044H84.3963C83.6123 153.044 83.2063 152.666 83.2063 152.05C83.2063 151.434 83.6123 151.056 84.3963 151.056H94.4763C95.2603 151.056 95.6663 151.434 95.6663 152.05C95.6663 152.666 95.2603 153.044 94.4763 153.044H90.5983V153.758C92.2363 154.08 93.2303 155.088 93.2303 156.474C93.2303 158.112 91.7603 159.316 89.4083 159.316ZM84.6063 149.824C84.6063 149.418 84.8443 149.054 85.2783 148.928C87.3643 148.2 88.2603 147.598 88.3023 146.534C88.3163 145.862 88.7783 145.498 89.4083 145.498H89.4643C90.0943 145.498 90.5843 145.876 90.5843 146.548C90.5843 146.926 90.5283 147.276 90.4163 147.598C91.7463 148.116 92.7543 148.578 93.4123 148.956C93.7903 149.166 93.9723 149.446 93.9723 149.796C93.9723 150.006 93.8883 150.23 93.7343 150.44C93.5523 150.678 93.3003 150.804 92.9503 150.804C92.7403 150.804 92.5303 150.748 92.3203 150.65C91.4943 150.244 90.0943 149.614 89.1983 149.264C88.5263 149.81 87.5463 150.286 86.2443 150.72C86.0063 150.79 85.7963 150.832 85.6283 150.832C85.2923 150.832 85.0263 150.706 84.8303 150.468C84.6763 150.286 84.6063 150.062 84.6063 149.824ZM87.8823 156.474C87.8823 156.992 88.4983 157.342 89.4363 157.342C90.3463 157.342 90.9483 156.992 90.9483 156.474C90.9483 155.956 90.3463 155.592 89.4363 155.592C88.4983 155.592 87.8823 155.928 87.8823 156.474ZM102.154 159.316C99.7743 159.316 98.3463 158.126 98.3463 156.404C98.3463 155.578 98.6963 154.85 99.3263 154.332C98.9903 154.15 98.8223 153.842 98.8223 153.408V152.862H97.1423C96.3583 152.862 95.9523 152.484 95.9523 151.868C95.9523 151.252 96.3583 150.874 97.1423 150.874H107.222C108.006 150.874 108.412 151.252 108.412 151.868C108.412 152.484 108.006 152.862 107.222 152.862H105.472V153.408C105.472 153.842 105.304 154.15 104.982 154.318C105.64 154.836 105.976 155.564 105.976 156.404C105.976 158.126 104.548 159.316 102.154 159.316ZM97.9823 146.94V146.604C97.9823 145.932 98.4163 145.554 99.1023 145.554H99.1723C99.8583 145.554 100.292 145.932 100.292 146.604V146.898C100.292 147.92 100.782 148.312 102.252 148.312C103.358 148.312 104.352 148.186 105.234 147.934C105.388 147.892 105.528 147.864 105.64 147.864C106.074 147.864 106.41 148.102 106.536 148.536C106.592 148.69 106.62 148.83 106.62 148.984C106.62 149.39 106.368 149.684 105.878 149.838C104.8 150.146 103.596 150.3 102.252 150.3C99.2143 150.3 97.9823 149.292 97.9823 146.94ZM100.628 156.404C100.628 156.978 101.23 157.342 102.182 157.342C103.12 157.342 103.694 156.978 103.694 156.404C103.694 155.83 103.092 155.452 102.182 155.452C101.23 155.452 100.628 155.83 100.628 156.404ZM101.118 153.59C101.44 153.534 101.79 153.506 102.154 153.506C102.518 153.506 102.854 153.534 103.176 153.59C103.162 153.548 103.162 153.492 103.162 153.408V152.862H101.132V153.408C101.132 153.492 101.132 153.548 101.118 153.59ZM114.928 151.476C112.464 151.476 110.896 150.244 110.896 148.508C110.896 146.73 112.562 145.568 114.928 145.568C117.294 145.568 118.96 146.73 118.96 148.508C118.96 150.244 117.392 151.476 114.928 151.476ZM108.698 153.002C108.698 152.386 109.104 152.008 109.888 152.008H119.968C120.752 152.008 121.158 152.386 121.158 153.002C121.158 153.618 120.752 153.996 119.968 153.996H109.888C109.104 153.996 108.698 153.618 108.698 153.002ZM110.728 155.928V155.578C110.728 154.948 111.162 154.528 111.848 154.528H111.918C112.604 154.528 113.038 154.948 113.038 155.578V155.788C113.038 156.152 113.206 156.404 113.556 156.544C113.906 156.684 114.438 156.754 115.152 156.754C116.174 156.754 117.14 156.586 118.064 156.264C118.232 156.208 118.386 156.18 118.526 156.18C118.932 156.18 119.254 156.418 119.408 156.852C119.478 157.02 119.506 157.188 119.506 157.356C119.506 157.776 119.268 158.084 118.806 158.266C117.826 158.658 116.552 158.854 114.998 158.854C112.296 158.854 110.728 157.818 110.728 155.928ZM113.206 148.508C113.206 149.18 113.906 149.628 114.928 149.628C115.95 149.628 116.65 149.18 116.65 148.508C116.65 147.85 115.95 147.416 114.928 147.416C113.906 147.416 113.206 147.85 113.206 148.508ZM59.5573 177.064C56.8693 177.064 55.3293 176.392 55.3293 174.768V174.264C55.3293 173.494 55.7213 173.144 56.6733 173.144H61.2233C61.3773 173.144 61.4193 173.102 61.4193 172.976V172.822C61.4193 172.696 61.3773 172.668 61.2233 172.668H56.1693C55.5393 172.668 55.1893 172.304 55.1893 171.758C55.1893 171.212 55.5393 170.848 56.1693 170.848H62.4273C63.2253 170.848 63.7293 171.31 63.7293 172.024V173.48C63.7293 174.278 63.3793 174.656 62.5393 174.656H57.8493C57.7093 174.656 57.6393 174.726 57.6393 174.852C57.6393 174.978 57.7793 175.076 58.0453 175.146C58.3113 175.216 58.8153 175.244 59.5573 175.244C60.8033 175.244 61.9653 175.132 63.0293 174.908C63.0713 174.894 63.1273 174.894 63.1973 174.894C63.5753 174.894 63.8973 175.146 64.0233 175.552C64.0653 175.706 64.0793 175.818 64.0793 175.888C64.0793 176.266 63.8693 176.588 63.4913 176.658C62.3573 176.952 61.1813 177.064 59.5573 177.064ZM53.2993 169.434C53.2993 168.888 53.7053 168.51 54.4333 168.51H64.6253C65.3533 168.51 65.7593 168.888 65.7593 169.434C65.7593 169.98 65.3533 170.358 64.6253 170.358H54.4333C53.7053 170.358 53.2993 169.98 53.2993 169.434ZM55.3293 165.024V164.548C55.3293 163.876 55.7633 163.498 56.4493 163.498H56.5193C57.2053 163.498 57.6393 163.876 57.6393 164.548V164.926C57.6393 165.752 58.1573 166.116 59.5993 166.116C60.5933 166.116 61.6013 165.99 62.6093 165.724C62.7353 165.696 62.8613 165.682 62.9593 165.682C63.5193 165.682 63.9113 166.06 63.9113 166.69C63.9113 167.138 63.6593 167.46 63.1413 167.586C62.0353 167.838 60.8593 167.964 59.5993 167.964C56.5753 167.964 55.3293 166.97 55.3293 165.024ZM78.2566 177.008C77.5706 177.008 77.1366 176.63 77.1366 175.958V174.32C77.1366 174.166 77.0526 174.082 76.8986 174.082H72.0266C71.2986 174.082 70.9766 173.662 70.9766 173.088C70.9766 172.514 71.3126 172.094 72.0406 172.094H74.0706V171.282H70.1786C69.3946 171.282 68.9886 170.904 68.9886 170.288C68.9886 169.672 69.3946 169.294 70.1786 169.294H80.2586C81.0426 169.294 81.4486 169.672 81.4486 170.288C81.4486 170.904 81.0426 171.282 80.2586 171.282H76.3806V172.094H78.1586C79.0546 172.094 79.4466 172.472 79.4466 173.354V175.958C79.4466 176.63 79.0126 177.008 78.3266 177.008H78.2566ZM71.0186 165.15V164.604C71.0186 163.932 71.4526 163.554 72.1386 163.554H72.2086C72.8946 163.554 73.3286 163.932 73.3286 164.604V165.108C73.3286 166.214 73.8326 166.648 75.2886 166.648C76.3946 166.648 77.3886 166.522 78.2706 166.27C78.4246 166.228 78.5646 166.2 78.6766 166.2C79.1106 166.2 79.4466 166.438 79.5726 166.872C79.6286 167.026 79.6566 167.166 79.6566 167.32C79.6566 167.726 79.4046 168.02 78.9146 168.174C77.8366 168.482 76.6326 168.636 75.2886 168.636C72.2226 168.636 71.0186 167.544 71.0186 165.15ZM91.0026 177.008C90.3166 177.008 89.8826 176.63 89.8826 175.958V174.32C89.8826 174.166 89.7986 174.082 89.6446 174.082H84.7726C84.0446 174.082 83.7226 173.662 83.7226 173.088C83.7226 172.514 84.0586 172.094 84.7866 172.094H86.8166V171.282H82.9246C82.1406 171.282 81.7346 170.904 81.7346 170.288C81.7346 169.672 82.1406 169.294 82.9246 169.294H93.0046C93.7886 169.294 94.1946 169.672 94.1946 170.288C94.1946 170.904 93.7886 171.282 93.0046 171.282H89.1266V172.094H90.9046C91.8006 172.094 92.1926 172.472 92.1926 173.354V175.958C92.1926 176.63 91.7586 177.008 91.0726 177.008H91.0026ZM83.7646 165.15V164.604C83.7646 163.932 84.1986 163.554 84.8846 163.554H84.9546C85.6406 163.554 86.0746 163.932 86.0746 164.604V165.108C86.0746 166.214 86.5786 166.648 88.0346 166.648C89.1406 166.648 90.1346 166.522 91.0166 166.27C91.1706 166.228 91.3106 166.2 91.4226 166.2C91.8566 166.2 92.1926 166.438 92.3186 166.872C92.3746 167.026 92.4026 167.166 92.4026 167.32C92.4026 167.726 92.1506 168.02 91.6606 168.174C90.5826 168.482 89.3786 168.636 88.0346 168.636C84.9686 168.636 83.7646 167.544 83.7646 165.15Z" fill="#1F1F1F"/>
</g>
</g>
<rect x="1" y="1" width="145.5" height="210" rx="15" stroke="#1F1F1F" stroke-width="2"/>
<defs>
<filter id="filter0_d_1840_7517" x="-1.44533" y="98.5547" width="150.391" height="106.891" filterUnits="userSpaceOnUse" color-interpolation-filters="sRGB">
<feFlood flood-opacity="0" result="BackgroundImageFix"/>
<feColorMatrix in="SourceAlpha" type="matrix" values="0 0 0 0 0 0 0 0 0 0 0 0 0 0 0 0 0 0 127 0" result="hardAlpha"/>
<feOffset/>
<feGaussianBlur stdDeviation="6.72267"/>
<feComposite in2="hardAlpha" operator="out"/>
<feColorMatrix type="matrix" values="0 0 0 0 0 0 0 0 0 0 0 0 0 0 0 0 0 0 0.05 0"/>
<feBlend mode="normal" in2="BackgroundImageFix" result="effect1_dropShadow_1840_7517"/>
<feBlend mode="normal" in="SourceGraphic" in2="effect1_dropShadow_1840_7517" result="shape"/>
</filter>
<clipPath id="clip0_1840_7517">
<rect width="147.5" height="212" rx="16" fill="white"/>
</clipPath>
</defs>
</svg>
