<svg width="148" height="212" viewBox="0 0 148 212" fill="none" xmlns="http://www.w3.org/2000/svg">
<g clip-path="url(#clip0_1840_7526)">
<rect width="147.5" height="212" rx="16" fill="#F8FAFA"/>
<rect x="39.25" y="20" width="69" height="28" rx="14" fill="#333333"/>
<path d="M54.332 30.3008C54.332 30.9805 54.5078 31.8066 55.0469 32.4102C55.5801 31.8125 55.7617 31.0039 55.7734 30.3008V30.1133H55.2344V28.918H58.2812V30.1133H57.1914V30.3008C57.1797 31.25 57.625 32.2812 58.7852 32.8086L58.0703 33.8633C57.291 33.5293 56.793 32.9434 56.5 32.2461C56.248 32.9668 55.8086 33.6055 55.0469 33.9805C54.2969 33.6113 53.8516 32.9785 53.6055 32.2695C53.3008 32.9492 52.8027 33.5293 52.0469 33.8633L51.3438 32.8086C52.4805 32.2812 52.9375 31.2266 52.9375 30.3008V30.1133H51.7656V28.918H54.8828V30.1133H54.332V30.3008ZM58.0938 34.4492V35.5859H59.0195V34.4492H60.332V39.0078H56.7344V34.4492H58.0938ZM58.0938 37.8828H59.0195V36.6758H58.0938V37.8828ZM60.332 28.4141V30.4648H61.4453V31.7188H60.332V33.9805H58.8438V28.4141H60.332ZM56.1602 34.543V37.2383H54.168V37.9062C55.0586 37.9004 55.6387 37.877 56.3477 37.7422L56.4766 38.8203C55.5156 38.9961 54.7773 39.0078 53.3477 39.0078H52.7266V36.207H54.7188V35.6211H52.7148V34.543H56.1602ZM71.6641 33.8633V35.0586H61.9375V33.8633H71.6641ZM70.5625 37.6953V38.8906H63.1094V35.7734H64.6094V37.6953H70.5625ZM66.8008 28.7422C69.1328 28.7305 70.668 29.5625 70.6797 30.9219C70.668 32.2812 69.1328 33.125 66.8008 33.125C64.4453 33.125 62.9102 32.2812 62.9102 30.9219C62.9102 29.5625 64.4453 28.7305 66.8008 28.7422ZM66.8008 29.9141C65.3242 29.9258 64.457 30.2773 64.4688 30.9219C64.457 31.5898 65.3242 31.918 66.8008 31.918C68.2773 31.918 69.1328 31.5898 69.1328 30.9219C69.1328 30.2773 68.2773 29.9258 66.8008 29.9141ZM83.5352 28.4141V31.3203H84.9766V32.5508H83.5352V36.125H82.0352V28.4141H83.5352ZM80.3008 29.2695V30.4648H76.9844V33.1602C78.9121 33.1484 79.9727 33.0898 81.168 32.832L81.3203 34.0273C79.9844 34.3086 78.7539 34.3672 76.3867 34.3672H75.4844V29.2695H80.3008ZM83.9219 37.6953V38.8906H76.6211V35.3047H78.1094V37.6953H83.9219ZM88.3867 29.1641C89.8281 29.1641 90.9004 30.3535 91.1172 32.2695H92.9688V28.4141H94.4453V39.1016H92.9688V33.4648H91.1289C90.9707 35.5156 89.875 36.7695 88.3867 36.7695C86.7695 36.7695 85.6094 35.3047 85.6211 32.9609C85.6094 30.6406 86.7695 29.1641 88.3867 29.1641ZM88.3867 30.5117C87.5898 30.5117 87.0391 31.3789 87.0508 32.9609C87.0391 34.5547 87.5898 35.4102 88.3867 35.4102C89.1953 35.4102 89.7227 34.5547 89.7227 32.9609C89.7227 31.3789 89.1953 30.5117 88.3867 30.5117Z" fill="white"/>
<path d="M39.1875 62.1816C39.1738 62.9336 39.4199 64.0957 40.2266 64.875C41.0059 64.1025 41.252 62.9951 41.2656 62.1816V61.6348H40.4727V60.5684H43.918V61.6348H42.4961V62.1816C42.4961 63.2207 43.0703 64.5605 44.4238 65.1895L43.7949 66.1191C42.8379 65.6885 42.2363 64.916 41.9082 64.041C41.6416 64.9297 41.1289 65.7705 40.2129 66.2422C39.3105 65.7637 38.7979 64.9297 38.5312 64.0547C38.1895 64.9092 37.5947 65.6816 36.6582 66.1191L36.0293 65.1895C37.3691 64.5469 37.9707 63.1797 37.9707 62.1816V61.6348H36.4805V60.5684H39.9805V61.6348H39.1875V62.1816ZM43.3027 66.9258V68.4023H44.957V66.9258H46.1055V72.0391H42.127V66.9258H43.3027ZM43.3027 71.041H44.957V69.373H43.3027V71.041ZM46.1055 59.9121V62.4277H47.5957V63.5215H46.1055V66.2969H44.8203V59.9121H46.1055ZM41.4023 67.0352V69.9199H38.791V71.0547C39.9805 71.0547 40.7324 71.041 41.6621 70.8496L41.7715 71.8203C40.6504 72.0254 39.7754 72.0391 38.1895 72.0391H37.5332V68.9902H40.1445V67.9922H37.5059V67.0352H41.4023ZM59.4629 66.3105V67.3496H48.293V66.3105H59.4629ZM58.2051 70.8496V71.9023H49.7012V68.3477H51.0137V70.8496H58.2051ZM53.8711 60.3223C56.5234 60.3086 58.2461 61.2383 58.2461 62.7695C58.2461 64.3145 56.5234 65.2441 53.8711 65.2578C51.2051 65.2441 49.4961 64.3145 49.4961 62.7695C49.4961 61.2383 51.2051 60.3086 53.8711 60.3223ZM53.8711 61.3613C51.998 61.3613 50.8223 61.8945 50.8359 62.7695C50.8223 63.6719 51.998 64.1914 53.8711 64.1914C55.7441 64.1914 56.9062 63.6719 56.9062 62.7695C56.9062 61.8945 55.7441 61.3613 53.8711 61.3613ZM73.4355 59.8984V63.4531H75.2266V64.5332H73.4355V68.7715H72.1367V59.8984H73.4355ZM69.8262 60.9512V62.0039H65.6426V65.5723C68.0283 65.5791 69.375 65.5039 70.9062 65.1895L71.0566 66.2422C69.4023 66.5703 67.9531 66.6523 65.3281 66.6523H64.3574V60.9512H69.8262ZM73.9551 70.8496V71.9023H65.6699V67.8555H66.9688V70.8496H73.9551ZM79.2324 60.8281C80.8936 60.8281 82.1104 62.2363 82.3086 64.5059H84.8379V59.9121H86.123V72.1895H84.8379V65.5586H82.3223C82.1787 67.9443 80.9346 69.4277 79.2324 69.4277C77.4004 69.4277 76.1152 67.7598 76.1289 65.1211C76.1152 62.4961 77.4004 60.8281 79.2324 60.8281ZM79.2324 61.9902C78.125 61.9902 77.3594 63.1934 77.3594 65.1211C77.3594 67.0625 78.125 68.2656 79.2324 68.2656C80.3398 68.2656 81.1055 67.0625 81.1055 65.1211C81.1055 63.1934 80.3398 61.9902 79.2324 61.9902ZM97.5527 59.9121V64.6973H99.5215V65.791H97.5527V72.1895H96.2676V59.9121H97.5527ZM94.0938 61.0195V65.5176H89.8008V68.1699C91.9062 68.1631 93.4648 68.0879 95.2559 67.7598L95.3789 68.8125C93.4648 69.168 91.8105 69.25 89.5137 69.2637H88.5156V64.4648H92.8086V62.0723H88.4883V61.0195H94.0938ZM110.035 65.5586V66.5977H106.33V69.5918H111.32V70.6582H100.109V69.5918H105.045V66.5977H101.504V60.8555H109.926V61.9082H102.803V65.5586H110.035ZM27.6758 81.8262V82.8926H20.4844V81.8262H23.4375V80.0625H24.7637V81.8262H27.6758ZM24.1074 83.7949C25.7617 83.7949 26.9922 84.9707 27.0059 86.6387C26.9922 88.3066 25.7617 89.4824 24.1074 89.4961C22.4258 89.4824 21.209 88.3066 21.209 86.6387C21.209 84.9707 22.4258 83.7949 24.1074 83.7949ZM24.1074 84.8887C23.0957 84.9023 22.3711 85.6133 22.3848 86.6387C22.3711 87.6914 23.0957 88.3887 24.1074 88.375C25.0918 88.3887 25.8301 87.6914 25.8301 86.6387C25.8301 85.6133 25.0918 84.9023 24.1074 84.8887ZM30.6836 79.9121V92.1621H29.3984V88.0742H27.4707V87.0215H29.3984V85.0391H27.457V83.9727H29.3984V79.9121H30.6836ZM42.1133 79.9121V84.793H44.0137V85.873H42.1133V92.1484H40.8145V79.9121H42.1133ZM38.9141 81.1973C38.9004 84.7383 37.3418 87.8965 33.3086 89.8926L32.584 88.8809C35.6533 87.3496 37.3213 85.1348 37.5879 82.2773H33.1992V81.1973H38.9141ZM52.8184 81.1016V81.6074C52.8184 82.6191 52.8184 84.4922 51.9844 87.459L50.6855 87.2539C51.3965 84.9502 51.5127 83.2549 51.5332 82.168H48.9355V81.1016H52.8184ZM59.2578 89.3457V90.4121H48.0879V89.3457H53.2695V85.4766H54.541V89.3457H59.2578ZM58.0273 81.1016V81.9492C58.0273 83.1523 58.041 84.8613 57.5625 87.418L56.2637 87.2676C56.7012 84.9912 56.7285 83.3369 56.7422 82.168H53.7754V81.1016H58.0273ZM70.332 79.9121V92.1895H69.0332V79.9121H70.332ZM63.7832 80.8281C65.6016 80.8281 66.9414 82.4961 66.9414 85.1211C66.9414 87.7598 65.6016 89.4277 63.7832 89.4277C61.9375 89.4277 60.6113 87.7598 60.6113 85.1211C60.6113 82.4961 61.9375 80.8281 63.7832 80.8281ZM63.7832 81.9902C62.6484 81.9902 61.8691 83.1934 61.8691 85.1211C61.8691 87.0625 62.6484 88.2656 63.7832 88.2656C64.9043 88.2656 65.6836 87.0625 65.6836 85.1211C65.6836 83.1934 64.9043 81.9902 63.7832 81.9902ZM82.4727 79.9121V92.1621H81.1602V79.9121H82.4727ZM78.8223 81.2246C78.8223 84.8066 77.291 87.9238 73.0938 89.9336L72.4102 88.8809C75.6709 87.3291 77.2568 85.1211 77.5098 82.2637H72.998V81.2246H78.8223ZM94.3125 85.5586V86.5977H90.6074V89.5918H95.5977V90.6582H84.3867V89.5918H89.3223V86.5977H85.7812V80.8555H94.2031V81.9082H87.0801V85.5586H94.3125ZM109.447 79.9121V84.875H111.416V85.9551H109.447V92.1621H108.162V79.9121H109.447ZM107.096 81.8262V82.8926H99.8359V81.8262H102.857V80.0762H104.156V81.8262H107.096ZM103.514 83.7949C105.264 83.7949 106.549 84.9707 106.562 86.6387C106.549 88.3203 105.264 89.4824 103.514 89.4961C101.75 89.4824 100.465 88.3203 100.465 86.6387C100.465 84.9707 101.75 83.7949 103.514 83.7949ZM103.514 84.8613C102.475 84.8613 101.695 85.5859 101.709 86.6387C101.695 87.7051 102.475 88.416 103.514 88.4023C104.553 88.416 105.318 87.7051 105.318 86.6387C105.318 85.5859 104.553 84.8613 103.514 84.8613ZM116.516 83.5215C116.516 85.5723 117.855 87.6914 119.742 88.498L119.031 89.5098C117.589 88.874 116.44 87.5273 115.873 85.8867C115.306 87.6367 114.15 89.127 112.729 89.8242L111.977 88.7988C113.822 87.9375 115.189 85.627 115.203 83.5215V82.2227H112.4V81.1426H119.305V82.2227H116.516V83.5215ZM122.148 79.9121V92.1621H120.85V79.9121H122.148ZM126.359 81.1016L126.236 88.1426H124.883L124.76 81.1016H126.359ZM125.566 91.0957C125.033 91.0957 124.582 90.6582 124.596 90.125C124.582 89.5918 125.033 89.1543 125.566 89.1543C126.086 89.1543 126.537 89.5918 126.537 90.125C126.537 90.6582 126.086 91.0957 125.566 91.0957Z" fill="#8C8C8C"/>
<g filter="url(#filter0_d_1840_7526)">
<rect x="12" y="112" width="123.5" height="80" rx="12" fill="white"/>
<path d="M55.3 159.316C52.962 159.316 51.366 157.916 51.366 155.956C51.366 153.968 52.976 152.554 55.3 152.554C57.652 152.554 59.248 153.968 59.248 155.956C59.248 157.93 57.638 159.316 55.3 159.316ZM48.944 148.508V146.898C48.944 146.226 49.378 145.848 50.064 145.848H50.134C50.82 145.848 51.254 146.226 51.254 146.898L51.268 148.438C51.282 149.502 51.73 149.894 52.752 149.894C53.466 149.894 54.222 149.768 55.034 149.502C55.188 149.46 55.328 149.432 55.44 149.432C55.874 149.432 56.196 149.698 56.35 150.146C56.392 150.314 56.42 150.454 56.42 150.58C56.42 151.014 56.168 151.35 55.678 151.518C54.684 151.84 53.746 151.994 52.458 151.994C50.008 151.994 48.944 150.916 48.944 148.508ZM53.676 155.942C53.676 156.712 54.334 157.272 55.328 157.272C56.294 157.272 56.938 156.712 56.938 155.942C56.938 155.144 56.294 154.57 55.328 154.57C54.334 154.57 53.676 155.144 53.676 155.942ZM57.148 151.602V146.464C57.148 145.792 57.582 145.414 58.268 145.414H58.338C59.024 145.414 59.458 145.792 59.458 146.464V147.752H60.172C60.844 147.752 61.222 148.144 61.222 148.802C61.222 149.46 60.844 149.852 60.172 149.852H59.458V151.602C59.458 152.274 59.024 152.652 58.338 152.652H58.268C57.582 152.652 57.148 152.274 57.148 151.602ZM62.334 153.002C61.55 153.002 61.144 152.624 61.144 152.008C61.144 151.392 61.55 151.014 62.334 151.014H65.554V150.538C65.554 150.104 65.806 149.81 66.254 149.684C65.246 149.698 64.476 149.712 63.93 149.712C63.314 149.712 63.048 149.348 63.048 148.802C63.048 148.284 63.342 147.934 63.958 147.934L69.376 147.962V147.696C69.376 147.542 69.278 147.458 69.166 147.458H64.098C63.44 147.458 63.048 147.08 63.048 146.534C63.048 145.988 63.44 145.61 64.098 145.61H70.216C71.266 145.61 71.686 145.96 71.686 147.01C71.686 147.752 71.574 148.872 71.364 149.782C71.238 150.384 70.902 150.678 70.37 150.678C70.3 150.678 70.16 150.664 69.95 150.622C69.432 150.51 69.166 150.188 69.166 149.796C69.166 149.712 69.166 149.656 69.18 149.614C68.718 149.628 68.018 149.656 67.108 149.67C67.57 149.782 67.864 150.104 67.864 150.538V151.014H72.414C73.198 151.014 73.604 151.392 73.604 152.008C73.604 152.624 73.198 153.002 72.414 153.002H62.334ZM63.538 156.404C63.538 154.682 64.952 153.506 67.346 153.506C69.768 153.506 71.168 154.682 71.168 156.404C71.168 158.126 69.74 159.316 67.346 159.316C64.966 159.316 63.538 158.126 63.538 156.404ZM65.82 156.404C65.82 156.978 66.422 157.342 67.374 157.342C68.312 157.342 68.886 156.978 68.886 156.404C68.886 155.83 68.284 155.452 67.374 155.452C66.422 155.452 65.82 155.83 65.82 156.404ZM80.638 159.064C77.67 159.064 76.06 158.336 76.06 156.278V153.464C76.06 152.61 76.522 152.148 77.418 152.148H83.83C84.544 152.148 84.95 152.498 84.95 153.1C84.95 153.702 84.544 154.052 83.83 154.052H78.566C78.412 154.052 78.37 154.094 78.37 154.22V154.626H83.928C84.502 154.626 84.838 154.962 84.838 155.508C84.838 156.054 84.502 156.39 83.928 156.39H78.37V156.488C78.37 156.712 78.58 156.88 78.986 156.992C79.392 157.104 79.966 157.16 80.708 157.16C81.884 157.16 83.004 157.062 84.054 156.88L84.334 156.852C84.908 156.852 85.3 157.244 85.3 157.874C85.3 158.308 84.992 158.616 84.474 158.728C83.41 158.952 82.136 159.064 80.638 159.064ZM74.1 150.51C74.1 149.88 74.492 149.488 75.15 149.488H75.472C75.346 149.25 75.29 148.984 75.29 148.662V147.864H75.206C74.548 147.864 74.156 147.472 74.156 146.842C74.156 146.212 74.548 145.82 75.206 145.82H81.03C81.688 145.82 82.08 146.212 82.08 146.842C82.08 147.472 81.688 147.864 81.03 147.864H80.946V148.662C80.946 148.984 80.89 149.25 80.764 149.488H81.086C81.744 149.488 82.136 149.88 82.136 150.51C82.136 151.14 81.744 151.532 81.086 151.532H75.15C74.492 151.532 74.1 151.14 74.1 150.51ZM77.474 148.844C77.474 149.278 77.614 149.432 78.118 149.432C78.622 149.432 78.762 149.278 78.762 148.844V147.864H77.474V148.844ZM82.64 150.678V146.464C82.64 145.792 83.074 145.414 83.76 145.414H83.83C84.516 145.414 84.95 145.792 84.95 146.464V147.612H85.65C86.322 147.612 86.7 148.004 86.7 148.662C86.7 149.32 86.322 149.712 85.65 149.712H84.95V150.678C84.95 151.35 84.516 151.728 83.83 151.728H83.76C83.074 151.728 82.64 151.35 82.64 150.678ZM96.926 152.652C96.24 152.652 95.806 152.274 95.806 151.602V151.154H94.14C93.986 151.154 93.846 151.14 93.72 151.112C93.426 151.714 92.852 152.008 91.9 152.008H89.52C88.064 152.008 87.336 151.322 87.336 149.866V146.772C87.336 146.1 87.756 145.722 88.428 145.722H88.512C89.184 145.722 89.604 146.086 89.604 146.632V146.996H91.676V146.632C91.676 146.086 92.096 145.722 92.768 145.722H92.852C93.468 145.722 93.874 146.044 93.93 146.618C93.972 146.604 94.042 146.604 94.14 146.604H95.806V146.464C95.806 145.792 96.24 145.414 96.926 145.414H96.996C97.682 145.414 98.116 145.792 98.116 146.464V151.602C98.116 152.274 97.682 152.652 96.996 152.652H96.926ZM89.604 149.544C89.604 149.866 89.73 149.964 90.164 149.964H91.116C91.55 149.964 91.676 149.866 91.676 149.544V148.956H89.604V149.544ZM90.024 155.956C90.024 153.968 91.634 152.554 93.958 152.554C96.31 152.554 97.906 153.968 97.906 155.956C97.906 157.93 96.296 159.316 93.958 159.316C91.62 159.316 90.024 157.916 90.024 155.956ZM92.334 155.942C92.334 156.712 92.992 157.272 93.986 157.272C94.952 157.272 95.596 156.712 95.596 155.942C95.596 155.144 94.952 154.57 93.986 154.57C92.992 154.57 92.334 155.144 92.334 155.942ZM93.944 149.208C93.986 149.194 94.042 149.194 94.14 149.194H95.806V148.564H94.14C94.042 148.564 93.986 148.564 93.944 148.55V149.208Z" fill="#1F1F1F"/>
</g>
</g>
<rect x="1" y="1" width="145.5" height="210" rx="15" stroke="#1F1F1F" stroke-width="2"/>
<defs>
<filter id="filter0_d_1840_7526" x="-1.44533" y="98.5547" width="150.391" height="106.891" filterUnits="userSpaceOnUse" color-interpolation-filters="sRGB">
<feFlood flood-opacity="0" result="BackgroundImageFix"/>
<feColorMatrix in="SourceAlpha" type="matrix" values="0 0 0 0 0 0 0 0 0 0 0 0 0 0 0 0 0 0 127 0" result="hardAlpha"/>
<feOffset/>
<feGaussianBlur stdDeviation="6.72267"/>
<feComposite in2="hardAlpha" operator="out"/>
<feColorMatrix type="matrix" values="0 0 0 0 0 0 0 0 0 0 0 0 0 0 0 0 0 0 0.05 0"/>
<feBlend mode="normal" in2="BackgroundImageFix" result="effect1_dropShadow_1840_7526"/>
<feBlend mode="normal" in="SourceGraphic" in2="effect1_dropShadow_1840_7526" result="shape"/>
</filter>
<clipPath id="clip0_1840_7526">
<rect width="147.5" height="212" rx="16" fill="white"/>
</clipPath>
</defs>
</svg>
