<svg width="24" height="24" viewBox="0 0 24 24" fill="none" xmlns="http://www.w3.org/2000/svg">
<path fill-rule="evenodd" clip-rule="evenodd" d="M12 21C7.029 21 3 16.971 3 12C3 7.029 7.029 3 12 3C16.971 3 21 7.029 21 12C21 16.971 16.971 21 12 21Z" fill="#BDBDBD" stroke="#BDBDBD" stroke-width="2" stroke-linecap="round" stroke-linejoin="round"/>
<path d="M12.0001 13.25V13C12.0001 12.183 12.5051 11.74 13.0111 11.4C13.5051 11.067 14.0001 10.633 14.0001 9.83301C14.0001 8.72801 13.1051 7.83301 12.0001 7.83301C10.8951 7.83301 10.0001 8.72801 10.0001 9.83301" stroke="white" stroke-width="1.5" stroke-linecap="round" stroke-linejoin="round"/>
<path d="M11.9991 16C11.8611 16 11.7491 16.112 11.7501 16.25C11.7501 16.388 11.8621 16.5 12.0001 16.5C12.1381 16.5 12.2501 16.388 12.2501 16.25C12.2501 16.112 12.1381 16 11.9991 16" stroke="white" stroke-width="1.5" stroke-linecap="round" stroke-linejoin="round"/>
</svg>
