<svg width="20" height="20" viewBox="0 0 20 20" fill="none" xmlns="http://www.w3.org/2000/svg">
<path d="M1.68699 13.8846C1.0814 9.50795 3.50978 5.78054 5.69012 5.57258C8.89636 5.26678 15.142 4.80529 14.4748 5.40576C13.6408 6.15635 13.3351 7.35173 12.6679 12.1055C12.1341 15.9084 10.9772 17.1253 9.16512 17.7766C7.35302 18.4279 2.29857 18.3045 1.68699 13.8846Z" fill="#F571A2"/>
<path d="M5.32356 11.4792C5.26943 8.80827 6.92502 6.66712 7.75959 5.9304C8.13368 5.65107 8.90711 5.11842 9.30969 4.98828L10.0988 5.17188L10.2506 5.247C6.80789 7.99893 6.54167 10.5546 6.36122 11.4792C6.18077 12.4038 6.2248 12.6283 5.63932 12.5396C5.40203 12.5036 5.33712 12.1484 5.32356 11.4792Z" fill="black" fill-opacity="0.15"/>
<path fill-rule="evenodd" clip-rule="evenodd" d="M1.35744 2.11335C1.70686 1.83188 2.21854 1.88699 2.50002 2.23639C3.70684 3.73459 6.09195 4.70914 8.79982 4.93757C11.166 5.13712 13.6055 4.74909 15.4444 3.79889C15.3303 3.5964 15.2279 3.38801 15.1289 3.17878C14.9372 2.77328 15.1103 2.2887 15.5156 2.09675C15.9213 1.90497 16.4059 2.07883 16.5977 2.48444C16.8486 3.01507 17.0173 3.30392 17.2334 3.51471C17.4323 3.70859 17.7312 3.89084 18.3399 4.05085C18.7737 4.16489 19.0328 4.60918 18.919 5.04303C18.8049 5.47693 18.3607 5.73704 17.9268 5.62311C17.3821 5.47994 16.9345 5.29407 16.5557 5.04303C14.3247 6.32124 11.389 6.78663 8.6631 6.55671C5.74148 6.31025 2.83673 5.24511 1.23439 3.25593C0.952973 2.90654 1.00813 2.39484 1.35744 2.11335Z" fill="#2E363C"/>
</svg>
