<svg width="152" height="100" viewBox="0 0 152 100" fill="none" xmlns="http://www.w3.org/2000/svg">
<g clip-path="url(#clip0_680_961)">
<rect width="151.5" height="100" rx="12" fill="white"/>
<path fill-rule="evenodd" clip-rule="evenodd" d="M135.5 25C130.529 25 126.5 20.971 126.5 16C126.5 11.029 130.529 7 135.5 7C140.471 7 144.5 11.029 144.5 16C144.5 20.971 140.471 25 135.5 25Z" fill="#1F1F1F" stroke="#1F1F1F" stroke-width="1.5" stroke-linecap="round" stroke-linejoin="round"/>
<path d="M139.5 14L134.5 19L131.5 16" stroke="white" stroke-width="1.5" stroke-linecap="round" stroke-linejoin="round"/>
<path d="M46 24H104C107.866 24 111 27.134 111 31V117H39V31C39 27.134 42.134 24 46 24Z" fill="#E0E0E0"/>
<path d="M46 24H104C107.866 24 111 27.134 111 31V117H39V31C39 27.134 42.134 24 46 24Z" stroke="#333333" stroke-width="2"/>
<path d="M56.5985 37.4365H92.9018" stroke="#BDBDBD" stroke-width="4" stroke-linecap="round" stroke-linejoin="round"/>
<path d="M49.843 47.4365H99.6572" stroke="#BDBDBD" stroke-width="4" stroke-linecap="round" stroke-linejoin="round"/>
<path d="M56.5985 57.4365H92.9018" stroke="#BDBDBD" stroke-width="4" stroke-linecap="round" stroke-linejoin="round"/>
<rect x="29.75" y="67" width="44" height="24" rx="8" fill="#333333"/>
<path d="M50.3256 79.113H49.1177V74.0511H50.3256V79.113ZM50.3475 82.1545H44.9782V82.9231H50.644V83.8894H43.7813V81.2432H49.1287V80.5185H43.7594V79.5742H50.3475V82.1545ZM45.7798 75.0613C45.7798 75.4858 45.8713 75.8921 46.0543 76.2801C46.2409 76.6681 46.5154 77.0103 46.8778 77.3067C47.2401 77.6032 47.6757 77.8283 48.1844 77.982L47.5915 78.9263C47.0278 78.7543 46.5392 78.4926 46.1256 78.1412C45.7157 77.7899 45.3954 77.3726 45.1649 76.8895C44.9343 77.4129 44.6085 77.8667 44.1876 78.251C43.7667 78.6317 43.2653 78.9153 42.6833 79.102L42.0684 78.1467C42.5882 77.9784 43.031 77.7368 43.397 77.422C43.7667 77.1036 44.0449 76.7413 44.2315 76.335C44.4219 75.9251 44.517 75.5005 44.517 75.0613V74.2927H45.7798V75.0613ZM60.3615 83.9772H59.1866V78.9373H58.1984V83.4722H57.0455V74.2378H58.1984V77.9381H59.1866V74.0511H60.3615V83.9772ZM56.4745 76.2142H55.7608V80.491C56.1231 80.4581 56.405 80.427 56.6063 80.3977L56.6722 81.2871C55.5339 81.5213 53.9198 81.6384 51.8299 81.6384L51.6871 80.6283L52.6095 80.6228V76.2142H51.8848V75.226H56.4745V76.2142ZM54.6518 80.5679V76.2142H53.7075V80.6008L54.6518 80.5679Z" fill="white"/>
<rect x="77.75" y="67" width="44" height="24" rx="8" fill="#333333"/>
<path d="M93.7139 75.4785C93.7102 75.936 93.7962 76.3679 93.9719 76.7742C94.1476 77.1805 94.4111 77.5392 94.7625 77.8503C95.1175 78.1577 95.5476 78.392 96.0527 78.553L95.3938 79.5083C94.8595 79.3216 94.402 79.0544 94.0213 78.7067C93.6443 78.359 93.3479 77.9454 93.1319 77.466C92.9087 78.0186 92.5884 78.4981 92.1711 78.9044C91.7539 79.307 91.2506 79.6108 90.6614 79.8157L90.0135 78.8275C90.5479 78.6518 90.9999 78.3974 91.3696 78.0644C91.7393 77.7313 92.0174 77.347 92.2041 76.9115C92.3907 76.4759 92.4841 76.0166 92.4841 75.5334V74.5891H93.7139V75.4785ZM98.3915 79.8926H97.1726V76.9718H95.1962V75.9726H97.1726V74.0511H98.3915V79.8926ZM95.0315 80.1561C95.7306 80.1561 96.3345 80.2311 96.8432 80.3812C97.3557 80.5313 97.7473 80.7509 98.0181 81.04C98.289 81.3255 98.4244 81.6677 98.4244 82.0667C98.4244 82.4656 98.289 82.8078 98.0181 83.0933C97.7473 83.3788 97.3575 83.5948 96.8487 83.7412C96.34 83.8912 95.7342 83.9663 95.0315 83.9663C94.3324 83.9663 93.7285 83.8912 93.2198 83.7412C92.7147 83.5948 92.3267 83.3788 92.0559 83.0933C91.7887 82.8078 91.6569 82.4656 91.6606 82.0667C91.6569 81.6677 91.7887 81.3255 92.0559 81.04C92.3267 80.7509 92.7165 80.5313 93.2252 80.3812C93.734 80.2311 94.3361 80.1561 95.0315 80.1561ZM95.0315 81.1004C94.3361 81.1004 93.8017 81.1846 93.4284 81.353C93.0551 81.5177 92.8684 81.7556 92.8684 82.0667C92.8684 82.3705 93.0551 82.6047 93.4284 82.7694C93.8054 82.9305 94.3397 83.011 95.0315 83.011C95.7233 83.011 96.2576 82.9286 96.6346 82.7639C97.0153 82.5992 97.2056 82.3668 97.2056 82.0667C97.2056 81.7556 97.0171 81.5177 96.6401 81.353C96.2631 81.1846 95.7269 81.1004 95.0315 81.1004ZM104.266 80.2549C104.983 80.2586 105.605 80.3355 106.133 80.4855C106.66 80.6319 107.066 80.8442 107.351 81.1224C107.64 81.4005 107.787 81.7336 107.791 82.1216C107.787 82.5022 107.64 82.8298 107.351 83.1043C107.066 83.3825 106.658 83.5948 106.127 83.7412C105.6 83.8912 104.98 83.9663 104.266 83.9663C103.556 83.9663 102.935 83.8912 102.405 83.7412C101.878 83.5948 101.47 83.3825 101.18 83.1043C100.895 82.8298 100.752 82.5022 100.752 82.1216C100.752 81.7336 100.895 81.4005 101.18 81.1224C101.47 80.8442 101.878 80.6319 102.405 80.4855C102.932 80.3355 103.552 80.2586 104.266 80.2549ZM104.266 81.1773C103.549 81.1773 102.987 81.2596 102.58 81.4243C102.178 81.589 101.978 81.8215 101.982 82.1216C101.978 82.4107 102.178 82.634 102.58 82.7914C102.983 82.9451 103.545 83.022 104.266 83.022C104.991 83.022 105.556 82.9451 105.962 82.7914C106.372 82.634 106.579 82.4107 106.583 82.1216C106.579 81.8215 106.372 81.589 105.962 81.4243C105.556 81.2596 104.991 81.1773 104.266 81.1773ZM107.725 75.3468C107.725 75.8738 107.708 76.3313 107.675 76.7193C107.646 77.1073 107.571 77.5282 107.45 77.982L106.242 77.8722C106.352 77.4367 106.424 77.0432 106.456 76.6918C106.489 76.3368 106.506 75.936 106.506 75.4895H100.851V74.5232H107.725V75.3468ZM108.823 79.5412H99.8189V78.553H103.311V76.7522H104.518V78.553H108.823V79.5412Z" fill="white"/>
</g>
<rect x="1" y="1" width="149.5" height="98" rx="11" stroke="#1F1F1F" stroke-width="2"/>
<defs>
<clipPath id="clip0_680_961">
<rect width="151.5" height="100" rx="12" fill="white"/>
</clipPath>
</defs>
</svg>
