<svg width="152" height="100" viewBox="0 0 152 100" fill="none" xmlns="http://www.w3.org/2000/svg">
<rect x="1" y="1" width="149.5" height="98" rx="11" fill="white"/>
<rect x="1" y="1" width="149.5" height="98" rx="11" stroke="#1F1F1F" stroke-width="2"/>
<path d="M55.8267 55.58C55.8267 57.98 53.8667 59.9 51.0267 59.9C48.1667 59.9 46.1867 57.98 46.1867 55.58C46.1867 53.18 48.1667 51.14 51.0267 51.14C53.8667 51.14 55.8267 53.18 55.8267 55.58ZM51.6667 47.64L51.9667 49.1C52.0467 49.52 51.8867 49.7 51.5467 49.8C49.3067 50.44 46.3467 50.76 43.7067 50.7C42.8067 50.68 42.3267 50.22 42.3067 49.32V49.08L42.1067 42.3C42.0867 41.9 42.2867 41.7 42.6867 41.7H44.8867C45.2867 41.7 45.4467 41.9 45.4667 42.3L45.5267 47.74C47.3267 47.76 49.3667 47.56 51.0067 47.24C51.4267 47.16 51.6067 47.28 51.6667 47.64ZM55.6067 51.06H53.5267C53.1267 51.06 52.9267 50.86 52.9267 50.46L52.8067 41.8C52.8067 41.4 52.9867 41.2 53.3867 41.2H55.8267C56.2267 41.2 56.4267 41.4 56.4067 41.8L56.3467 44.54H58.1667C58.5867 44.54 58.8667 44.82 58.8667 45.24V46.88C58.8667 47.3 58.5867 47.58 58.1667 47.58H56.2667L56.2067 50.46C56.1867 50.86 56.0067 51.06 55.6067 51.06ZM53.0867 55.58C53.0867 54.54 52.2867 53.74 51.1467 53.74C49.9267 53.74 49.1867 54.54 49.1867 55.58C49.1867 56.62 49.9867 57.4 51.1467 57.4C52.2867 57.4 53.0867 56.62 53.0867 55.58ZM71.4545 48.38L69.9345 48.32C69.5545 48.3 69.3745 48.1 69.4345 47.6L69.5545 46.68L61.3545 46.88C61.0545 46.88 60.8545 46.68 60.8545 46.38V44.78C60.8545 44.48 61.0545 44.28 61.3545 44.28L69.7545 44.3V43.62H61.1545C60.8545 43.62 60.6545 43.42 60.6545 43.12V41.42C60.6545 41.12 60.8545 40.92 61.1545 40.92H72.0345C72.7345 40.92 73.2345 41.3 73.2345 42.12V42.32C73.2345 43.86 72.9345 46.04 72.2345 47.82C72.1145 48.14 71.8745 48.4 71.4545 48.38ZM72.0545 56.16C72.0545 58.52 69.9745 60.1 66.9945 60.1C64.0145 60.1 61.9345 58.54 61.9345 56.16C61.9345 53.94 63.9545 52.22 66.9945 52.22C69.9945 52.22 72.0545 53.88 72.0545 56.16ZM73.8145 51.36L60.0945 51.66C59.7345 51.68 59.4945 51.42 59.4945 51.06V49.62C59.4945 49.26 59.7345 49.02 60.0945 49.02L64.1145 49L64.0945 47.9C64.0745 47.5 64.2545 47.3 64.6545 47.28H67.0745C67.4745 47.26 67.6945 47.46 67.6745 47.86L67.6545 48.98L73.8145 48.94C74.1745 48.94 74.4145 49.18 74.4145 49.54V50.76C74.4145 51.12 74.1745 51.34 73.8145 51.36ZM69.3145 56.16C69.3145 55.3 68.4545 54.64 67.3545 54.64C66.1545 54.64 65.3945 55.3 65.3945 56.16C65.3945 57.06 66.2145 57.68 67.3545 57.68C68.4545 57.68 69.3145 57.06 69.3145 56.16ZM89.8478 59.32L79.9478 59.38C79.3278 59.38 78.9678 59 78.9478 58.38L78.8478 52.18C78.8278 51.56 79.2278 51.2 79.8478 51.18L89.6478 51.04C90.0678 51.04 90.3478 51.32 90.3478 51.74L90.3278 52.7C90.3278 53.12 90.0478 53.4 89.6278 53.4L82.2078 53.52V54.26L89.5078 54.18C89.8678 54.18 89.9678 54.36 89.9678 54.68L89.9478 55.78C89.9478 56.18 89.7878 56.28 89.3878 56.28H82.2078V57.06L89.9078 57.16C90.3078 57.16 90.5078 57.44 90.5078 57.76L90.4878 58.68C90.4878 59.1 90.2678 59.32 89.8478 59.32ZM86.2278 47.68L86.4478 48.92C86.5278 49.34 86.3678 49.54 86.0278 49.62C83.3078 50.22 79.8678 50.42 76.4078 50.4C76.0478 50.4 75.8078 50.16 75.8078 49.8V48.24C75.8078 47.88 76.0478 47.64 76.4078 47.64H77.4278L77.3078 44.2L76.4078 44.22C76.0478 44.24 75.8078 43.98 75.8078 43.62V42.08C75.8078 41.72 76.0478 41.48 76.4078 41.48L85.3278 41.52C85.6878 41.52 85.9278 41.76 85.9278 42.12V43.44C85.9278 43.8 85.6878 44.02 85.3278 44.04L84.6878 44.06L84.5678 47.4L85.5678 47.28C85.9878 47.22 86.1678 47.32 86.2278 47.68ZM89.9278 50.46H87.8478C87.4478 50.46 87.2478 50.26 87.2478 49.86L87.1278 41.8C87.1278 41.4 87.3078 41.2 87.7078 41.2H90.1478C90.5478 41.2 90.7478 41.4 90.7278 41.8L90.6678 44.24H92.2878C92.7078 44.24 92.9878 44.52 92.9878 44.94V46.58C92.9878 47 92.7078 47.28 92.2878 47.28H90.5878L90.5278 49.86C90.5078 50.26 90.3278 50.46 89.9278 50.46ZM81.5878 47.58V44.12L80.4078 44.14V47.62C80.8078 47.6 81.2078 47.58 81.5878 47.58ZM108.536 51.66H106.456C106.056 51.66 105.856 51.46 105.856 51.06L105.836 49.44H103.336V49.72C103.336 50.62 103.056 50.9 102.156 50.92L95.5956 51C94.6956 51 94.4156 50.7 94.3956 49.8L94.0956 42.06C94.0756 41.66 94.2756 41.46 94.6756 41.46H96.8156C97.2156 41.46 97.3956 41.66 97.3956 42.06V43.66L100.196 43.64V42.02C100.216 41.62 100.376 41.42 100.776 41.42H102.896C103.296 41.42 103.496 41.62 103.476 42.02L103.456 42.88H105.736V41.8C105.736 41.4 105.916 41.2 106.316 41.2H108.756C109.156 41.2 109.356 41.4 109.336 41.8L109.136 51.06C109.116 51.46 108.936 51.66 108.536 51.66ZM108.556 55.98C108.556 58.26 106.596 60.2 103.556 60.2C100.496 60.2 98.5156 58.26 98.5156 55.98C98.5156 53.7 100.496 51.74 103.556 51.74C106.596 51.74 108.556 53.7 108.556 55.98ZM105.756 55.98C105.756 55.06 105.036 54.32 103.756 54.32C102.476 54.32 101.736 55.06 101.736 55.98C101.736 56.9 102.476 57.64 103.756 57.64C105.036 57.64 105.756 56.9 105.756 55.98ZM100.236 48.22L100.216 46.3L97.4156 46.34L97.4356 48.24L100.236 48.22ZM105.796 46.68L105.776 45.64H103.416L103.396 46.68H105.796Z" fill="#1F1F1F"/>
<path fill-rule="evenodd" clip-rule="evenodd" d="M135.5 25C130.529 25 126.5 20.971 126.5 16C126.5 11.029 130.529 7 135.5 7C140.471 7 144.5 11.029 144.5 16C144.5 20.971 140.471 25 135.5 25Z" fill="#1F1F1F" stroke="#1F1F1F" stroke-width="1.5" stroke-linecap="round" stroke-linejoin="round"/>
<path d="M139.5 14L134.5 19L131.5 16" stroke="white" stroke-width="1.5" stroke-linecap="round" stroke-linejoin="round"/>
</svg>
