<svg width="152" height="100" viewBox="0 0 152 100" fill="none" xmlns="http://www.w3.org/2000/svg">
<rect width="151.5" height="100" rx="12" fill="#F5F5F5"/>
<path d="M39.1504 36.192C36.1984 36.192 34.2544 34.446 34.2544 32.268C34.2544 30.396 35.6584 28.938 37.8004 28.488C37.7464 28.326 37.7104 28.164 37.7104 27.966V27.228H32.7064C31.6984 27.228 31.1764 26.742 31.1764 25.878C31.1764 25.014 31.6984 24.528 32.7064 24.528H45.6664C46.6744 24.528 47.1964 25.014 47.1964 25.878C47.1964 26.742 46.6744 27.228 45.6664 27.228H40.6804V27.966C40.6804 28.164 40.6444 28.344 40.5904 28.506C42.6784 28.992 44.0644 30.45 44.0644 32.268C44.0644 34.464 42.1024 36.192 39.1504 36.192ZM33.7144 20.082C33.7144 19.236 34.2364 18.75 35.2444 18.75H42.8224C44.0824 18.75 44.7124 19.29 44.7124 20.37C44.7124 21.9 44.5864 22.638 44.1724 23.574C43.9744 24.006 43.5424 24.258 43.0384 24.258C42.9304 24.258 42.7684 24.24 42.5524 24.186C41.8864 24.024 41.4904 23.61 41.4904 23.106C41.4904 22.98 41.5084 22.872 41.5444 22.746C41.7064 22.242 41.7604 21.882 41.7424 21.684C41.7424 21.522 41.6164 21.414 41.4724 21.414H35.2444C34.2364 21.414 33.7144 20.928 33.7144 20.082ZM37.1884 32.268C37.1884 33.078 38.0344 33.654 39.1864 33.654C40.3204 33.654 41.1304 33.078 41.1304 32.268C41.1304 31.458 40.3204 30.864 39.1864 30.864C38.0344 30.864 37.1884 31.458 37.1884 32.268ZM55.5382 36.192C52.4782 36.192 50.6422 34.698 50.6422 32.538C50.6422 30.792 51.8842 29.442 54.0982 29.028V28.2H49.0942C48.0862 28.2 47.5642 27.714 47.5642 26.922C47.5642 26.13 48.0862 25.644 49.0942 25.644H62.0542C63.0622 25.644 63.5842 26.13 63.5842 26.922C63.5842 27.714 63.0622 28.2 62.0542 28.2H57.0682V29.046C59.2282 29.478 60.4522 30.81 60.4522 32.538C60.4522 34.698 58.5982 36.192 55.5382 36.192ZM49.2742 24.024C49.2742 23.466 49.7062 23.016 50.3002 22.872C51.4342 22.602 52.2982 22.332 52.9102 22.08C53.5042 21.846 53.8642 21.54 53.9542 21.198H51.0922C50.2102 21.198 49.6522 20.712 49.6522 19.92C49.6522 19.11 50.2822 18.642 51.0922 18.642H59.7322C60.5422 18.642 61.1722 19.11 61.1722 19.92C61.1722 20.73 60.5422 21.198 59.7322 21.198H56.9242C56.9062 21.396 56.8702 21.54 56.8522 21.648C58.5082 22.08 59.7862 22.494 60.7042 22.89C61.2082 23.088 61.4962 23.52 61.4962 24.006C61.4962 24.294 61.4062 24.564 61.2262 24.816C60.9922 25.158 60.6502 25.32 60.1642 25.32C59.9122 25.32 59.6242 25.266 59.3002 25.158C57.5362 24.51 56.1502 24.06 55.1422 23.826C54.1162 24.492 52.7662 24.978 51.1282 25.284C50.9842 25.302 50.8402 25.302 50.6962 25.32C50.0662 25.32 49.6522 25.086 49.4182 24.636C49.3282 24.438 49.2742 24.24 49.2742 24.024ZM53.5762 32.538C53.5762 33.186 54.3682 33.654 55.5742 33.654C56.7442 33.654 57.5182 33.186 57.5182 32.538C57.5182 31.89 56.7442 31.404 55.5742 31.404C54.3682 31.404 53.5762 31.89 53.5762 32.538ZM75.7101 36.192C72.7041 36.192 70.8141 34.662 70.8141 32.538C70.8141 30.738 72.1281 29.442 74.2701 29.028V28.128H69.2661C68.2581 28.128 67.7361 27.642 67.7361 26.85C67.7361 26.058 68.2581 25.572 69.2661 25.572H82.2261C83.2341 25.572 83.7561 26.058 83.7561 26.85C83.7561 27.642 83.2341 28.128 82.2261 28.128H77.2401V29.046C79.3461 29.46 80.6241 30.756 80.6241 32.538C80.6241 34.644 78.7341 36.192 75.7101 36.192ZM69.5361 23.988C69.5361 23.466 69.8421 22.998 70.4001 22.836C73.0821 21.9 74.2341 21.126 74.2881 19.758C74.3061 18.894 74.9001 18.426 75.7101 18.426H75.7821C76.5921 18.426 77.2221 18.912 77.2221 19.776C77.2221 20.262 77.1501 20.712 77.0061 21.126C78.7161 21.792 80.0121 22.386 80.8581 22.872C81.3441 23.142 81.5781 23.502 81.5781 23.952C81.5781 24.222 81.4701 24.51 81.2721 24.78C81.0381 25.086 80.7141 25.248 80.2641 25.248C79.9941 25.248 79.7241 25.176 79.4541 25.05C78.3921 24.528 76.5921 23.718 75.4401 23.268C74.5761 23.97 73.3161 24.582 71.6421 25.14C71.3361 25.23 71.0661 25.284 70.8501 25.284C70.4181 25.284 70.0761 25.122 69.8241 24.816C69.6261 24.582 69.5361 24.294 69.5361 23.988ZM73.7481 32.538C73.7481 33.204 74.5401 33.654 75.7461 33.654C76.9161 33.654 77.6901 33.204 77.6901 32.538C77.6901 31.872 76.9161 31.404 75.7461 31.404C74.5401 31.404 73.7481 31.836 73.7481 32.538ZM92.0979 36.192C89.0379 36.192 87.2019 34.662 87.2019 32.448C87.2019 31.386 87.6519 30.45 88.4619 29.784C88.0299 29.55 87.8139 29.154 87.8139 28.596V27.894H85.6539C84.6459 27.894 84.1239 27.408 84.1239 26.616C84.1239 25.824 84.6459 25.338 85.6539 25.338H98.6139C99.6219 25.338 100.144 25.824 100.144 26.616C100.144 27.408 99.6219 27.894 98.6139 27.894H96.3639V28.596C96.3639 29.154 96.1479 29.55 95.7339 29.766C96.5799 30.432 97.0119 31.368 97.0119 32.448C97.0119 34.662 95.1759 36.192 92.0979 36.192ZM86.7339 20.28V19.848C86.7339 18.984 87.2919 18.498 88.1739 18.498H88.2639C89.1459 18.498 89.7039 18.984 89.7039 19.848V20.226C89.7039 21.54 90.3339 22.044 92.2239 22.044C93.6459 22.044 94.9239 21.882 96.0579 21.558C96.2559 21.504 96.4359 21.468 96.5799 21.468C97.1379 21.468 97.5699 21.774 97.7319 22.332C97.8039 22.53 97.8399 22.71 97.8399 22.908C97.8399 23.43 97.5159 23.808 96.8859 24.006C95.4999 24.402 93.9519 24.6 92.2239 24.6C88.3179 24.6 86.7339 23.304 86.7339 20.28ZM90.1359 32.448C90.1359 33.186 90.9099 33.654 92.1339 33.654C93.3399 33.654 94.0779 33.186 94.0779 32.448C94.0779 31.71 93.3039 31.224 92.1339 31.224C90.9099 31.224 90.1359 31.71 90.1359 32.448ZM90.7659 28.83C91.1799 28.758 91.6299 28.722 92.0979 28.722C92.5659 28.722 92.9979 28.758 93.4119 28.83C93.3939 28.776 93.3939 28.704 93.3939 28.596V27.894H90.7839V28.596C90.7839 28.704 90.7839 28.776 90.7659 28.83ZM112.27 36.192C109.21 36.192 107.374 34.698 107.374 32.538C107.374 30.792 108.616 29.442 110.83 29.028V28.2H105.826C104.818 28.2 104.296 27.714 104.296 26.922C104.296 26.13 104.818 25.644 105.826 25.644H118.786C119.794 25.644 120.316 26.13 120.316 26.922C120.316 27.714 119.794 28.2 118.786 28.2H113.8V29.046C115.96 29.478 117.184 30.81 117.184 32.538C117.184 34.698 115.33 36.192 112.27 36.192ZM106.006 24.024C106.006 23.466 106.438 23.016 107.032 22.872C108.166 22.602 109.03 22.332 109.642 22.08C110.236 21.846 110.596 21.54 110.686 21.198H107.824C106.942 21.198 106.384 20.712 106.384 19.92C106.384 19.11 107.014 18.642 107.824 18.642H116.464C117.274 18.642 117.904 19.11 117.904 19.92C117.904 20.73 117.274 21.198 116.464 21.198H113.656C113.638 21.396 113.602 21.54 113.584 21.648C115.24 22.08 116.518 22.494 117.436 22.89C117.94 23.088 118.228 23.52 118.228 24.006C118.228 24.294 118.138 24.564 117.958 24.816C117.724 25.158 117.382 25.32 116.896 25.32C116.644 25.32 116.356 25.266 116.032 25.158C114.268 24.51 112.882 24.06 111.874 23.826C110.848 24.492 109.498 24.978 107.86 25.284C107.716 25.302 107.572 25.302 107.428 25.32C106.798 25.32 106.384 25.086 106.15 24.636C106.06 24.438 106.006 24.24 106.006 24.024ZM110.308 32.538C110.308 33.186 111.1 33.654 112.306 33.654C113.476 33.654 114.25 33.186 114.25 32.538C114.25 31.89 113.476 31.404 112.306 31.404C111.1 31.404 110.308 31.89 110.308 32.538ZM22.8347 58.868C19.3787 58.868 17.3987 58.004 17.3987 55.916V55.268C17.3987 54.278 17.9027 53.828 19.1267 53.828H24.9767C25.1747 53.828 25.2287 53.774 25.2287 53.612V53.414C25.2287 53.252 25.1747 53.216 24.9767 53.216H18.4787C17.6687 53.216 17.2187 52.748 17.2187 52.046C17.2187 51.344 17.6687 50.876 18.4787 50.876H21.3587V50.156H16.2467C15.3107 50.156 14.7887 49.67 14.7887 48.968C14.7887 48.266 15.3107 47.78 16.2467 47.78H29.3507C30.2867 47.78 30.8087 48.266 30.8087 48.968C30.8087 49.67 30.2867 50.156 29.3507 50.156H24.3287V50.876H26.5247C27.5507 50.876 28.1987 51.47 28.1987 52.388V54.26C28.1987 55.286 27.7487 55.772 26.6687 55.772H20.6387C20.4587 55.772 20.3687 55.862 20.3687 56.024C20.3687 56.186 20.5487 56.312 20.8907 56.402C21.2327 56.492 21.8807 56.528 22.8347 56.528C24.4367 56.528 25.9307 56.384 27.2987 56.096C27.3527 56.078 27.4247 56.078 27.5147 56.078C28.0007 56.078 28.4147 56.402 28.5767 56.924C28.6307 57.122 28.6487 57.266 28.6487 57.356C28.6487 57.842 28.3787 58.256 27.8927 58.346C26.4347 58.724 24.9227 58.868 22.8347 58.868ZM17.3987 43.388V42.776C17.3987 41.912 17.9567 41.426 18.8387 41.426H18.9287C19.8107 41.426 20.3687 41.912 20.3687 42.776V43.262C20.3687 44.324 21.0347 44.792 22.8887 44.792C24.1667 44.792 25.4627 44.63 26.7587 44.288C26.9207 44.252 27.0827 44.234 27.2087 44.234C27.9287 44.234 28.4327 44.72 28.4327 45.53C28.4327 46.106 28.1087 46.52 27.4427 46.682C26.0207 47.006 24.5087 47.168 22.8887 47.168C19.0007 47.168 17.3987 45.89 17.3987 43.388ZM39.1864 49.112C36.0184 49.112 34.0024 47.528 34.0024 45.296C34.0024 43.01 36.1444 41.516 39.1864 41.516C42.2284 41.516 44.3704 43.01 44.3704 45.296C44.3704 47.528 42.3544 49.112 39.1864 49.112ZM31.1764 51.074C31.1764 50.282 31.6984 49.796 32.7064 49.796H45.6664C46.6744 49.796 47.1964 50.282 47.1964 51.074C47.1964 51.866 46.6744 52.352 45.6664 52.352H32.7064C31.6984 52.352 31.1764 51.866 31.1764 51.074ZM33.7864 54.836V54.386C33.7864 53.576 34.3444 53.036 35.2264 53.036H35.3164C36.1984 53.036 36.7564 53.576 36.7564 54.386V54.656C36.7564 55.124 36.9724 55.448 37.4224 55.628C37.8724 55.808 38.5564 55.898 39.4744 55.898C40.7884 55.898 42.0304 55.682 43.2184 55.268C43.4344 55.196 43.6324 55.16 43.8124 55.16C44.3344 55.16 44.7484 55.466 44.9464 56.024C45.0364 56.24 45.0724 56.456 45.0724 56.672C45.0724 57.212 44.7664 57.608 44.1724 57.842C42.9124 58.346 41.2744 58.598 39.2764 58.598C35.8024 58.598 33.7864 57.266 33.7864 54.836ZM36.9724 45.296C36.9724 46.16 37.8724 46.736 39.1864 46.736C40.5004 46.736 41.4004 46.16 41.4004 45.296C41.4004 44.45 40.5004 43.892 39.1864 43.892C37.8724 43.892 36.9724 44.45 36.9724 45.296ZM59.3224 59.192C56.3704 59.192 54.4264 57.446 54.4264 55.268C54.4264 53.396 55.8304 51.938 57.9724 51.488C57.9184 51.326 57.8824 51.164 57.8824 50.966V50.228H52.8784C51.8704 50.228 51.3484 49.742 51.3484 48.878C51.3484 48.014 51.8704 47.528 52.8784 47.528H65.8384C66.8464 47.528 67.3684 48.014 67.3684 48.878C67.3684 49.742 66.8464 50.228 65.8384 50.228H60.8524V50.966C60.8524 51.164 60.8164 51.344 60.7624 51.506C62.8504 51.992 64.2364 53.45 64.2364 55.268C64.2364 57.464 62.2744 59.192 59.3224 59.192ZM53.8864 43.082C53.8864 42.236 54.4084 41.75 55.4164 41.75H62.9944C64.2544 41.75 64.8844 42.29 64.8844 43.37C64.8844 44.9 64.7584 45.638 64.3444 46.574C64.1464 47.006 63.7144 47.258 63.2104 47.258C63.1024 47.258 62.9404 47.24 62.7244 47.186C62.0584 47.024 61.6624 46.61 61.6624 46.106C61.6624 45.98 61.6804 45.872 61.7164 45.746C61.8784 45.242 61.9324 44.882 61.9144 44.684C61.9144 44.522 61.7884 44.414 61.6444 44.414H55.4164C54.4084 44.414 53.8864 43.928 53.8864 43.082ZM57.3604 55.268C57.3604 56.078 58.2064 56.654 59.3584 56.654C60.4924 56.654 61.3024 56.078 61.3024 55.268C61.3024 54.458 60.4924 53.864 59.3584 53.864C58.2064 53.864 57.3604 54.458 57.3604 55.268ZM75.7101 59.192C72.6501 59.192 70.8141 57.698 70.8141 55.538C70.8141 53.792 72.0561 52.442 74.2701 52.028V51.2H69.2661C68.2581 51.2 67.7361 50.714 67.7361 49.922C67.7361 49.13 68.2581 48.644 69.2661 48.644H82.2261C83.2341 48.644 83.7561 49.13 83.7561 49.922C83.7561 50.714 83.2341 51.2 82.2261 51.2H77.2401V52.046C79.4001 52.478 80.6241 53.81 80.6241 55.538C80.6241 57.698 78.7701 59.192 75.7101 59.192ZM69.4461 47.024C69.4461 46.466 69.8781 46.016 70.4721 45.872C71.6061 45.602 72.4701 45.332 73.0821 45.08C73.6761 44.846 74.0361 44.54 74.1261 44.198H71.2641C70.3821 44.198 69.8241 43.712 69.8241 42.92C69.8241 42.11 70.4541 41.642 71.2641 41.642H79.9041C80.7141 41.642 81.3441 42.11 81.3441 42.92C81.3441 43.73 80.7141 44.198 79.9041 44.198H77.0961C77.0781 44.396 77.0421 44.54 77.0241 44.648C78.6801 45.08 79.9581 45.494 80.8761 45.89C81.3801 46.088 81.6681 46.52 81.6681 47.006C81.6681 47.294 81.5781 47.564 81.3981 47.816C81.1641 48.158 80.8221 48.32 80.3361 48.32C80.0841 48.32 79.7961 48.266 79.4721 48.158C77.7081 47.51 76.3221 47.06 75.3141 46.826C74.2881 47.492 72.9381 47.978 71.3001 48.284C71.1561 48.302 71.0121 48.302 70.8681 48.32C70.2381 48.32 69.8241 48.086 69.5901 47.636C69.5001 47.438 69.4461 47.24 69.4461 47.024ZM73.7481 55.538C73.7481 56.186 74.5401 56.654 75.7461 56.654C76.9161 56.654 77.6901 56.186 77.6901 55.538C77.6901 54.89 76.9161 54.404 75.7461 54.404C74.5401 54.404 73.7481 54.89 73.7481 55.538ZM95.8821 59.192C92.8761 59.192 90.9861 57.662 90.9861 55.538C90.9861 53.738 92.3001 52.442 94.4421 52.028V51.128H89.4381C88.4301 51.128 87.9081 50.642 87.9081 49.85C87.9081 49.058 88.4301 48.572 89.4381 48.572H102.398C103.406 48.572 103.928 49.058 103.928 49.85C103.928 50.642 103.406 51.128 102.398 51.128H97.4121V52.046C99.5181 52.46 100.796 53.756 100.796 55.538C100.796 57.644 98.9061 59.192 95.8821 59.192ZM89.7081 46.988C89.7081 46.466 90.0141 45.998 90.5721 45.836C93.2541 44.9 94.4061 44.126 94.4601 42.758C94.4781 41.894 95.0721 41.426 95.8821 41.426H95.9541C96.7641 41.426 97.3941 41.912 97.3941 42.776C97.3941 43.262 97.3221 43.712 97.1781 44.126C98.8881 44.792 100.184 45.386 101.03 45.872C101.516 46.142 101.75 46.502 101.75 46.952C101.75 47.222 101.642 47.51 101.444 47.78C101.21 48.086 100.886 48.248 100.436 48.248C100.166 48.248 99.8961 48.176 99.6261 48.05C98.5641 47.528 96.7641 46.718 95.6121 46.268C94.7481 46.97 93.4881 47.582 91.8141 48.14C91.5081 48.23 91.2381 48.284 91.0221 48.284C90.5901 48.284 90.2481 48.122 89.9961 47.816C89.7981 47.582 89.7081 47.294 89.7081 46.988ZM93.9201 55.538C93.9201 56.204 94.7121 56.654 95.9181 56.654C97.0881 56.654 97.8621 56.204 97.8621 55.538C97.8621 54.872 97.0881 54.404 95.9181 54.404C94.7121 54.404 93.9201 54.836 93.9201 55.538ZM112.27 59.192C109.21 59.192 107.374 57.662 107.374 55.448C107.374 54.386 107.824 53.45 108.634 52.784C108.202 52.55 107.986 52.154 107.986 51.596V50.894H105.826C104.818 50.894 104.296 50.408 104.296 49.616C104.296 48.824 104.818 48.338 105.826 48.338H118.786C119.794 48.338 120.316 48.824 120.316 49.616C120.316 50.408 119.794 50.894 118.786 50.894H116.536V51.596C116.536 52.154 116.32 52.55 115.906 52.766C116.752 53.432 117.184 54.368 117.184 55.448C117.184 57.662 115.348 59.192 112.27 59.192ZM106.906 43.28V42.848C106.906 41.984 107.464 41.498 108.346 41.498H108.436C109.318 41.498 109.876 41.984 109.876 42.848V43.226C109.876 44.54 110.506 45.044 112.396 45.044C113.818 45.044 115.096 44.882 116.23 44.558C116.428 44.504 116.608 44.468 116.752 44.468C117.31 44.468 117.742 44.774 117.904 45.332C117.976 45.53 118.012 45.71 118.012 45.908C118.012 46.43 117.688 46.808 117.058 47.006C115.672 47.402 114.124 47.6 112.396 47.6C108.49 47.6 106.906 46.304 106.906 43.28ZM110.308 55.448C110.308 56.186 111.082 56.654 112.306 56.654C113.512 56.654 114.25 56.186 114.25 55.448C114.25 54.71 113.476 54.224 112.306 54.224C111.082 54.224 110.308 54.71 110.308 55.448ZM110.938 51.83C111.352 51.758 111.802 51.722 112.27 51.722C112.738 51.722 113.17 51.758 113.584 51.83C113.566 51.776 113.566 51.704 113.566 51.596V50.894H110.956V51.596C110.956 51.704 110.956 51.776 110.938 51.83ZM128.694 49.112C125.526 49.112 123.51 47.528 123.51 45.296C123.51 43.01 125.652 41.516 128.694 41.516C131.736 41.516 133.878 43.01 133.878 45.296C133.878 47.528 131.862 49.112 128.694 49.112ZM120.684 51.074C120.684 50.282 121.206 49.796 122.214 49.796H135.174C136.182 49.796 136.704 50.282 136.704 51.074C136.704 51.866 136.182 52.352 135.174 52.352H122.214C121.206 52.352 120.684 51.866 120.684 51.074ZM123.294 54.836V54.386C123.294 53.576 123.852 53.036 124.734 53.036H124.824C125.706 53.036 126.264 53.576 126.264 54.386V54.656C126.264 55.124 126.48 55.448 126.93 55.628C127.38 55.808 128.064 55.898 128.982 55.898C130.296 55.898 131.538 55.682 132.726 55.268C132.942 55.196 133.14 55.16 133.32 55.16C133.842 55.16 134.256 55.466 134.454 56.024C134.544 56.24 134.58 56.456 134.58 56.672C134.58 57.212 134.274 57.608 133.68 57.842C132.42 58.346 130.782 58.598 128.784 58.598C125.31 58.598 123.294 57.266 123.294 54.836ZM126.48 45.296C126.48 46.16 127.38 46.736 128.694 46.736C130.008 46.736 130.908 46.16 130.908 45.296C130.908 44.45 130.008 43.892 128.694 43.892C127.38 43.892 126.48 44.45 126.48 45.296ZM57.5023 81.868C54.0463 81.868 52.0663 81.004 52.0663 78.916V78.268C52.0663 77.278 52.5703 76.828 53.7943 76.828H59.6443C59.8423 76.828 59.8963 76.774 59.8963 76.612V76.414C59.8963 76.252 59.8423 76.216 59.6443 76.216H53.1463C52.3363 76.216 51.8863 75.748 51.8863 75.046C51.8863 74.344 52.3363 73.876 53.1463 73.876H61.1923C62.2183 73.876 62.8663 74.47 62.8663 75.388V77.26C62.8663 78.286 62.4163 78.772 61.3363 78.772H55.3063C55.1263 78.772 55.0363 78.862 55.0363 79.024C55.0363 79.186 55.2163 79.312 55.5583 79.402C55.9003 79.492 56.5483 79.528 57.5023 79.528C59.1043 79.528 60.5983 79.384 61.9663 79.096C62.0203 79.078 62.0923 79.078 62.1823 79.078C62.6683 79.078 63.0823 79.402 63.2443 79.924C63.2983 80.122 63.3163 80.266 63.3163 80.356C63.3163 80.842 63.0463 81.256 62.5603 81.346C61.1023 81.724 59.5903 81.868 57.5023 81.868ZM49.4563 72.058C49.4563 71.356 49.9783 70.87 50.9143 70.87H64.0183C64.9543 70.87 65.4763 71.356 65.4763 72.058C65.4763 72.76 64.9543 73.246 64.0183 73.246H50.9143C49.9783 73.246 49.4563 72.76 49.4563 72.058ZM52.0663 66.388V65.776C52.0663 64.912 52.6243 64.426 53.5063 64.426H53.5963C54.4783 64.426 55.0363 64.912 55.0363 65.776V66.262C55.0363 67.324 55.7023 67.792 57.5563 67.792C58.8343 67.792 60.1303 67.63 61.4263 67.288C61.5883 67.252 61.7503 67.234 61.8763 67.234C62.5963 67.234 63.1003 67.72 63.1003 68.53C63.1003 69.106 62.7763 69.52 62.1103 69.682C60.6883 70.006 59.1763 70.168 57.5563 70.168C53.6683 70.168 52.0663 68.89 52.0663 66.388ZM81.5442 81.796C80.6622 81.796 80.1042 81.31 80.1042 80.446V78.34C80.1042 78.142 79.9962 78.034 79.7982 78.034H73.5342C72.5982 78.034 72.1842 77.494 72.1842 76.756C72.1842 76.018 72.6162 75.478 73.5522 75.478H76.1622V74.434H71.1582C70.1502 74.434 69.6282 73.948 69.6282 73.156C69.6282 72.364 70.1502 71.878 71.1582 71.878H84.1182C85.1262 71.878 85.6482 72.364 85.6482 73.156C85.6482 73.948 85.1262 74.434 84.1182 74.434H79.1322V75.478H81.4182C82.5702 75.478 83.0742 75.964 83.0742 77.098V80.446C83.0742 81.31 82.5162 81.796 81.6342 81.796H81.5442ZM72.2382 66.55V65.848C72.2382 64.984 72.7962 64.498 73.6782 64.498H73.7682C74.6502 64.498 75.2082 64.984 75.2082 65.848V66.496C75.2082 67.918 75.8562 68.476 77.7282 68.476C79.1502 68.476 80.4282 68.314 81.5622 67.99C81.7602 67.936 81.9402 67.9 82.0842 67.9C82.6422 67.9 83.0742 68.206 83.2362 68.764C83.3082 68.962 83.3442 69.142 83.3442 69.34C83.3442 69.862 83.0202 70.24 82.3902 70.438C81.0042 70.834 79.4562 71.032 77.7282 71.032C73.7862 71.032 72.2382 69.628 72.2382 66.55ZM97.932 81.796C97.05 81.796 96.492 81.31 96.492 80.446V78.34C96.492 78.142 96.384 78.034 96.186 78.034H89.922C88.986 78.034 88.572 77.494 88.572 76.756C88.572 76.018 89.004 75.478 89.94 75.478H92.55V74.434H87.546C86.538 74.434 86.016 73.948 86.016 73.156C86.016 72.364 86.538 71.878 87.546 71.878H100.506C101.514 71.878 102.036 72.364 102.036 73.156C102.036 73.948 101.514 74.434 100.506 74.434H95.52V75.478H97.806C98.958 75.478 99.462 75.964 99.462 77.098V80.446C99.462 81.31 98.904 81.796 98.022 81.796H97.932ZM88.626 66.55V65.848C88.626 64.984 89.184 64.498 90.066 64.498H90.156C91.038 64.498 91.596 64.984 91.596 65.848V66.496C91.596 67.918 92.244 68.476 94.116 68.476C95.538 68.476 96.816 68.314 97.95 67.99C98.148 67.936 98.328 67.9 98.472 67.9C99.03 67.9 99.462 68.206 99.624 68.764C99.696 68.962 99.732 69.142 99.732 69.34C99.732 69.862 99.408 70.24 98.778 70.438C97.392 70.834 95.844 71.032 94.116 71.032C90.174 71.032 88.626 69.628 88.626 66.55Z" fill="#BDBDBD"/>
<g opacity="0.1">
<path fill-rule="evenodd" clip-rule="evenodd" d="M136 25V25C131.029 25 127 20.971 127 16V16C127 11.029 131.029 7 136 7V7C140.971 7 145 11.029 145 16V16C145 20.971 140.971 25 136 25Z" stroke="#1F1F1F" stroke-width="1.5" stroke-linecap="round" stroke-linejoin="round"/>
</g>
</svg>
