<svg width="152" height="100" viewBox="0 0 152 100" fill="none" xmlns="http://www.w3.org/2000/svg">
<rect x="1" y="1" width="149.5" height="98" rx="11" fill="white"/>
<rect x="1" y="1" width="149.5" height="98" rx="11" stroke="#1F1F1F" stroke-width="2"/>
<path d="M47.7923 24.76L42.6523 24.88L42.6323 26.02C44.7723 26.52 46.1323 28.04 46.1323 29.96C46.1323 32.44 44.0123 34.1 40.9723 34.1C37.9323 34.1 35.8123 32.46 35.8123 29.96C35.8123 28.1 37.1123 26.58 39.2123 26.04L39.1723 24.96L34.0723 25.06C33.7123 25.08 33.4723 24.82 33.4723 24.46V22.82C33.4723 22.46 33.7123 22.22 34.0723 22.22L47.7923 22.14C48.1523 22.14 48.3923 22.38 48.3923 22.74V24.16C48.3923 24.52 48.1523 24.74 47.7923 24.76ZM45.7323 21.58L44.0723 21.52C43.6923 21.5 43.5923 21.3 43.6523 20.8C43.7523 20.06 43.7923 18.88 43.7323 18.22H35.1323C34.8323 18.22 34.6323 18.02 34.6323 17.72V15.82C34.6323 15.52 34.8323 15.32 35.1323 15.32H46.0123C46.7123 15.32 47.2123 15.7 47.2123 16.52V16.72C47.2123 18.06 47.0123 19.84 46.5123 21.02C46.3723 21.36 46.1523 21.6 45.7323 21.58ZM43.3323 29.96C43.3323 28.98 42.4923 28.24 41.3323 28.24C40.0723 28.24 39.3323 28.98 39.3323 29.96C39.3323 30.98 40.1323 31.68 41.3323 31.68C42.4923 31.68 43.3323 30.98 43.3323 29.96ZM63.3055 25.16L58.1655 25.28L58.1455 26.68C60.3255 27.12 61.6855 28.46 61.6855 30.3C61.6855 32.66 59.5855 34.1 56.4855 34.1C53.3855 34.1 51.2855 32.68 51.2855 30.3C51.2855 28.54 52.5855 27.16 54.7255 26.68L54.6855 25.36L49.5855 25.46C49.2255 25.48 48.9855 25.22 48.9855 24.86V23.42C48.9855 23.06 49.2255 22.82 49.5855 22.82L63.3055 22.74C63.6655 22.74 63.9055 22.98 63.9055 23.34V24.56C63.9055 24.92 63.6655 25.14 63.3055 25.16ZM63.1055 20.1L62.5655 21.5C62.4655 21.94 62.2055 22.14 61.8455 22.08C60.2455 21.8 58.7255 21.36 57.2655 20.5C55.4255 21.3 53.2855 21.88 50.9855 22.22C50.5455 22.28 50.1655 22.04 50.0655 21.62L49.8255 20.56C49.7255 20.16 49.9655 19.86 50.4055 19.78C52.8655 19.32 55.1055 18.78 57.1055 17.8L50.5855 17.84C50.2255 17.84 49.9855 17.6 49.9855 17.24V15.72C49.9855 15.36 50.2255 15.12 50.5855 15.12H61.6255C62.3455 15.12 62.6455 15.64 62.3855 16.28C61.8855 17.26 61.1255 18.1 60.1655 18.84C60.9055 19.06 61.6655 19.24 62.4855 19.4C62.9455 19.5 63.2055 19.68 63.1055 20.1ZM58.8855 30.3C58.8855 29.44 58.0655 28.92 56.8455 28.92C55.5255 28.92 54.8055 29.44 54.8055 30.3C54.8055 31.2 55.5855 31.68 56.8455 31.68C58.0655 31.68 58.8855 31.2 58.8855 30.3ZM82.6134 24.96L77.4734 25.08L77.4534 26.02C79.5934 26.52 80.9534 28.04 80.9534 29.96C80.9534 32.44 78.8334 34.1 75.7934 34.1C72.7534 34.1 70.6334 32.46 70.6334 29.96C70.6334 28.1 71.9334 26.6 74.0134 26.04L73.9934 25.16L68.8934 25.26C68.5334 25.28 68.2934 25.02 68.2934 24.66V23.12C68.2934 22.76 68.5334 22.52 68.8934 22.52L82.6134 22.44C82.9734 22.44 83.2134 22.68 83.2134 23.04V24.36C83.2134 24.72 82.9734 24.94 82.6134 24.96ZM82.3334 19.36L81.8534 21.14C81.7734 21.46 81.4534 21.54 81.0134 21.5C79.1334 21.3 77.1734 20.74 75.5134 19.68C74.1534 20.74 72.4334 21.5 70.5934 21.86C70.1934 21.94 69.7934 21.84 69.6534 21.52L69.1534 20.22C68.9934 19.88 69.1134 19.48 69.5334 19.36C72.1134 18.62 74.0334 17.34 74.5134 15.5C74.6734 14.9 74.8534 14.6 75.3134 14.6H77.5134C78.0534 14.6 78.3334 14.98 78.2334 15.5C78.0934 16.2 77.8334 16.84 77.4734 17.46C78.8734 18.12 80.3534 18.44 81.9534 18.6C82.3334 18.64 82.4134 19.08 82.3334 19.36ZM78.1534 29.96C78.1534 28.98 77.3134 28.24 76.1534 28.24C74.8934 28.24 74.1534 28.98 74.1534 29.96C74.1534 30.98 74.9534 31.68 76.1534 31.68C77.3134 31.68 78.1534 30.98 78.1534 29.96ZM98.1266 25.06L95.6666 25.12L95.6466 26.7C95.6266 27 95.5266 27.18 95.3266 27.26C96.0466 27.98 96.4666 28.9 96.4666 29.96C96.4666 32.44 94.3466 34.1 91.3066 34.1C88.2666 34.1 86.1466 32.46 86.1466 29.96C86.1466 28.92 86.5466 27.98 87.2866 27.26C87.0666 27.18 86.9666 27 86.9666 26.7L86.9266 25.3L84.4066 25.36C84.0466 25.38 83.8066 25.12 83.8066 24.76V23.12C83.8066 22.76 84.0466 22.52 84.4066 22.52L98.1266 22.44C98.4866 22.44 98.7266 22.68 98.7266 23.04V24.46C98.7266 24.82 98.4866 25.04 98.1266 25.06ZM96.7466 21.22L86.4466 21.5C85.6066 21.5 85.2666 21.16 85.2466 20.32L85.1666 15.84C85.1666 15.44 85.3466 15.24 85.7466 15.24H88.3066C88.7066 15.24 88.8866 15.44 88.8866 15.84V18.62H96.7866C97.2666 18.62 97.4466 18.84 97.4666 19.32V20.56C97.4866 21.02 97.2266 21.2 96.7466 21.22ZM93.6666 29.96C93.6666 28.98 92.8266 28.24 91.6666 28.24C90.4066 28.24 89.6666 28.98 89.6666 29.96C89.6666 30.98 90.4666 31.68 91.6666 31.68C92.8266 31.68 93.6666 30.98 93.6666 29.96ZM92.3266 25.9L92.3066 25.2L90.2866 25.24L90.2666 25.9C90.6066 25.84 90.9466 25.82 91.3066 25.82C91.6466 25.82 91.9866 25.86 92.3266 25.9ZM117.434 25.16L112.294 25.28L112.274 26.68C114.454 27.12 115.814 28.46 115.814 30.3C115.814 32.66 113.714 34.1 110.614 34.1C107.514 34.1 105.414 32.68 105.414 30.3C105.414 28.54 106.714 27.16 108.854 26.68L108.814 25.36L103.714 25.46C103.354 25.48 103.114 25.22 103.114 24.86V23.42C103.114 23.06 103.354 22.82 103.714 22.82L117.434 22.74C117.794 22.74 118.034 22.98 118.034 23.34V24.56C118.034 24.92 117.794 25.14 117.434 25.16ZM117.234 20.1L116.694 21.5C116.594 21.94 116.334 22.14 115.974 22.08C114.374 21.8 112.854 21.36 111.394 20.5C109.554 21.3 107.414 21.88 105.114 22.22C104.674 22.28 104.294 22.04 104.194 21.62L103.954 20.56C103.854 20.16 104.094 19.86 104.534 19.78C106.994 19.32 109.234 18.78 111.234 17.8L104.714 17.84C104.354 17.84 104.114 17.6 104.114 17.24V15.72C104.114 15.36 104.354 15.12 104.714 15.12H115.754C116.474 15.12 116.774 15.64 116.514 16.28C116.014 17.26 115.254 18.1 114.294 18.84C115.034 19.06 115.794 19.24 116.614 19.4C117.074 19.5 117.334 19.68 117.234 20.1ZM113.014 30.3C113.014 29.44 112.194 28.92 110.974 28.92C109.654 28.92 108.934 29.44 108.934 30.3C108.934 31.2 109.714 31.68 110.974 31.68C112.194 31.68 113.014 31.2 113.014 30.3ZM30.919 59.2L20.679 59.34C20.159 59.34 19.799 58.96 19.779 58.44L19.679 55.44C19.659 54.92 20.059 54.56 20.579 54.54L27.679 54.32L27.699 53.72L19.979 53.86C19.599 53.86 19.379 53.6 19.379 53.26V52.08C19.379 51.68 19.579 51.48 19.979 51.48L23.739 51.42C23.719 51.36 23.719 51.28 23.719 51.2L23.679 50.18L18.559 50.28C18.199 50.3 17.959 50.04 17.959 49.68V48.14C17.959 47.78 18.199 47.54 18.559 47.54L32.279 47.46C32.639 47.46 32.879 47.7 32.879 48.06V49.38C32.879 49.74 32.639 49.96 32.279 49.98L27.139 50.1L27.119 51.2C27.119 51.26 27.099 51.32 27.099 51.38L30.479 51.32C31.059 51.3 31.399 51.64 31.379 52.22L31.259 55.42C31.239 55.94 30.879 56.3 30.359 56.32L23.339 56.46V57.02L30.939 57.08C31.299 57.08 31.539 57.32 31.539 57.68L31.519 58.6C31.519 58.96 31.279 59.2 30.919 59.2ZM30.899 46.48L20.599 46.7C19.759 46.7 19.419 46.36 19.399 45.52L19.319 41.64C19.319 41.24 19.499 41.04 19.899 41.04H22.459C22.859 41.04 23.039 41.24 23.039 41.64V43.92L30.939 43.98C31.419 43.98 31.599 44.2 31.619 44.68V45.82C31.639 46.28 31.379 46.46 30.899 46.48ZM46.6923 44.44C46.6923 46.8 44.6123 48.78 40.9323 48.78C37.2523 48.78 35.1723 46.8 35.1723 44.44C35.1723 42.06 37.2523 40.1 40.9323 40.1C44.6123 40.1 46.6923 42.06 46.6923 44.44ZM43.3523 44.78C43.3523 43.76 42.4123 43 41.0323 43C39.6723 43 38.7123 43.76 38.7123 44.78C38.7123 45.8 39.6523 46.56 41.0323 46.56C42.3923 46.56 43.3523 45.8 43.3523 44.78ZM47.7923 51.96L34.0723 52.26C33.7123 52.28 33.4723 52.02 33.4723 51.66V50.22C33.4723 49.86 33.7123 49.62 34.0723 49.62L47.7923 49.54C48.1523 49.54 48.3923 49.78 48.3923 50.14V51.36C48.3923 51.72 48.1523 51.94 47.7923 51.96ZM46.4923 58.7L36.6123 58.84C35.7123 58.86 35.2323 58.36 35.2123 57.46L35.1123 53.8C35.0923 53.4 35.2923 53.2 35.6923 53.2L38.0123 53.16C38.4123 53.16 38.5923 53.36 38.5923 53.76L38.6123 55.96L46.4523 56.04C46.8723 56.04 47.0323 56.2 47.0323 56.56V58.08C47.0323 58.52 46.8323 58.7 46.4923 58.7ZM67.1001 50.76L61.9601 50.88L61.9401 52.02C64.0801 52.52 65.4401 54.04 65.4401 55.96C65.4401 58.44 63.3201 60.1 60.2801 60.1C57.2401 60.1 55.1201 58.46 55.1201 55.96C55.1201 54.1 56.4201 52.58 58.5201 52.04L58.4801 50.96L53.3801 51.06C53.0201 51.08 52.7801 50.82 52.7801 50.46V48.82C52.7801 48.46 53.0201 48.22 53.3801 48.22L67.1001 48.14C67.4601 48.14 67.7001 48.38 67.7001 48.74V50.16C67.7001 50.52 67.4601 50.74 67.1001 50.76ZM65.0401 47.58L63.3801 47.52C63.0001 47.5 62.9001 47.3 62.9601 46.8C63.0601 46.06 63.1001 44.88 63.0401 44.22H54.4401C54.1401 44.22 53.9401 44.02 53.9401 43.72V41.82C53.9401 41.52 54.1401 41.32 54.4401 41.32H65.3201C66.0201 41.32 66.5201 41.7 66.5201 42.52V42.72C66.5201 44.06 66.3201 45.84 65.8201 47.02C65.6801 47.36 65.4601 47.6 65.0401 47.58ZM62.6401 55.96C62.6401 54.98 61.8001 54.24 60.6401 54.24C59.3801 54.24 58.6401 54.98 58.6401 55.96C58.6401 56.98 59.4401 57.68 60.6401 57.68C61.8001 57.68 62.6401 56.98 62.6401 55.96ZM82.6134 51.16L77.4734 51.28L77.4534 52.68C79.6334 53.12 80.9934 54.46 80.9934 56.3C80.9934 58.66 78.8934 60.1 75.7934 60.1C72.6934 60.1 70.5934 58.68 70.5934 56.3C70.5934 54.54 71.8934 53.16 74.0334 52.68L73.9934 51.36L68.8934 51.46C68.5334 51.48 68.2934 51.22 68.2934 50.86V49.42C68.2934 49.06 68.5334 48.82 68.8934 48.82L82.6134 48.74C82.9734 48.74 83.2134 48.98 83.2134 49.34V50.56C83.2134 50.92 82.9734 51.14 82.6134 51.16ZM82.4134 46.1L81.8734 47.5C81.7734 47.94 81.5134 48.14 81.1534 48.08C79.5534 47.8 78.0334 47.36 76.5734 46.5C74.7334 47.3 72.5934 47.88 70.2934 48.22C69.8534 48.28 69.4734 48.04 69.3734 47.62L69.1334 46.56C69.0334 46.16 69.2734 45.86 69.7134 45.78C72.1734 45.32 74.4134 44.78 76.4134 43.8L69.8934 43.84C69.5334 43.84 69.2934 43.6 69.2934 43.24V41.72C69.2934 41.36 69.5334 41.12 69.8934 41.12H80.9334C81.6534 41.12 81.9534 41.64 81.6934 42.28C81.1934 43.26 80.4334 44.1 79.4734 44.84C80.2134 45.06 80.9734 45.24 81.7934 45.4C82.2534 45.5 82.5134 45.68 82.4134 46.1ZM78.1934 56.3C78.1934 55.44 77.3734 54.92 76.1534 54.92C74.8334 54.92 74.1134 55.44 74.1134 56.3C74.1134 57.2 74.8934 57.68 76.1534 57.68C77.3734 57.68 78.1934 57.2 78.1934 56.3ZM101.921 50.96L96.7812 51.08L96.7612 52.02C98.9012 52.52 100.261 54.04 100.261 55.96C100.261 58.44 98.1412 60.1 95.1012 60.1C92.0612 60.1 89.9412 58.46 89.9412 55.96C89.9412 54.1 91.2412 52.6 93.3212 52.04L93.3012 51.16L88.2012 51.26C87.8412 51.28 87.6012 51.02 87.6012 50.66V49.12C87.6012 48.76 87.8412 48.52 88.2012 48.52L101.921 48.44C102.281 48.44 102.521 48.68 102.521 49.04V50.36C102.521 50.72 102.281 50.94 101.921 50.96ZM101.641 45.36L101.161 47.14C101.081 47.46 100.761 47.54 100.321 47.5C98.4412 47.3 96.4812 46.74 94.8212 45.68C93.4612 46.74 91.7412 47.5 89.9012 47.86C89.5012 47.94 89.1012 47.84 88.9612 47.52L88.4612 46.22C88.3012 45.88 88.4212 45.48 88.8412 45.36C91.4212 44.62 93.3412 43.34 93.8212 41.5C93.9812 40.9 94.1612 40.6 94.6212 40.6H96.8212C97.3612 40.6 97.6412 40.98 97.5412 41.5C97.4012 42.2 97.1412 42.84 96.7812 43.46C98.1812 44.12 99.6612 44.44 101.261 44.6C101.641 44.64 101.721 45.08 101.641 45.36ZM97.4612 55.96C97.4612 54.98 96.6212 54.24 95.4612 54.24C94.2012 54.24 93.4612 54.98 93.4612 55.96C93.4612 56.98 94.2612 57.68 95.4612 57.68C96.6212 57.68 97.4612 56.98 97.4612 55.96ZM117.434 51.06L114.974 51.12L114.954 52.7C114.934 53 114.834 53.18 114.634 53.26C115.354 53.98 115.774 54.9 115.774 55.96C115.774 58.44 113.654 60.1 110.614 60.1C107.574 60.1 105.454 58.46 105.454 55.96C105.454 54.92 105.854 53.98 106.594 53.26C106.374 53.18 106.274 53 106.274 52.7L106.234 51.3L103.714 51.36C103.354 51.38 103.114 51.12 103.114 50.76V49.12C103.114 48.76 103.354 48.52 103.714 48.52L117.434 48.44C117.794 48.44 118.034 48.68 118.034 49.04V50.46C118.034 50.82 117.794 51.04 117.434 51.06ZM116.054 47.22L105.754 47.5C104.914 47.5 104.574 47.16 104.554 46.32L104.474 41.84C104.474 41.44 104.654 41.24 105.054 41.24H107.614C108.014 41.24 108.194 41.44 108.194 41.84V44.62H116.094C116.574 44.62 116.754 44.84 116.774 45.32V46.56C116.794 47.02 116.534 47.2 116.054 47.22ZM112.974 55.96C112.974 54.98 112.134 54.24 110.974 54.24C109.714 54.24 108.974 54.98 108.974 55.96C108.974 56.98 109.774 57.68 110.974 57.68C112.134 57.68 112.974 56.98 112.974 55.96ZM111.634 51.9L111.614 51.2L109.594 51.24L109.574 51.9C109.914 51.84 110.254 51.82 110.614 51.82C110.954 51.82 111.294 51.86 111.634 51.9ZM131.848 44.44C131.848 46.8 129.768 48.78 126.088 48.78C122.408 48.78 120.328 46.8 120.328 44.44C120.328 42.06 122.408 40.1 126.088 40.1C129.768 40.1 131.848 42.06 131.848 44.44ZM128.508 44.78C128.508 43.76 127.568 43 126.188 43C124.828 43 123.868 43.76 123.868 44.78C123.868 45.8 124.808 46.56 126.188 46.56C127.548 46.56 128.508 45.8 128.508 44.78ZM132.948 51.96L119.228 52.26C118.868 52.28 118.628 52.02 118.628 51.66V50.22C118.628 49.86 118.868 49.62 119.228 49.62L132.948 49.54C133.308 49.54 133.548 49.78 133.548 50.14V51.36C133.548 51.72 133.308 51.94 132.948 51.96ZM131.648 58.7L121.768 58.84C120.868 58.86 120.388 58.36 120.368 57.46L120.268 53.8C120.248 53.4 120.448 53.2 120.848 53.2L123.168 53.16C123.568 53.16 123.748 53.36 123.748 53.76L123.768 55.96L131.608 56.04C132.028 56.04 132.188 56.2 132.188 56.56V58.08C132.188 58.52 131.988 58.7 131.648 58.7ZM63.8428 85.2L53.6028 85.34C53.0828 85.34 52.7228 84.96 52.7028 84.44L52.6028 81.3C52.5828 80.78 52.9828 80.42 53.5028 80.4L60.6028 80.18L60.6228 79.44L52.9028 79.58C52.5228 79.58 52.3028 79.32 52.3028 78.98V77.8C52.3028 77.4 52.5028 77.2 52.9028 77.2L63.4028 77.04C63.9828 77.02 64.3228 77.36 64.3028 77.94L64.1828 81.28C64.1628 81.8 63.8028 82.16 63.2828 82.18L56.2628 82.32V83.02L63.8628 83.08C64.2228 83.08 64.4628 83.32 64.4628 83.68L64.4428 84.6C64.4428 84.96 64.2028 85.2 63.8428 85.2ZM64.5428 70.52V71.66C64.5428 72.12 64.3028 72.3 63.8228 72.32C61.3228 72.44 57.3628 72.56 53.5228 72.6C52.6828 72.6 52.3428 72.26 52.3228 71.42L52.2428 67.64C52.2428 67.24 52.4228 67.04 52.8228 67.04H55.3828C55.7828 67.04 55.9628 67.24 55.9628 67.64V69.82C59.0828 69.82 61.9028 69.84 63.8628 69.82C64.3428 69.82 64.5428 70.04 64.5428 70.52ZM65.2028 75.98L51.4828 76.28C51.1228 76.3 50.8828 76.04 50.8828 75.68V74.14C50.8828 73.78 51.1228 73.54 51.4828 73.54L65.2028 73.46C65.5628 73.46 65.8028 73.7 65.8028 74.06V75.38C65.8028 75.74 65.5628 75.96 65.2028 75.98ZM82.8106 85.3H80.8106C80.4506 85.3 80.2106 85.06 80.2106 84.7V81.78L72.1506 82C71.8506 82 71.6506 81.8 71.6506 81.5V79.7C71.6506 79.4 71.8506 79.2 72.1506 79.2L75.9506 79.14L75.9106 77.66L70.7906 77.76C70.4306 77.78 70.1906 77.52 70.1906 77.16V75.52C70.1906 75.16 70.4306 74.92 70.7906 74.92L84.5106 74.84C84.8706 74.84 85.1106 75.08 85.1106 75.44V76.86C85.1106 77.22 84.8706 77.44 84.5106 77.46L79.3706 77.58L79.3506 79.06L82.4706 79C83.1706 79 83.6906 79.38 83.6706 80.2C83.6306 81.9 83.5906 83.08 83.4106 84.7C83.3706 85.06 83.1706 85.3 82.8106 85.3ZM83.1306 73.42L72.8306 73.7C71.9906 73.7 71.6506 73.36 71.6306 72.52L71.5506 67.84C71.5506 67.44 71.7306 67.24 72.1306 67.24H74.6906C75.0906 67.24 75.2706 67.44 75.2706 67.84V70.82H83.1706C83.6506 70.82 83.8306 71.04 83.8506 71.52V72.76C83.8706 73.22 83.6106 73.4 83.1306 73.42ZM98.3239 85.3H96.3239C95.9639 85.3 95.7239 85.06 95.7239 84.7V81.78L87.6639 82C87.3639 82 87.1639 81.8 87.1639 81.5V79.7C87.1639 79.4 87.3639 79.2 87.6639 79.2L91.4639 79.14L91.4239 77.66L86.3039 77.76C85.9439 77.78 85.7039 77.52 85.7039 77.16V75.52C85.7039 75.16 85.9439 74.92 86.3039 74.92L100.024 74.84C100.384 74.84 100.624 75.08 100.624 75.44V76.86C100.624 77.22 100.384 77.44 100.024 77.46L94.8839 77.58L94.8639 79.06L97.9839 79C98.6839 79 99.2039 79.38 99.1839 80.2C99.1439 81.9 99.1039 83.08 98.9239 84.7C98.8839 85.06 98.6839 85.3 98.3239 85.3ZM98.6439 73.42L88.3439 73.7C87.5039 73.7 87.1639 73.36 87.1439 72.52L87.0639 67.84C87.0639 67.44 87.2439 67.24 87.6439 67.24H90.2039C90.6039 67.24 90.7839 67.44 90.7839 67.84V70.82H98.6839C99.1639 70.82 99.3439 71.04 99.3639 71.52V72.76C99.3839 73.22 99.1239 73.4 98.6439 73.42Z" fill="#1F1F1F"/>
<path fill-rule="evenodd" clip-rule="evenodd" d="M135.5 25C130.529 25 126.5 20.971 126.5 16C126.5 11.029 130.529 7 135.5 7C140.471 7 144.5 11.029 144.5 16C144.5 20.971 140.471 25 135.5 25Z" fill="#1F1F1F" stroke="#1F1F1F" stroke-width="1.5" stroke-linecap="round" stroke-linejoin="round"/>
<path d="M139.5 14L134.5 19L131.5 16" stroke="white" stroke-width="1.5" stroke-linecap="round" stroke-linejoin="round"/>
</svg>
