<svg width="152" height="100" viewBox="0 0 152 100" fill="none" xmlns="http://www.w3.org/2000/svg">
<g clip-path="url(#clip0_680_961)">
<rect width="151.5" height="100" rx="12" fill="white"/>
<path fill-rule="evenodd" clip-rule="evenodd" d="M135.5 25C130.529 25 126.5 20.971 126.5 16C126.5 11.029 130.529 7 135.5 7C140.471 7 144.5 11.029 144.5 16C144.5 20.971 140.471 25 135.5 25Z" fill="#1F1F1F" stroke="#1F1F1F" stroke-width="1.5" stroke-linecap="round" stroke-linejoin="round"/>
<path d="M139.5 14L134.5 19L131.5 16" stroke="white" stroke-width="1.5" stroke-linecap="round" stroke-linejoin="round"/>
<path d="M46 24H104C107.866 24 111 27.134 111 31V117H39V31C39 27.134 42.134 24 46 24Z" fill="#E0E0E0"/>
<path d="M46 24H104C107.866 24 111 27.134 111 31V117H39V31C39 27.134 42.134 24 46 24Z" stroke="#333333" stroke-width="2"/>
<path d="M56.5984 37.4365H92.9017" stroke="#BDBDBD" stroke-width="4" stroke-linecap="round" stroke-linejoin="round"/>
<path d="M49.843 47.4365H99.6572" stroke="#BDBDBD" stroke-width="4" stroke-linecap="round" stroke-linejoin="round"/>
<path d="M56.5984 57.4365H92.9017" stroke="#BDBDBD" stroke-width="4" stroke-linecap="round" stroke-linejoin="round"/>
<rect x="29.75" y="67" width="44" height="25" rx="8" fill="#333333"/>
<path d="M47.58 84.73C46.87 84.73 46.29 84.69 45.86 84.6C44.94 84.43 44.48 83.97 44.48 83.23V82.72C44.48 82.24 44.82 81.9 45.3 81.9H49.1C49.15 81.9 49.18 81.87 49.18 81.81V81.46C49.18 81.41 49.16 81.39 49.12 81.39H45.06C44.67 81.39 44.44 81.16 44.44 80.79C44.44 80.42 44.67 80.19 45.06 80.19H49.64C50.12 80.19 50.46 80.54 50.46 81.03V82.22C50.46 82.67 50.15 82.98 49.71 82.98H45.87C45.8 82.98 45.76 83.01 45.76 83.08V83.22C45.76 83.35 45.89 83.44 46.15 83.47C46.41 83.51 46.87 83.53 47.52 83.53C48.37 83.53 49.29 83.46 49.88 83.33C49.95 83.32 50.01 83.31 50.07 83.31C50.35 83.31 50.56 83.49 50.61 83.78C50.62 83.8 50.62 83.84 50.62 83.91C50.62 84.19 50.42 84.41 50.1 84.48C49.46 84.63 48.31 84.73 47.58 84.73ZM42.83 79.3C42.83 79.09 42.92 78.93 43.11 78.82C44.34 78.05 44.96 77.15 44.96 76.13V75.94C44.96 75.54 45.19 75.3 45.62 75.3C46.01 75.3 46.26 75.54 46.26 75.94V76.13C46.26 76.4 46.22 76.69 46.15 77C47 77.53 47.68 78.07 48.18 78.62C48.31 78.77 48.37 78.92 48.37 79.08C48.37 79.27 48.3 79.43 48.15 79.56C48.02 79.67 47.89 79.72 47.74 79.72C47.55 79.72 47.39 79.65 47.24 79.5C46.73 78.99 46.19 78.56 45.61 78.19C45.18 78.84 44.56 79.42 43.85 79.82C43.72 79.89 43.58 79.93 43.45 79.93C43.27 79.93 43.11 79.85 42.98 79.7C42.88 79.57 42.83 79.43 42.83 79.3ZM49.18 79.14V75.66C49.18 75.29 49.44 75.06 49.83 75.06H49.88C50.27 75.06 50.53 75.29 50.53 75.66V79.14C50.53 79.51 50.27 79.74 49.88 79.74H49.83C49.44 79.74 49.18 79.51 49.18 79.14ZM52.5269 82.38C52.1369 82.38 51.9069 82.14 51.9069 81.77C51.9069 81.4 52.1569 81.16 52.5269 81.17L52.7269 81.18C52.6869 81.07 52.6669 80.93 52.6669 80.77V76.82H52.5469C52.1569 76.82 51.9269 76.6 51.9269 76.23C51.9269 75.86 52.1769 75.62 52.5469 75.62H55.9769C56.3469 75.62 56.5969 75.86 56.5969 76.23C56.5969 76.6 56.3669 76.82 55.9769 76.82H55.8569V80.77C55.8569 80.93 55.8369 81.07 55.7969 81.18L55.9969 81.17C56.3669 81.16 56.6169 81.4 56.6169 81.77C56.6169 82.14 56.3669 82.38 55.9969 82.38H52.5269ZM53.9269 80.93C53.9269 81.12 53.9869 81.18 54.1569 81.18H54.3869C54.5469 81.18 54.5969 81.12 54.5969 80.93V76.82H53.9269V80.93ZM56.7769 83.87V75.8C56.7769 75.4 57.0269 75.16 57.4169 75.16C57.8069 75.16 58.0369 75.4 58.0369 75.8V78.29H58.8069V75.7C58.8069 75.3 59.0569 75.06 59.4469 75.06C59.8369 75.06 60.0669 75.3 60.0669 75.7V84C60.0669 84.4 59.8369 84.64 59.4469 84.64C59.0569 84.64 58.8069 84.4 58.8069 84V79.49H58.0369V83.87C58.0369 84.27 57.8069 84.51 57.4169 84.51C57.0269 84.51 56.7769 84.27 56.7769 83.87Z" fill="white"/>
<rect x="77.75" y="67" width="44" height="25" rx="8" fill="#333333"/>
<path d="M91.44 80.15C91.27 80.15 91.11 80.08 90.98 79.95C90.87 79.82 90.81 79.67 90.81 79.51C90.81 79.32 90.89 79.16 91.06 79.03C92.26 78.16 92.96 77.29 92.96 76.36V75.94C92.96 75.54 93.19 75.3 93.62 75.3C94.01 75.3 94.26 75.54 94.26 75.94V76.36C94.26 76.62 94.22 76.9 94.15 77.19C95.03 77.71 95.71 78.24 96.19 78.77C96.32 78.92 96.39 79.08 96.39 79.25C96.39 79.42 96.33 79.57 96.2 79.69C96.05 79.83 95.9 79.9 95.73 79.9C95.58 79.9 95.44 79.84 95.32 79.72C94.71 79.13 94.13 78.68 93.6 78.37C93.2 78.97 92.63 79.52 91.89 80.01C91.74 80.1 91.59 80.15 91.44 80.15ZM93.15 82.54C93.15 81.22 94.16 80.21 95.67 80.21C97.16 80.21 98.19 81.19 98.19 82.54C98.19 83.9 97.16 84.87 95.67 84.87C94.14 84.87 93.15 83.89 93.15 82.54ZM94.45 82.54C94.45 83.21 94.95 83.67 95.67 83.67C96.39 83.67 96.89 83.21 96.89 82.54C96.89 81.89 96.39 81.41 95.67 81.41C94.95 81.41 94.45 81.89 94.45 82.54ZM95.35 77.29C95.35 76.92 95.58 76.69 95.97 76.69H97.18V75.66C97.18 75.29 97.44 75.06 97.83 75.06H97.88C98.27 75.06 98.53 75.29 98.53 75.66V79.77C98.53 80.14 98.27 80.37 97.88 80.37H97.83C97.44 80.37 97.18 80.14 97.18 79.77V77.89H95.97C95.58 77.89 95.35 77.66 95.35 77.29ZM100.497 80.24C100.097 80.24 99.8469 80 99.8469 79.64C99.8469 79.28 100.097 79.04 100.497 79.04H103.007V77.97C103.007 77.6 103.267 77.37 103.657 77.37H103.707C104.097 77.37 104.357 77.6 104.357 77.97V79.04H107.897C108.297 79.04 108.547 79.28 108.547 79.64C108.547 80 108.297 80.24 107.897 80.24H100.497ZM101.137 75.9C101.137 75.53 101.367 75.3 101.757 75.3H106.327C106.807 75.3 107.147 75.64 107.147 76.15C107.147 76.96 107.047 77.57 106.837 77.99C106.707 78.24 106.527 78.36 106.297 78.36C106.207 78.36 106.107 78.34 106.007 78.3C105.737 78.2 105.607 78.03 105.607 77.79C105.607 77.74 105.627 77.65 105.657 77.54C105.757 77.21 105.807 76.9 105.807 76.61C105.807 76.54 105.767 76.5 105.697 76.5H101.757C101.367 76.5 101.137 76.27 101.137 75.9ZM101.697 82.76C101.697 81.6 102.647 80.65 104.197 80.65C105.747 80.65 106.697 81.6 106.697 82.76C106.697 83.98 105.687 84.87 104.197 84.87C102.707 84.87 101.697 83.98 101.697 82.76ZM103.047 82.76C103.047 83.29 103.517 83.68 104.197 83.68C104.877 83.68 105.347 83.29 105.347 82.76C105.347 82.23 104.877 81.84 104.197 81.84C103.517 81.84 103.047 82.23 103.047 82.76Z" fill="white"/>
</g>
<rect x="1" y="1" width="149.5" height="98" rx="11" stroke="#1F1F1F" stroke-width="2"/>
<defs>
<clipPath id="clip0_680_961">
<rect width="151.5" height="100" rx="12" fill="white"/>
</clipPath>
</defs>
</svg>
