<svg width="152" height="100" viewBox="0 0 152 100" fill="none" xmlns="http://www.w3.org/2000/svg">
<g clip-path="url(#clip0_680_1014)">
<rect width="151.5" height="100" rx="12" fill="#F5F5F5"/>
<g opacity="0.1">
<path fill-rule="evenodd" clip-rule="evenodd" d="M135.5 25V25C130.529 25 126.5 20.971 126.5 16V16C126.5 11.029 130.529 7 135.5 7V7C140.471 7 144.5 11.029 144.5 16V16C144.5 20.971 140.471 25 135.5 25Z" stroke="#1F1F1F" stroke-width="1.5" stroke-linecap="round" stroke-linejoin="round"/>
</g>
<path d="M46 24H104C107.866 24 111 27.134 111 31V107H39V31C39 27.134 42.134 24 46 24Z" fill="#F5F5F5"/>
<path d="M46 24H104C107.866 24 111 27.134 111 31V107H39V31C39 27.134 42.134 24 46 24Z" stroke="#E0E0E0" stroke-width="2"/>
<path d="M56.5984 37.4365H92.9017" stroke="#E0E0E0" stroke-width="4" stroke-linecap="round" stroke-linejoin="round"/>
<path d="M49.843 47.4365H99.6572" stroke="#E0E0E0" stroke-width="4" stroke-linecap="round" stroke-linejoin="round"/>
<path d="M56.5984 57.4365H92.9017" stroke="#E0E0E0" stroke-width="4" stroke-linecap="round" stroke-linejoin="round"/>
<circle cx="117.652" cy="50.6299" r="10.2227" fill="white"/>
<path d="M128.497 42.4997L127.164 41.1663M125.83 39.833L127.164 41.1663M127.164 41.1663L125.292 43.228" stroke="#E0E0E0" stroke-width="2" stroke-linecap="round" stroke-linejoin="round"/>
<path d="M125.039 43.2912C129.205 47.4568 129.205 54.2105 125.039 58.3761C120.874 62.5417 114.12 62.5417 109.954 58.3761C105.789 54.2105 105.789 47.4568 109.954 43.2912C114.12 39.1256 120.874 39.1256 125.039 43.2912" stroke="#E0E0E0" stroke-width="2" stroke-linecap="round" stroke-linejoin="round"/>
<path d="M114.83 37.1667H120.163" stroke="#E0E0E0" stroke-width="2" stroke-linecap="round" stroke-linejoin="round"/>
<path d="M117.496 37.2715L117.496 40.1663" stroke="#E0E0E0" stroke-width="2" stroke-linecap="round" stroke-linejoin="round"/>
<path d="M117.496 58.7677C121.877 58.7677 125.429 55.2157 125.429 50.834C125.429 46.4524 121.877 42.9004 117.496 42.9004V50.834L112.178 56.7216C113.585 57.9933 115.45 58.7677 117.496 58.7677Z" fill="#E0E0E0"/>
<rect x="32" y="67" width="87" height="25" rx="8" fill="#E0E0E0"/>
<path d="M67.19 80.15C67.02 80.15 66.86 80.08 66.73 79.95C66.62 79.82 66.56 79.67 66.56 79.51C66.56 79.32 66.64 79.16 66.81 79.03C68.01 78.16 68.71 77.29 68.71 76.36V75.94C68.71 75.54 68.94 75.3 69.37 75.3C69.76 75.3 70.01 75.54 70.01 75.94V76.36C70.01 76.62 69.97 76.9 69.9 77.19C70.78 77.71 71.46 78.24 71.94 78.77C72.07 78.92 72.14 79.08 72.14 79.25C72.14 79.42 72.08 79.57 71.95 79.69C71.8 79.83 71.65 79.9 71.48 79.9C71.33 79.9 71.19 79.84 71.07 79.72C70.46 79.13 69.88 78.68 69.35 78.37C68.95 78.97 68.38 79.52 67.64 80.01C67.49 80.1 67.34 80.15 67.19 80.15ZM68.9 82.54C68.9 81.22 69.91 80.21 71.42 80.21C72.91 80.21 73.94 81.19 73.94 82.54C73.94 83.9 72.91 84.87 71.42 84.87C69.89 84.87 68.9 83.89 68.9 82.54ZM70.2 82.54C70.2 83.21 70.7 83.67 71.42 83.67C72.14 83.67 72.64 83.21 72.64 82.54C72.64 81.89 72.14 81.41 71.42 81.41C70.7 81.41 70.2 81.89 70.2 82.54ZM71.1 77.29C71.1 76.92 71.33 76.69 71.72 76.69H72.93V75.66C72.93 75.29 73.19 75.06 73.58 75.06H73.63C74.02 75.06 74.28 75.29 74.28 75.66V79.77C74.28 80.14 74.02 80.37 73.63 80.37H73.58C73.19 80.37 72.93 80.14 72.93 79.77V77.89H71.72C71.33 77.89 71.1 77.66 71.1 77.29ZM76.2469 80.24C75.8469 80.24 75.5969 80 75.5969 79.64C75.5969 79.28 75.8469 79.04 76.2469 79.04H78.7569V77.97C78.7569 77.6 79.0169 77.37 79.4069 77.37H79.4569C79.8469 77.37 80.1069 77.6 80.1069 77.97V79.04H83.6469C84.0469 79.04 84.2969 79.28 84.2969 79.64C84.2969 80 84.0469 80.24 83.6469 80.24H76.2469ZM76.8869 75.9C76.8869 75.53 77.1169 75.3 77.5069 75.3H82.0769C82.5569 75.3 82.8969 75.64 82.8969 76.15C82.8969 76.96 82.7969 77.57 82.5869 77.99C82.4569 78.24 82.2769 78.36 82.0469 78.36C81.9569 78.36 81.8569 78.34 81.7569 78.3C81.4869 78.2 81.3569 78.03 81.3569 77.79C81.3569 77.74 81.3769 77.65 81.4069 77.54C81.5069 77.21 81.5569 76.9 81.5569 76.61C81.5569 76.54 81.5169 76.5 81.4469 76.5H77.5069C77.1169 76.5 76.8869 76.27 76.8869 75.9ZM77.4469 82.76C77.4469 81.6 78.3969 80.65 79.9469 80.65C81.4969 80.65 82.4469 81.6 82.4469 82.76C82.4469 83.98 81.4369 84.87 79.9469 84.87C78.4569 84.87 77.4469 83.98 77.4469 82.76ZM78.7969 82.76C78.7969 83.29 79.2669 83.68 79.9469 83.68C80.6269 83.68 81.0969 83.29 81.0969 82.76C81.0969 82.23 80.6269 81.84 79.9469 81.84C79.2669 81.84 78.7969 82.23 78.7969 82.76Z" fill="white"/>
</g>
<defs>
<clipPath id="clip0_680_1014">
<rect width="151.5" height="100" rx="12" fill="white"/>
</clipPath>
</defs>
</svg>
