<svg width="152" height="100" viewBox="0 0 152 100" fill="none" xmlns="http://www.w3.org/2000/svg">
<rect x="1" y="1" width="149.5" height="98" rx="11" fill="white"/>
<rect x="1" y="1" width="149.5" height="98" rx="11" stroke="#1F1F1F" stroke-width="2"/>
<path d="M51.2185 59.192C48.2125 59.192 46.1605 57.392 46.1605 54.872C46.1605 52.316 48.2305 50.498 51.2185 50.498C54.2425 50.498 56.2945 52.316 56.2945 54.872C56.2945 57.41 54.2245 59.192 51.2185 59.192ZM43.0465 45.296V43.226C43.0465 42.362 43.6045 41.876 44.4865 41.876H44.5765C45.4585 41.876 46.0165 42.362 46.0165 43.226L46.0345 45.206C46.0525 46.574 46.6285 47.078 47.9425 47.078C48.8605 47.078 49.8325 46.916 50.8765 46.574C51.0745 46.52 51.2545 46.484 51.3985 46.484C51.9565 46.484 52.3705 46.826 52.5685 47.402C52.6225 47.618 52.6585 47.798 52.6585 47.96C52.6585 48.518 52.3345 48.95 51.7045 49.166C50.4265 49.58 49.2205 49.778 47.5645 49.778C44.4145 49.778 43.0465 48.392 43.0465 45.296ZM49.1305 54.854C49.1305 55.844 49.9765 56.564 51.2545 56.564C52.4965 56.564 53.3245 55.844 53.3245 54.854C53.3245 53.828 52.4965 53.09 51.2545 53.09C49.9765 53.09 49.1305 53.828 49.1305 54.854ZM53.5945 49.274V42.668C53.5945 41.804 54.1525 41.318 55.0345 41.318H55.1245C56.0065 41.318 56.5645 41.804 56.5645 42.668V44.324H57.4825C58.3465 44.324 58.8325 44.828 58.8325 45.674C58.8325 46.52 58.3465 47.024 57.4825 47.024H56.5645V49.274C56.5645 50.138 56.0065 50.624 55.1245 50.624H55.0345C54.1525 50.624 53.5945 50.138 53.5945 49.274ZM60.8023 51.074C59.7943 51.074 59.2723 50.588 59.2723 49.796C59.2723 49.004 59.7943 48.518 60.8023 48.518H64.9423V47.906C64.9423 47.348 65.2663 46.97 65.8423 46.808C64.5463 46.826 63.5563 46.844 62.8543 46.844C62.0623 46.844 61.7203 46.376 61.7203 45.674C61.7203 45.008 62.0983 44.558 62.8903 44.558L69.8563 44.594V44.252C69.8563 44.054 69.7303 43.946 69.5863 43.946H63.0703C62.2243 43.946 61.7203 43.46 61.7203 42.758C61.7203 42.056 62.2243 41.57 63.0703 41.57H70.9363C72.2863 41.57 72.8263 42.02 72.8263 43.37C72.8263 44.324 72.6823 45.764 72.4123 46.934C72.2503 47.708 71.8183 48.086 71.1343 48.086C71.0443 48.086 70.8643 48.068 70.5943 48.014C69.9283 47.87 69.5863 47.456 69.5863 46.952C69.5863 46.844 69.5863 46.772 69.6043 46.718C69.0103 46.736 68.1103 46.772 66.9403 46.79C67.5343 46.934 67.9123 47.348 67.9123 47.906V48.518H73.7623C74.7703 48.518 75.2923 49.004 75.2923 49.796C75.2923 50.588 74.7703 51.074 73.7623 51.074H60.8023ZM62.3503 55.448C62.3503 53.234 64.1683 51.722 67.2463 51.722C70.3603 51.722 72.1603 53.234 72.1603 55.448C72.1603 57.662 70.3243 59.192 67.2463 59.192C64.1863 59.192 62.3503 57.662 62.3503 55.448ZM65.2843 55.448C65.2843 56.186 66.0583 56.654 67.2823 56.654C68.4883 56.654 69.2263 56.186 69.2263 55.448C69.2263 54.71 68.4523 54.224 67.2823 54.224C66.0583 54.224 65.2843 54.71 65.2843 55.448ZM84.876 58.868C81.06 58.868 78.99 57.932 78.99 55.286V51.668C78.99 50.57 79.584 49.976 80.736 49.976H88.98C89.898 49.976 90.42 50.426 90.42 51.2C90.42 51.974 89.898 52.424 88.98 52.424H82.212C82.014 52.424 81.96 52.478 81.96 52.64V53.162H89.106C89.844 53.162 90.276 53.594 90.276 54.296C90.276 54.998 89.844 55.43 89.106 55.43H81.96V55.556C81.96 55.844 82.23 56.06 82.752 56.204C83.274 56.348 84.012 56.42 84.966 56.42C86.478 56.42 87.918 56.294 89.268 56.06L89.628 56.024C90.366 56.024 90.87 56.528 90.87 57.338C90.87 57.896 90.474 58.292 89.808 58.436C88.44 58.724 86.802 58.868 84.876 58.868ZM76.47 47.87C76.47 47.06 76.974 46.556 77.82 46.556H78.234C78.072 46.25 78 45.908 78 45.494V44.468H77.892C77.046 44.468 76.542 43.964 76.542 43.154C76.542 42.344 77.046 41.84 77.892 41.84H85.38C86.226 41.84 86.73 42.344 86.73 43.154C86.73 43.964 86.226 44.468 85.38 44.468H85.272V45.494C85.272 45.908 85.2 46.25 85.038 46.556H85.452C86.298 46.556 86.802 47.06 86.802 47.87C86.802 48.68 86.298 49.184 85.452 49.184H77.82C76.974 49.184 76.47 48.68 76.47 47.87ZM80.808 45.728C80.808 46.286 80.988 46.484 81.636 46.484C82.284 46.484 82.464 46.286 82.464 45.728V44.468H80.808V45.728ZM87.45 48.086V42.668C87.45 41.804 88.008 41.318 88.89 41.318H88.98C89.862 41.318 90.42 41.804 90.42 42.668V44.144H91.32C92.184 44.144 92.67 44.648 92.67 45.494C92.67 46.34 92.184 46.844 91.32 46.844H90.42V48.086C90.42 48.95 89.862 49.436 88.98 49.436H88.89C88.008 49.436 87.45 48.95 87.45 48.086ZM106.358 50.624C105.476 50.624 104.918 50.138 104.918 49.274V48.698H102.776C102.578 48.698 102.398 48.68 102.236 48.644C101.858 49.418 101.12 49.796 99.8957 49.796H96.8357C94.9637 49.796 94.0277 48.914 94.0277 47.042V43.064C94.0277 42.2 94.5677 41.714 95.4317 41.714H95.5397C96.4037 41.714 96.9437 42.182 96.9437 42.884V43.352H99.6077V42.884C99.6077 42.182 100.148 41.714 101.012 41.714H101.12C101.912 41.714 102.434 42.128 102.506 42.866C102.56 42.848 102.65 42.848 102.776 42.848H104.918V42.668C104.918 41.804 105.476 41.318 106.358 41.318H106.448C107.33 41.318 107.888 41.804 107.888 42.668V49.274C107.888 50.138 107.33 50.624 106.448 50.624H106.358ZM96.9437 46.628C96.9437 47.042 97.1057 47.168 97.6637 47.168H98.8877C99.4457 47.168 99.6077 47.042 99.6077 46.628V45.872H96.9437V46.628ZM97.4837 54.872C97.4837 52.316 99.5537 50.498 102.542 50.498C105.566 50.498 107.618 52.316 107.618 54.872C107.618 57.41 105.548 59.192 102.542 59.192C99.5357 59.192 97.4837 57.392 97.4837 54.872ZM100.454 54.854C100.454 55.844 101.3 56.564 102.578 56.564C103.82 56.564 104.648 55.844 104.648 54.854C104.648 53.828 103.82 53.09 102.578 53.09C101.3 53.09 100.454 53.828 100.454 54.854ZM102.524 46.196C102.578 46.178 102.65 46.178 102.776 46.178H104.918V45.368H102.776C102.65 45.368 102.578 45.368 102.524 45.35V46.196Z" fill="#1F1F1F"/>
<path fill-rule="evenodd" clip-rule="evenodd" d="M135.5 25C130.529 25 126.5 20.971 126.5 16C126.5 11.029 130.529 7 135.5 7C140.471 7 144.5 11.029 144.5 16C144.5 20.971 140.471 25 135.5 25Z" fill="#1F1F1F" stroke="#1F1F1F" stroke-width="1.5" stroke-linecap="round" stroke-linejoin="round"/>
<path d="M139.5 14L134.5 19L131.5 16" stroke="white" stroke-width="1.5" stroke-linecap="round" stroke-linejoin="round"/>
</svg>
