<svg width="152" height="100" viewBox="0 0 152 100" fill="none" xmlns="http://www.w3.org/2000/svg">
<g clip-path="url(#clip0_680_937)">
<rect width="151.5" height="100" rx="12" fill="white"/>
<path fill-rule="evenodd" clip-rule="evenodd" d="M135.5 25C130.529 25 126.5 20.971 126.5 16C126.5 11.029 130.529 7 135.5 7C140.471 7 144.5 11.029 144.5 16C144.5 20.971 140.471 25 135.5 25Z" fill="#1F1F1F" stroke="#1F1F1F" stroke-width="1.5" stroke-linecap="round" stroke-linejoin="round"/>
<path d="M139.5 14L134.5 19L131.5 16" stroke="white" stroke-width="1.5" stroke-linecap="round" stroke-linejoin="round"/>
<path d="M46 24H104C107.866 24 111 27.134 111 31V107H39V31C39 27.134 42.134 24 46 24Z" fill="#E0E0E0"/>
<path d="M46 24H104C107.866 24 111 27.134 111 31V107H39V31C39 27.134 42.134 24 46 24Z" stroke="#333333" stroke-width="2"/>
<path d="M56.5985 37.4365H92.9018" stroke="#BDBDBD" stroke-width="4" stroke-linecap="round" stroke-linejoin="round"/>
<path d="M49.843 47.4365H99.6572" stroke="#BDBDBD" stroke-width="4" stroke-linecap="round" stroke-linejoin="round"/>
<path d="M56.5985 57.4365H92.9018" stroke="#BDBDBD" stroke-width="4" stroke-linecap="round" stroke-linejoin="round"/>
<circle cx="117.652" cy="50.6299" r="10.2227" fill="white"/>
<path d="M128.497 42.4997L127.164 41.1663M125.83 39.833L127.164 41.1663M127.164 41.1663L125.292 43.228" stroke="#1F1F1F" stroke-width="2" stroke-linecap="round" stroke-linejoin="round"/>
<path d="M125.039 43.2912C129.205 47.4568 129.205 54.2105 125.039 58.3761C120.874 62.5417 114.12 62.5417 109.954 58.3761C105.789 54.2105 105.789 47.4568 109.954 43.2912C114.12 39.1256 120.874 39.1256 125.039 43.2912" stroke="#1F1F1F" stroke-width="2" stroke-linecap="round" stroke-linejoin="round"/>
<path d="M114.83 37.1667H120.163" stroke="#1F1F1F" stroke-width="2" stroke-linecap="round" stroke-linejoin="round"/>
<path d="M117.496 37.2715L117.496 40.1663" stroke="#1F1F1F" stroke-width="2" stroke-linecap="round" stroke-linejoin="round"/>
<path d="M117.496 58.7677C121.877 58.7677 125.429 55.2157 125.429 50.834C125.429 46.4524 121.877 42.9004 117.496 42.9004V50.834L112.178 56.7216C113.585 57.9933 115.45 58.7677 117.496 58.7677Z" fill="#BDBDBD"/>
<rect x="32" y="67" width="87" height="24" rx="8" fill="#333333"/>
<path d="M69.4639 75.4785C69.4602 75.936 69.5462 76.3679 69.7219 76.7742C69.8976 77.1805 70.1611 77.5392 70.5125 77.8503C70.8675 78.1577 71.2976 78.392 71.8027 78.553L71.1438 79.5083C70.6095 79.3216 70.152 79.0544 69.7713 78.7067C69.3943 78.359 69.0979 77.9454 68.8819 77.466C68.6587 78.0186 68.3384 78.4981 67.9211 78.9044C67.5039 79.307 67.0006 79.6108 66.4114 79.8157L65.7635 78.8275C66.2979 78.6518 66.7499 78.3974 67.1196 78.0644C67.4893 77.7313 67.7674 77.347 67.9541 76.9115C68.1407 76.4759 68.2341 76.0166 68.2341 75.5334V74.5891H69.4639V75.4785ZM74.1415 79.8926H72.9226V76.9718H70.9462V75.9726H72.9226V74.0511H74.1415V79.8926ZM70.7815 80.1561C71.4806 80.1561 72.0845 80.2311 72.5932 80.3812C73.1057 80.5313 73.4973 80.7509 73.7681 81.04C74.039 81.3255 74.1744 81.6677 74.1744 82.0667C74.1744 82.4656 74.039 82.8078 73.7681 83.0933C73.4973 83.3788 73.1075 83.5948 72.5987 83.7412C72.09 83.8912 71.4842 83.9663 70.7815 83.9663C70.0824 83.9663 69.4785 83.8912 68.9698 83.7412C68.4647 83.5948 68.0767 83.3788 67.8059 83.0933C67.5387 82.8078 67.4069 82.4656 67.4106 82.0667C67.4069 81.6677 67.5387 81.3255 67.8059 81.04C68.0767 80.7509 68.4665 80.5313 68.9752 80.3812C69.484 80.2311 70.0861 80.1561 70.7815 80.1561ZM70.7815 81.1004C70.0861 81.1004 69.5517 81.1846 69.1784 81.353C68.8051 81.5177 68.6184 81.7556 68.6184 82.0667C68.6184 82.3705 68.8051 82.6047 69.1784 82.7694C69.5554 82.9305 70.0897 83.011 70.7815 83.011C71.4733 83.011 72.0076 82.9286 72.3846 82.7639C72.7653 82.5992 72.9556 82.3668 72.9556 82.0667C72.9556 81.7556 72.7671 81.5177 72.3901 81.353C72.0131 81.1846 71.4769 81.1004 70.7815 81.1004ZM80.0159 80.2549C80.7333 80.2586 81.3555 80.3355 81.8825 80.4855C82.4096 80.6319 82.8159 80.8442 83.1013 81.1224C83.3905 81.4005 83.5369 81.7336 83.5405 82.1216C83.5369 82.5022 83.3905 82.8298 83.1013 83.1043C82.8159 83.3825 82.4078 83.5948 81.877 83.7412C81.35 83.8912 80.7296 83.9663 80.0159 83.9663C79.3058 83.9663 78.6854 83.8912 78.1547 83.7412C77.6277 83.5948 77.2196 83.3825 76.9304 83.1043C76.645 82.8298 76.5022 82.5022 76.5022 82.1216C76.5022 81.7336 76.645 81.4005 76.9304 81.1224C77.2196 80.8442 77.6277 80.6319 78.1547 80.4855C78.6818 80.3355 79.3022 80.2586 80.0159 80.2549ZM80.0159 81.1773C79.2985 81.1773 78.7367 81.2596 78.3304 81.4243C77.9278 81.589 77.7283 81.8215 77.732 82.1216C77.7283 82.4107 77.9278 82.634 78.3304 82.7914C78.733 82.9451 79.2949 83.022 80.0159 83.022C80.7406 83.022 81.3061 82.9451 81.7123 82.7914C82.1223 82.634 82.3291 82.4107 82.3327 82.1216C82.3291 81.8215 82.1223 81.589 81.7123 81.4243C81.3061 81.2596 80.7406 81.1773 80.0159 81.1773ZM83.4747 75.3468C83.4747 75.8738 83.4582 76.3313 83.4253 76.7193C83.396 77.1073 83.3209 77.5282 83.2002 77.982L81.9923 77.8722C82.1021 77.4367 82.1735 77.0432 82.2064 76.6918C82.2394 76.3368 82.2559 75.936 82.2559 75.4895H76.601V74.5232H83.4747V75.3468ZM84.5727 79.5412H75.5689V78.553H79.0606V76.7522H80.2684V78.553H84.5727V79.5412Z" fill="white"/>
</g>
<rect x="1" y="1" width="149.5" height="98" rx="11" stroke="#1F1F1F" stroke-width="2"/>
<defs>
<clipPath id="clip0_680_937">
<rect width="151.5" height="100" rx="12" fill="white"/>
</clipPath>
</defs>
</svg>
