<svg width="243" height="320" viewBox="0 0 243 320" fill="none" xmlns="http://www.w3.org/2000/svg">
<path d="M74.9134 247.529C76.3183 240.973 73.1963 227.861 72.1037 225.207C72.1037 224.407 70.73 221.378 65.2354 215.656L98.0158 205.227L104.65 217.873L111.284 230.519C109.879 243.475 111.752 248.626 112.221 255.651C112.689 262.675 111.284 267.978 105.196 270.944C100.4 273.28 84.4354 276.875 74.289 271.724C63.3489 266.17 73.1836 255.601 74.9134 247.529Z" fill="#FAA9C8"/>
<path d="M74.478 253.815C77.5479 251.786 83.2507 249.569 90.8683 254.439" stroke="#DD89AC" stroke-width="3.2" stroke-linecap="round"/>
<path d="M159.445 247.529C158.04 240.973 161.162 227.861 162.255 225.207C162.255 224.407 163.628 221.378 169.123 215.656L136.343 205.227L129.708 217.873L123.074 230.519C124.479 243.475 122.606 248.626 122.138 255.651C121.669 262.675 123.074 267.978 129.162 270.944C133.958 273.28 149.923 276.875 160.069 271.724C171.01 266.17 161.175 255.601 159.445 247.529Z" fill="#FAA9C8"/>
<path d="M159.88 253.815C156.81 251.786 151.108 249.569 143.49 254.439" stroke="#DD89AC" stroke-width="3.2" stroke-linecap="round"/>
<path d="M69.8064 87.8452C73.6 55.7712 101.936 49.5967 116.926 49.5967C140.028 49.5967 159.54 62.0801 163.911 83.9383C164.691 87.2684 166.261 97.55 166.386 112.036C167.107 131.26 176.91 137.381 179.617 165.551C183.191 202.734 172.507 213.553 165.137 220.055C152.493 231.212 79.228 243.537 60.3959 210.533C44.3428 182.4 65.3817 125.257 69.8064 87.8452Z" fill="#FAA9C8"/>
<path d="M85.2485 225.872C105.762 231.335 121.619 232.584 146.439 226.34" stroke="#DD89AC" stroke-width="3.2" stroke-linecap="round"/>
<path d="M126.054 66.5343C128.123 66.3076 132.265 67.3247 135.293 70.8872" stroke="#2E363C" stroke-width="3.65714" stroke-linecap="round"/>
<path d="M117.615 103.329C120.546 103.329 124.634 103.253 126.575 103.44C127.794 103.506 128.799 103.654 129.366 103.919C132.097 105.196 133.005 119.004 117.59 119.636C102.175 119.004 103.085 105.196 105.817 103.919C106.317 103.686 107.159 103.544 108.188 103.468C110.036 103.292 114.529 103.329 117.615 103.329Z" fill="#2E363C"/>
<path d="M117.591 108.954C123.202 108.954 127.864 111.453 128.795 114.741C126.838 117.319 123.356 119.4 117.59 119.636C111.826 119.4 108.344 117.321 106.387 114.743C107.315 111.455 111.978 108.954 117.591 108.954Z" fill="#F571A2"/>
<path d="M97.7276 70.8852C99.1662 69.3811 102.652 66.9115 107.262 67.6921" stroke="#2E363C" stroke-width="3.65714" stroke-linecap="round"/>
<ellipse cx="105.611" cy="87.886" rx="9.37049" ry="12.7844" transform="rotate(-0.137074 105.611 87.886)" fill="white"/>
<ellipse cx="107.707" cy="89.0105" rx="5.93171" ry="8.89756" transform="rotate(3.47718 107.707 89.0105)" fill="#2E363C"/>
<ellipse cx="9.37048" cy="12.7844" rx="9.37048" ry="12.7844" transform="matrix(-0.995745 0.0921482 0.0921482 0.995745 135.878 73.8086)" fill="white"/>
<ellipse cx="5.93171" cy="8.89756" rx="5.93171" ry="8.89756" transform="matrix(-0.987956 0.154736 0.154736 0.987956 130.465 79.1729)" fill="#2E363C"/>
<path d="M34.7442 169.6C27.0163 146.415 61.2581 129.829 64.915 115.657L63.087 153.6C91.4299 150.4 84.1156 144.457 88.687 133.942C93.2585 123.428 96.0013 126.628 104.687 127.542C111.636 128.274 112.763 137.6 112.458 142.171C110.935 147.504 107.704 159.36 106.973 164.114C106.241 168.868 83.5059 181.486 77.7155 185.143C62.4773 191.848 41.6012 190.172 34.7442 169.6Z" fill="#FAA9C8"/>
<path d="M65.8616 153.676C74.2397 154.182 84.7342 148.447 85.4919 142.879C87.1969 130.351 89.2674 123.414 98.1307 123.181C100.591 123.116 110.072 125.156 111.601 131.569C113.13 137.983 110.242 145.609 108.155 156.4C106.259 166.202 82.1034 185.561 68.8561 187.904C67.8729 188.078 60.5869 189.28 52.9562 186.364" stroke="#DD89AC" stroke-width="3.2" stroke-linecap="round" stroke-linejoin="round"/>
<path d="M34.7432 169.599C27.0154 146.414 61.2571 129.828 64.914 115.656L63.0861 153.599C91.4289 150.399 83.6566 142.171 88.2281 131.657C92.7995 121.142 95.0852 122.971 103.771 123.885C110.719 124.617 112.761 133.942 112.457 138.514C110.933 143.847 107.773 157.482 105.599 161.828C102.399 168.228 83.505 181.485 77.7145 185.142C64.914 194.285 41.6002 190.171 34.7432 169.599Z" fill="#FAA9C8"/>
<path d="M65.8611 153.676C74.2392 154.182 84.7337 148.447 85.4914 142.879C87.1964 130.351 89.2669 123.414 98.1302 123.181C100.591 123.116 110.071 125.156 111.601 131.569C113.13 137.983 110.242 145.609 108.155 156.4C106.259 166.202 82.1029 185.561 68.8556 187.904C67.8724 188.078 60.5864 189.28 52.9557 186.364" stroke="#DD89AC" stroke-width="3.2" stroke-linecap="round" stroke-linejoin="round"/>
<path d="M196.557 169.599C204.285 146.414 170.043 129.828 166.386 115.656L168.214 153.599C139.871 150.399 147.644 142.171 143.072 131.657C138.501 121.142 136.215 122.971 127.529 123.885C120.581 124.617 118.539 133.942 118.844 138.514C120.367 143.847 123.528 157.482 125.701 161.828C128.901 168.228 147.795 181.485 153.586 185.142C166.386 194.285 189.7 190.171 196.557 169.599Z" fill="#FAA9C8"/>
<path d="M165.439 153.676C157.061 154.182 146.567 148.447 145.809 142.879C144.104 130.351 142.033 123.414 133.17 123.181C130.709 123.116 121.229 125.156 119.7 131.569C118.17 137.983 121.058 145.609 123.145 156.4C125.041 166.202 149.197 185.561 162.445 187.904C163.428 188.078 170.714 189.28 178.345 186.364" stroke="#DD89AC" stroke-width="3.2" stroke-linecap="round" stroke-linejoin="round"/>
</svg>
