<svg width="243" height="320" viewBox="0 0 243 320" fill="none" xmlns="http://www.w3.org/2000/svg">
<g id="Frame">
<g id="&#235;&#139;&#164;&#235;&#166;&#172;">
<path id="vector" d="M75.2689 247.529C76.6738 240.973 73.5518 227.861 72.4591 225.207C72.4591 224.407 71.0855 221.378 65.5908 215.656L98.3713 205.227L105.005 217.873L111.64 230.519C110.235 243.475 112.108 248.626 112.576 255.651C113.045 262.675 111.64 267.978 105.552 270.944C100.756 273.28 84.7908 276.875 74.6445 271.724C63.7043 266.17 73.5391 255.601 75.2689 247.529Z" fill="#FAA9C8"/>
<path id="vector_2" d="M74.8335 253.815C77.9034 251.786 83.6062 249.569 91.2237 254.439" stroke="#DD89AC" stroke-width="3.2" stroke-linecap="round"/>
</g>
<g id="&#235;&#139;&#164;&#235;&#166;&#172;_2">
<path id="vector_3" d="M159.8 247.529C158.396 240.973 161.518 227.861 162.61 225.207C162.61 224.407 163.984 221.378 169.479 215.656L136.698 205.227L130.064 217.873L123.43 230.519C124.835 243.475 122.961 248.626 122.493 255.651C122.025 262.675 123.43 267.978 129.518 270.944C134.313 273.28 150.279 276.875 160.425 271.724C171.365 266.17 161.53 255.601 159.8 247.529Z" fill="#FAA9C8"/>
<path id="vector_4" d="M160.236 253.815C157.166 251.786 151.464 249.569 143.846 254.439" stroke="#DD89AC" stroke-width="3.2" stroke-linecap="round"/>
</g>
<path id="vector_5" d="M69.657 90.3628C73.4506 58.2888 101.786 52.1143 116.776 52.1143C139.879 52.1143 159.391 64.5976 163.762 86.4559C164.542 89.7859 166.112 100.068 166.237 114.553C166.958 133.777 176.76 139.898 179.468 168.069C183.042 205.252 172.358 216.07 164.988 222.573C152.344 233.729 79.0786 246.055 60.2465 213.051C44.1934 184.917 65.2323 127.775 69.657 90.3628Z" fill="#FAA9C8"/>
<path id="Vector 1" d="M69.427 88.2809C76.9196 55.438 102.519 49.5967 117.509 49.5967C140.611 49.5967 159.767 62.4633 164.494 83.9383C166.922 101.083 165.456 99.6179 167.612 111.514C169.767 123.411 191.878 132.668 194.585 160.839C194.585 160.839 200.524 197.873 140.324 198.237C80.1236 198.601 61.3906 202.42 49.5326 178.953C37.6746 155.486 49.5326 138.497 62.666 118.701C66.4996 110.101 66.807 101.326 69.427 88.2809Z" fill="#FAA9C8"/>
<path id="Vector 21" d="M82.1841 154.4C84.6786 150.223 93.0213 144.952 113.894 150.571C138.266 157.133 149.224 169.019 168.195 154.4" stroke="#DD89AC" stroke-width="3.2" stroke-linecap="round"/>
<path id="Vector 22" d="M161.981 157.739C155.054 152.114 139.154 143.921 127.915 155.004" stroke="#DD89AC" stroke-width="3.2" stroke-linecap="round"/>
<path id="Vector 16" d="M79.7828 144.48C69.3404 165.016 147.555 213.486 178.184 191.086" stroke="#DD89AC" stroke-width="3.2" stroke-linecap="round"/>
<path id="vector_6" d="M85.0991 228.391C105.613 233.854 121.47 235.103 146.289 228.859" stroke="#DD89AC" stroke-width="3.2" stroke-linecap="round"/>
<path id="Vector 23" d="M122.413 188.433C116.47 192.001 87.6699 212.572 57.9556 188.433" stroke="#DD89AC" stroke-width="3.2" stroke-linecap="round"/>
<g id="&#236;&#150;&#188;&#234;&#181;&#180;">
<path id="&#236;&#153;&#188;&#236;&#170;&#189;&#235;&#136;&#136;&#236;&#141;&#185;" d="M116.597 72.5488C120.522 74.205 123.164 72.7834 125.588 69.8906" stroke="#2E363C" stroke-width="3.65714" stroke-linecap="round"/>
<path id="&#236;&#158;&#133;" d="M107.902 111.886C115.027 123.648 131.824 128.176 139.071 122.64" stroke="#2E363C" stroke-width="3.65714" stroke-linecap="round"/>
<path id="&#236;&#152;&#164;&#235;&#165;&#184;&#236;&#170;&#189;&#235;&#136;&#136;&#236;&#141;&#185;" d="M138.857 73.7462C140.046 75.9814 141.303 78.0615 144.157 78.8432" stroke="#2E363C" stroke-width="3.65714" stroke-linecap="round"/>
<ellipse id="&#237;&#157;&#176;&#236;&#158;&#144;" cx="9.13664" cy="13.1941" rx="9.13664" ry="13.1941" transform="matrix(-0.999821 0.0189118 0.0189118 0.999821 128.101 83.8926)" fill="white"/>
<ellipse id="&#237;&#157;&#176;&#236;&#158;&#144;_2" cx="9.13664" cy="13.1941" rx="9.13664" ry="13.1941" transform="matrix(-0.999821 0.0189118 0.0189118 0.999821 149.137 83.8926)" fill="white"/>
<ellipse id="&#235;&#136;&#136;&#235;&#143;&#153;&#236;&#158;&#144;" cx="5.93171" cy="9.21878" rx="5.93171" ry="9.21878" transform="matrix(-0.993425 0.114486 0.114486 0.993425 121.444 90.2451)" fill="#2E363C"/>
<ellipse id="&#235;&#136;&#136;&#235;&#143;&#153;&#236;&#158;&#144;_2" cx="5.93171" cy="9.21878" rx="5.93171" ry="9.21878" transform="matrix(-0.993425 0.114486 0.114486 0.993425 142.481 90.2451)" fill="#2E363C"/>
<path id="Vector 20" d="M109.211 109.268C107.375 109.584 105.419 111.118 104.471 114.233" stroke="#2E363C" stroke-width="3.65714" stroke-linecap="round"/>
</g>
</g>
</svg>
